G04*
G04 #@! TF.GenerationSoftware,Altium Limited,Altium Designer,22.5.1 (42)*
G04*
G04 Layer_Color=65535*
%FSLAX44Y44*%
%MOMM*%
G71*
G04*
G04 #@! TF.SameCoordinates,CA0BB6C5-CFA1-4992-A8A9-7B9ED42510D7*
G04*
G04*
G04 #@! TF.FilePolarity,Positive*
G04*
G01*
G75*
%ADD10C,0.2000*%
%ADD11C,0.2500*%
%ADD12C,0.1270*%
%ADD13C,0.2540*%
%ADD14C,0.2032*%
%ADD15R,0.5080X1.5870*%
G36*
X82913Y662483D02*
X82393D01*
Y661962D01*
X81872D01*
Y661441D01*
X78747D01*
Y661962D01*
X78227D01*
Y662483D01*
X77706D01*
Y663004D01*
X79789D01*
Y662483D01*
X80830D01*
Y663004D01*
X82913D01*
Y662483D01*
D02*
G37*
G36*
X115718D02*
X115197D01*
Y661962D01*
X114677D01*
Y661441D01*
X112594D01*
Y661962D01*
X113115D01*
Y663004D01*
X115718D01*
Y662483D01*
D02*
G37*
G36*
X143316Y660400D02*
X144357D01*
Y658317D01*
X143837D01*
Y658838D01*
X140712D01*
Y657796D01*
X141754D01*
Y657276D01*
X143837D01*
Y656755D01*
X144357D01*
Y656234D01*
X144878D01*
Y653631D01*
X144357D01*
Y653110D01*
X143837D01*
Y652589D01*
X143316D01*
Y652069D01*
X138630D01*
Y652589D01*
X138109D01*
Y654672D01*
X138630D01*
Y654151D01*
X140712D01*
Y653631D01*
X141754D01*
Y654151D01*
X142275D01*
Y655193D01*
X140712D01*
Y655714D01*
X139150D01*
Y656234D01*
X138630D01*
Y656755D01*
X138109D01*
Y658838D01*
X138630D01*
Y659879D01*
X139150D01*
Y660400D01*
X140712D01*
Y660921D01*
X143316D01*
Y660400D01*
D02*
G37*
G36*
X98014D02*
X98535D01*
Y658317D01*
X98014D01*
Y658838D01*
X94890D01*
Y657796D01*
X95931D01*
Y657276D01*
X98014D01*
Y656755D01*
X98535D01*
Y656234D01*
X99055D01*
Y653110D01*
X98535D01*
Y652589D01*
X97493D01*
Y652069D01*
X93327D01*
Y652589D01*
X92807D01*
Y654672D01*
X93327D01*
Y654151D01*
X95410D01*
Y653631D01*
X95931D01*
Y654151D01*
X96972D01*
Y654672D01*
X96452D01*
Y655193D01*
X94890D01*
Y655714D01*
X93848D01*
Y656234D01*
X93327D01*
Y656755D01*
X92807D01*
Y659359D01*
X93327D01*
Y659879D01*
X93848D01*
Y660400D01*
X94890D01*
Y660921D01*
X98014D01*
Y660400D01*
D02*
G37*
G36*
X81872D02*
X82913D01*
Y658317D01*
X81872D01*
Y658838D01*
X80310D01*
Y658317D01*
X79268D01*
Y657796D01*
X78747D01*
Y655193D01*
X79268D01*
Y654672D01*
X79789D01*
Y654151D01*
X82393D01*
Y654672D01*
X82913D01*
Y652589D01*
X82393D01*
Y652069D01*
X78747D01*
Y652589D01*
X77706D01*
Y653110D01*
X77185D01*
Y653631D01*
X76665D01*
Y654151D01*
X76144D01*
Y658317D01*
X76665D01*
Y659359D01*
X77706D01*
Y659879D01*
X78227D01*
Y660400D01*
X79789D01*
Y660921D01*
X81872D01*
Y660400D01*
D02*
G37*
G36*
X117801Y659879D02*
X117280D01*
Y659359D01*
X116760D01*
Y658317D01*
X116239D01*
Y657276D01*
X115718D01*
Y656234D01*
X115197D01*
Y655193D01*
X114677D01*
Y652069D01*
X112594D01*
Y655714D01*
X112073D01*
Y656755D01*
X111552D01*
Y657276D01*
X111032D01*
Y658317D01*
X110511D01*
Y659359D01*
X109990D01*
Y659879D01*
Y660400D01*
Y660921D01*
X112073D01*
Y660400D01*
X112594D01*
Y659359D01*
X113115D01*
Y658317D01*
X113635D01*
Y657796D01*
X114156D01*
Y658838D01*
X114677D01*
Y659879D01*
X115197D01*
Y660921D01*
X117801D01*
Y659879D01*
D02*
G37*
G36*
X108949D02*
X108428D01*
Y659359D01*
X107907D01*
Y658317D01*
X107387D01*
Y657796D01*
X106866D01*
Y656755D01*
X106345D01*
Y656234D01*
X106866D01*
Y655193D01*
X107387D01*
Y654672D01*
X107907D01*
Y653631D01*
X108428D01*
Y653110D01*
X108949D01*
Y652069D01*
X106345D01*
Y652589D01*
X105825D01*
Y653631D01*
X105304D01*
Y654151D01*
X104783D01*
Y655193D01*
X104262D01*
Y655714D01*
X103742D01*
Y652069D01*
X101138D01*
Y660400D01*
X101659D01*
Y660921D01*
X103742D01*
Y657276D01*
X104262D01*
Y657796D01*
X104783D01*
Y658838D01*
X105304D01*
Y659359D01*
X105825D01*
Y660400D01*
X106345D01*
Y660921D01*
X108949D01*
Y659879D01*
D02*
G37*
G36*
X135505Y660400D02*
X136026D01*
Y652069D01*
X132902D01*
Y652589D01*
X132381D01*
Y653631D01*
X131860D01*
Y654672D01*
X131340D01*
Y655714D01*
X130819D01*
Y656755D01*
X130298D01*
Y652069D01*
X127695D01*
Y660400D01*
X128215D01*
Y660921D01*
X130819D01*
Y660400D01*
X131340D01*
Y659359D01*
X131860D01*
Y658317D01*
X132381D01*
Y657276D01*
X132902D01*
Y656234D01*
X133422D01*
Y660400D01*
X133943D01*
Y660921D01*
X135505D01*
Y660400D01*
D02*
G37*
G36*
X174038Y653631D02*
X173517D01*
Y653110D01*
X172997D01*
Y652589D01*
X172476D01*
Y652069D01*
X168310D01*
Y652589D01*
X167789D01*
Y653110D01*
X167269D01*
Y653631D01*
X166748D01*
Y660921D01*
X168831D01*
Y660400D01*
X169352D01*
Y654151D01*
X171435D01*
Y655193D01*
X171955D01*
Y655714D01*
Y656234D01*
Y660921D01*
X174038D01*
Y653631D01*
D02*
G37*
G36*
X165186Y658838D02*
X163103D01*
Y652069D01*
X160499D01*
Y658838D01*
X158417D01*
Y660921D01*
X165186D01*
Y658838D01*
D02*
G37*
G36*
X156334Y660400D02*
X156854D01*
Y656234D01*
Y655714D01*
Y652069D01*
X154251D01*
Y660400D01*
X154772D01*
Y660921D01*
X156334D01*
Y660400D01*
D02*
G37*
G36*
X152168D02*
X152689D01*
Y658838D01*
X150606D01*
Y652069D01*
X148002D01*
Y657276D01*
Y657796D01*
Y658838D01*
X145920D01*
Y660921D01*
X152168D01*
Y660400D01*
D02*
G37*
G36*
X125091Y652069D02*
X123008D01*
Y652589D01*
Y653110D01*
Y660921D01*
X125091D01*
Y652069D01*
D02*
G37*
G36*
X90203Y660400D02*
X90724D01*
Y658838D01*
X87079D01*
Y657276D01*
X90724D01*
Y655714D01*
X90203D01*
Y655193D01*
X87079D01*
Y654151D01*
X90724D01*
Y652069D01*
X84996D01*
Y658838D01*
Y659359D01*
Y660921D01*
X90203D01*
Y660400D01*
D02*
G37*
G36*
X169352Y647382D02*
X168831D01*
Y646341D01*
X168310D01*
Y645299D01*
X167789D01*
Y644258D01*
X167269D01*
Y643216D01*
X166748D01*
Y642696D01*
X166227D01*
Y639051D01*
X164144D01*
Y642175D01*
X163624D01*
Y643216D01*
X163103D01*
Y644258D01*
X162582D01*
Y645299D01*
X162062D01*
Y646341D01*
X161541D01*
Y647382D01*
X161020D01*
Y647903D01*
X163624D01*
Y647382D01*
X164144D01*
Y646341D01*
X164665D01*
Y645299D01*
X165186D01*
Y644779D01*
X165707D01*
Y646341D01*
X166227D01*
Y647382D01*
X166748D01*
Y647903D01*
X169352D01*
Y647382D01*
D02*
G37*
G36*
X128736D02*
X129257D01*
Y639051D01*
X126653D01*
Y644258D01*
X126132D01*
Y643216D01*
X125612D01*
Y642175D01*
X125091D01*
Y641134D01*
X124570D01*
Y640613D01*
X124050D01*
Y641654D01*
X123529D01*
Y642696D01*
X123008D01*
Y643216D01*
X122487D01*
Y644258D01*
X121967D01*
Y639051D01*
X119884D01*
Y640613D01*
Y641134D01*
Y647903D01*
X122487D01*
Y647382D01*
X123008D01*
Y646341D01*
X123529D01*
Y645820D01*
X124050D01*
Y644779D01*
X124570D01*
Y645299D01*
X125091D01*
Y646341D01*
X125612D01*
Y647382D01*
X126132D01*
Y647903D01*
X128736D01*
Y647382D01*
D02*
G37*
G36*
X160499Y646861D02*
X159979D01*
Y646341D01*
X159458D01*
Y645299D01*
X158937D01*
Y644779D01*
X158417D01*
Y644258D01*
X157896D01*
Y643216D01*
X158417D01*
Y642175D01*
X158937D01*
Y641654D01*
X159458D01*
Y640613D01*
X159979D01*
Y640092D01*
X160499D01*
Y639051D01*
X157896D01*
Y639571D01*
X157375D01*
Y640092D01*
X156854D01*
Y641134D01*
X156334D01*
Y642175D01*
X155813D01*
Y643216D01*
X155292D01*
Y642696D01*
Y642175D01*
Y639051D01*
X152689D01*
Y647382D01*
X153209D01*
Y647903D01*
X155292D01*
Y644258D01*
X155813D01*
Y644779D01*
X156334D01*
Y645820D01*
X156854D01*
Y646861D01*
X157375D01*
Y647382D01*
X157896D01*
Y647903D01*
X160499D01*
Y646861D01*
D02*
G37*
G36*
X89682Y642696D02*
Y642175D01*
Y639051D01*
X86558D01*
Y640092D01*
X86037D01*
Y640613D01*
X85517D01*
Y641654D01*
X84996D01*
Y643216D01*
X84475D01*
Y643737D01*
X83955D01*
Y639051D01*
X81351D01*
Y647382D01*
X81872D01*
Y647903D01*
X84475D01*
Y647382D01*
X84996D01*
Y646341D01*
X85517D01*
Y645299D01*
X86037D01*
Y644258D01*
X86558D01*
Y643216D01*
X87079D01*
Y647382D01*
X87600D01*
Y647903D01*
X89682D01*
Y642696D01*
D02*
G37*
G36*
X150085Y639051D02*
X148002D01*
Y641654D01*
Y642175D01*
Y647903D01*
X150085D01*
Y639051D01*
D02*
G37*
G36*
X145920Y645820D02*
X143837D01*
Y639051D01*
X141754D01*
Y639571D01*
X141233D01*
Y640092D01*
X141754D01*
Y644779D01*
Y645299D01*
X141233D01*
Y645820D01*
X139150D01*
Y647382D01*
X139671D01*
Y647903D01*
X145920D01*
Y645820D01*
D02*
G37*
G36*
X136547Y646861D02*
X137067D01*
Y645299D01*
X137588D01*
Y643737D01*
X138109D01*
Y642175D01*
X138630D01*
Y640092D01*
X139150D01*
Y639051D01*
X136547D01*
Y640613D01*
X136026D01*
Y641134D01*
X133422D01*
Y640092D01*
X132902D01*
Y639051D01*
X130819D01*
Y640613D01*
Y641134D01*
X131340D01*
Y643216D01*
X131860D01*
Y644779D01*
X132381D01*
Y646341D01*
X132902D01*
Y647382D01*
X133422D01*
Y647903D01*
X136547D01*
Y646861D01*
D02*
G37*
G36*
X114677Y647382D02*
X116239D01*
Y646861D01*
X116760D01*
Y646341D01*
X117280D01*
Y645299D01*
X117801D01*
Y644258D01*
X117280D01*
Y643216D01*
X116760D01*
Y642696D01*
X115718D01*
Y642175D01*
X116239D01*
Y641134D01*
X116760D01*
Y640613D01*
X117280D01*
Y639571D01*
X117801D01*
Y639051D01*
X115197D01*
Y639571D01*
X114677D01*
Y640613D01*
X114156D01*
Y641654D01*
X113635D01*
Y642175D01*
X113115D01*
Y641654D01*
X112594D01*
Y639051D01*
X110511D01*
Y640092D01*
Y640613D01*
Y647903D01*
X114677D01*
Y647382D01*
D02*
G37*
G36*
X105825D02*
X106866D01*
Y646861D01*
X107387D01*
Y645820D01*
X107907D01*
Y644258D01*
X108428D01*
Y642175D01*
X107907D01*
Y641134D01*
X107387D01*
Y640092D01*
X106866D01*
Y639571D01*
X105825D01*
Y639051D01*
X102180D01*
Y639571D01*
X101138D01*
Y640092D01*
X100617D01*
Y641134D01*
X100097D01*
Y642175D01*
X99576D01*
Y644779D01*
X100097D01*
Y645820D01*
X100617D01*
Y646861D01*
X101138D01*
Y647382D01*
X102180D01*
Y647903D01*
X105825D01*
Y647382D01*
D02*
G37*
G36*
X98014Y645820D02*
X94890D01*
Y644258D01*
X98014D01*
Y642696D01*
X94890D01*
Y639051D01*
X92286D01*
Y647903D01*
X98014D01*
Y645820D01*
D02*
G37*
G36*
X78747Y639051D02*
X76665D01*
Y641654D01*
Y642175D01*
Y647903D01*
X78747D01*
Y639051D01*
D02*
G37*
G36*
X144357Y634364D02*
X143837D01*
Y633323D01*
X143316D01*
Y632281D01*
X142795D01*
Y631761D01*
X142275D01*
Y630719D01*
X141754D01*
Y629678D01*
X141233D01*
Y626033D01*
X139150D01*
Y626554D01*
Y629678D01*
X138630D01*
Y630199D01*
X138109D01*
Y631240D01*
X137588D01*
Y632281D01*
X137067D01*
Y633323D01*
X136547D01*
Y634364D01*
X136026D01*
Y634885D01*
X138630D01*
Y634364D01*
X139150D01*
Y633323D01*
X139671D01*
Y632281D01*
X140712D01*
Y633323D01*
X141233D01*
Y634364D01*
X141754D01*
Y634885D01*
X144357D01*
Y634364D01*
D02*
G37*
G36*
X135505D02*
X134985D01*
Y633323D01*
X134464D01*
Y632802D01*
X133943D01*
Y631761D01*
X133422D01*
Y631240D01*
X132902D01*
Y630199D01*
X133422D01*
Y629157D01*
X133943D01*
Y628637D01*
X134464D01*
Y627595D01*
X134985D01*
Y627074D01*
X135505D01*
Y626033D01*
X132902D01*
Y626554D01*
X132381D01*
Y627595D01*
X131860D01*
Y628116D01*
X131340D01*
Y629157D01*
X130819D01*
Y629678D01*
X130298D01*
Y626033D01*
X127695D01*
Y634885D01*
X130298D01*
Y631240D01*
X130819D01*
Y632281D01*
X131340D01*
Y632802D01*
X131860D01*
Y633844D01*
X132381D01*
Y634885D01*
X135505D01*
Y634364D01*
D02*
G37*
G36*
X125091Y628116D02*
Y627595D01*
Y626033D01*
X123008D01*
Y634885D01*
X125091D01*
Y628116D01*
D02*
G37*
G36*
X120925Y632802D02*
X118842D01*
Y626033D01*
X116760D01*
Y632802D01*
X114156D01*
Y634885D01*
X120925D01*
Y632802D01*
D02*
G37*
G36*
X111032Y634364D02*
X112073D01*
Y633844D01*
X112594D01*
Y632802D01*
X113115D01*
Y628116D01*
X112594D01*
Y627074D01*
X111552D01*
Y626554D01*
X111032D01*
Y626033D01*
X107387D01*
Y626554D01*
X106345D01*
Y627074D01*
X105825D01*
Y627595D01*
X105304D01*
Y628637D01*
X104783D01*
Y632281D01*
X105304D01*
Y633323D01*
X105825D01*
Y633844D01*
X106345D01*
Y634364D01*
X107387D01*
Y634885D01*
X111032D01*
Y634364D01*
D02*
G37*
G36*
X101138D02*
X102180D01*
Y633844D01*
X102700D01*
Y631240D01*
X102180D01*
Y630199D01*
X102700D01*
Y629678D01*
X103221D01*
Y627595D01*
X102700D01*
Y627074D01*
X102180D01*
Y626554D01*
X101138D01*
Y626033D01*
X95931D01*
Y627595D01*
Y628116D01*
Y634885D01*
X101138D01*
Y634364D01*
D02*
G37*
G36*
X91245D02*
X92286D01*
Y633844D01*
X92807D01*
Y633323D01*
X93327D01*
Y631761D01*
X93848D01*
Y629157D01*
X93327D01*
Y627595D01*
X92807D01*
Y627074D01*
X92286D01*
Y626554D01*
X91245D01*
Y626033D01*
X87600D01*
Y626554D01*
X87079D01*
Y627074D01*
X86037D01*
Y628116D01*
X85517D01*
Y629678D01*
X84996D01*
Y631761D01*
X85517D01*
Y632802D01*
X86037D01*
Y633844D01*
X86558D01*
Y634364D01*
X87600D01*
Y634885D01*
X91245D01*
Y634364D01*
D02*
G37*
G36*
X81351D02*
X82393D01*
Y633844D01*
X82913D01*
Y633323D01*
X83434D01*
Y632802D01*
Y630719D01*
X82913D01*
Y630199D01*
X82393D01*
Y629678D01*
X81872D01*
Y629157D01*
X82393D01*
Y628116D01*
X82913D01*
Y627074D01*
X83434D01*
Y626033D01*
X81351D01*
Y626554D01*
X80830D01*
Y627074D01*
X80310D01*
Y628116D01*
X79789D01*
Y629157D01*
X78747D01*
Y626033D01*
X76665D01*
Y634885D01*
X81351D01*
Y634364D01*
D02*
G37*
G36*
X181849Y620826D02*
X181328D01*
Y620305D01*
X180807D01*
Y619264D01*
X180287D01*
Y618222D01*
X179766D01*
Y617181D01*
X179245D01*
Y613536D01*
X178724D01*
Y613015D01*
X176642D01*
Y617181D01*
X176121D01*
Y617701D01*
X175600D01*
Y618743D01*
X175079D01*
Y619784D01*
X174559D01*
Y620826D01*
X174038D01*
Y621867D01*
X176642D01*
Y620826D01*
X177162D01*
Y619784D01*
X177683D01*
Y619264D01*
X178204D01*
Y619784D01*
X178724D01*
Y620305D01*
Y620826D01*
X179245D01*
Y621867D01*
X181849D01*
Y620826D01*
D02*
G37*
G36*
X105304D02*
X104783D01*
Y619784D01*
X104262D01*
Y619264D01*
Y618743D01*
X103742D01*
Y617701D01*
X103221D01*
Y617181D01*
X102700D01*
Y613536D01*
X102180D01*
Y613015D01*
X100617D01*
Y613536D01*
X100097D01*
Y617181D01*
X99576D01*
Y618222D01*
X99055D01*
Y619264D01*
X98535D01*
Y620305D01*
X98014D01*
Y621347D01*
X97493D01*
Y621867D01*
X100097D01*
Y621347D01*
X100617D01*
Y619784D01*
X101138D01*
Y619264D01*
X101659D01*
Y619784D01*
X102180D01*
Y620826D01*
X102700D01*
Y621867D01*
X105304D01*
Y620826D01*
D02*
G37*
G36*
X96972Y621347D02*
X96452D01*
Y620826D01*
X95931D01*
Y619784D01*
X95410D01*
Y619264D01*
X94890D01*
Y618222D01*
X94369D01*
Y617181D01*
X94890D01*
Y616139D01*
X95410D01*
Y615098D01*
X95931D01*
Y614577D01*
X96452D01*
Y613536D01*
X96972D01*
Y613015D01*
X94369D01*
Y613536D01*
X93848D01*
Y614057D01*
X93327D01*
Y615098D01*
X92807D01*
Y615619D01*
X92286D01*
Y616660D01*
X91765D01*
Y613536D01*
X91245D01*
Y613015D01*
X89162D01*
Y621867D01*
X91765D01*
Y618743D01*
X92286D01*
Y619264D01*
X92807D01*
Y620305D01*
X93327D01*
Y621347D01*
X93848D01*
Y621867D01*
X96972D01*
Y621347D01*
D02*
G37*
G36*
X172997Y620826D02*
X172476D01*
Y620305D01*
X171955D01*
Y619264D01*
X171435D01*
Y618743D01*
X170914D01*
Y616660D01*
X171435D01*
Y616139D01*
X171955D01*
Y615098D01*
X172476D01*
Y614577D01*
X172997D01*
Y613015D01*
X170914D01*
Y613536D01*
X170393D01*
Y614057D01*
X169872D01*
Y615098D01*
X169352D01*
Y615619D01*
X168831D01*
Y616660D01*
X168310D01*
Y617181D01*
X167789D01*
Y613015D01*
X165707D01*
Y621867D01*
X167789D01*
Y618222D01*
X168310D01*
Y618743D01*
X168831D01*
Y619784D01*
X169352D01*
Y620305D01*
X169872D01*
Y621347D01*
X170393D01*
Y621867D01*
X172997D01*
Y620826D01*
D02*
G37*
G36*
X141754Y613015D02*
X139150D01*
Y613536D01*
X138630D01*
Y614577D01*
X138109D01*
Y615619D01*
X137588D01*
Y616660D01*
X137067D01*
Y617701D01*
X136547D01*
Y618222D01*
X136026D01*
Y616660D01*
Y616139D01*
Y613015D01*
X133943D01*
Y621867D01*
X137067D01*
Y620826D01*
X137588D01*
Y619784D01*
X138109D01*
Y618743D01*
X138630D01*
Y617701D01*
X139150D01*
Y617181D01*
X139671D01*
Y621867D01*
X141754D01*
Y613015D01*
D02*
G37*
G36*
X163103Y613536D02*
X162582D01*
Y613015D01*
X160499D01*
Y620826D01*
Y621347D01*
Y621867D01*
X163103D01*
Y613536D01*
D02*
G37*
G36*
X158937Y619784D02*
X156854D01*
Y613536D01*
X156334D01*
Y613015D01*
X154251D01*
Y619784D01*
X152168D01*
Y621867D01*
X158937D01*
Y619784D01*
D02*
G37*
G36*
X150606D02*
X146961D01*
Y618222D01*
X150606D01*
Y616660D01*
X146961D01*
Y615098D01*
X150606D01*
Y613536D01*
X150085D01*
Y613015D01*
X144878D01*
Y613536D01*
X144357D01*
Y621867D01*
X150606D01*
Y619784D01*
D02*
G37*
G36*
X129777Y621347D02*
X130819D01*
Y620826D01*
X131340D01*
Y619784D01*
X131860D01*
Y618222D01*
X131340D01*
Y617701D01*
X130819D01*
Y617181D01*
X130298D01*
Y616660D01*
X129777D01*
Y616139D01*
X130298D01*
Y615619D01*
X130819D01*
Y614577D01*
X131340D01*
Y614057D01*
X131860D01*
Y613015D01*
X129257D01*
Y613536D01*
X128736D01*
Y614057D01*
Y614577D01*
X128215D01*
Y615619D01*
X127695D01*
Y616139D01*
X127174D01*
Y613536D01*
X126653D01*
Y613015D01*
X124570D01*
Y621867D01*
X129777D01*
Y621347D01*
D02*
G37*
G36*
X121967Y619784D02*
X118842D01*
Y618222D01*
X121967D01*
Y616660D01*
X118842D01*
Y615098D01*
X121967D01*
Y613015D01*
X116239D01*
Y621867D01*
X121967D01*
Y619784D01*
D02*
G37*
G36*
X112594Y621347D02*
X113115D01*
Y620826D01*
X113635D01*
Y618222D01*
X113115D01*
Y617181D01*
X113635D01*
Y616660D01*
X114156D01*
Y614577D01*
X113635D01*
Y614057D01*
X113115D01*
Y613536D01*
X111552D01*
Y613015D01*
X107387D01*
Y613536D01*
X106866D01*
Y621867D01*
X112594D01*
Y621347D01*
D02*
G37*
G36*
X81872Y620305D02*
X82393D01*
Y618743D01*
X82913D01*
Y616660D01*
X83434D01*
Y615098D01*
X83955D01*
Y613015D01*
X81872D01*
Y614057D01*
X81351D01*
Y615098D01*
X78227D01*
Y613536D01*
X77706D01*
Y613015D01*
X75623D01*
Y613536D01*
Y614057D01*
Y614577D01*
X76144D01*
Y616139D01*
X76665D01*
Y618222D01*
X77185D01*
Y619784D01*
X77706D01*
Y621347D01*
X78227D01*
Y621867D01*
X81872D01*
Y620305D01*
D02*
G37*
G36*
X82913Y610932D02*
X82393D01*
Y609891D01*
X81872D01*
Y609370D01*
X79268D01*
Y609891D01*
X78747D01*
Y610411D01*
X78227D01*
Y610932D01*
X77706D01*
Y611453D01*
X79789D01*
Y610932D01*
X80830D01*
Y611453D01*
X82913D01*
Y610932D01*
D02*
G37*
G36*
X121967Y608329D02*
X121446D01*
Y606246D01*
X120925D01*
Y604684D01*
X120405D01*
Y603121D01*
X119884D01*
Y601559D01*
X119363D01*
Y600518D01*
X115718D01*
Y602080D01*
X115197D01*
Y604163D01*
X114677D01*
Y605725D01*
X114156D01*
Y607287D01*
X113635D01*
Y608849D01*
X116239D01*
Y607287D01*
X116760D01*
Y605204D01*
X117280D01*
Y603121D01*
X117801D01*
Y603642D01*
X118322D01*
Y606246D01*
X118842D01*
Y608329D01*
X119363D01*
Y608849D01*
X121967D01*
Y608329D01*
D02*
G37*
G36*
X92286Y607808D02*
X91765D01*
Y605725D01*
X91245D01*
Y604163D01*
X90724D01*
Y602601D01*
X90203D01*
Y600518D01*
X86558D01*
Y601039D01*
X86037D01*
Y602601D01*
X85517D01*
Y604163D01*
X84996D01*
Y606246D01*
X84475D01*
Y607808D01*
X83955D01*
Y608849D01*
X86558D01*
Y608329D01*
X87079D01*
Y605725D01*
X87600D01*
Y603121D01*
X88641D01*
Y605204D01*
X89162D01*
Y607808D01*
X89682D01*
Y608849D01*
X92286D01*
Y607808D01*
D02*
G37*
G36*
X101659Y603121D02*
X101138D01*
Y601559D01*
X100617D01*
Y601039D01*
X100097D01*
Y600518D01*
X98535D01*
Y599997D01*
X96452D01*
Y600518D01*
X95410D01*
Y601039D01*
X94890D01*
Y601559D01*
X94369D01*
Y602601D01*
X93848D01*
Y608849D01*
X96452D01*
Y602601D01*
X97493D01*
Y602080D01*
X98014D01*
Y602601D01*
X98535D01*
Y603121D01*
X99055D01*
Y607808D01*
Y608329D01*
Y608849D01*
X101659D01*
Y603121D01*
D02*
G37*
G36*
X167789Y606767D02*
X164144D01*
Y605725D01*
X167789D01*
Y603642D01*
X164144D01*
Y602601D01*
X164665D01*
Y602080D01*
X167789D01*
Y600518D01*
X162062D01*
Y608849D01*
X167789D01*
Y606767D01*
D02*
G37*
G36*
X159979D02*
X159458D01*
Y606246D01*
X158937D01*
Y605725D01*
X158417D01*
Y604684D01*
X157896D01*
Y604163D01*
X157375D01*
Y603642D01*
X156854D01*
Y603121D01*
X156334D01*
Y602080D01*
X159979D01*
Y600518D01*
X153209D01*
Y602601D01*
X153730D01*
Y603121D01*
X154251D01*
Y603642D01*
X154772D01*
Y604684D01*
X155292D01*
Y605204D01*
X155813D01*
Y605725D01*
X156334D01*
Y606767D01*
X153730D01*
Y607287D01*
X153209D01*
Y608849D01*
X159979D01*
Y606767D01*
D02*
G37*
G36*
X150085Y607287D02*
X150606D01*
Y605725D01*
X151127D01*
Y603642D01*
X151647D01*
Y602080D01*
X152168D01*
Y600518D01*
X150085D01*
Y601039D01*
X149565D01*
Y602080D01*
X146440D01*
Y600518D01*
X143837D01*
Y601559D01*
X144357D01*
Y603642D01*
X144878D01*
Y605204D01*
X145399D01*
Y606767D01*
X145920D01*
Y608849D01*
X150085D01*
Y607287D01*
D02*
G37*
G36*
X141233Y608329D02*
X142275D01*
Y607287D01*
X142795D01*
Y604684D01*
X142275D01*
Y604163D01*
X141233D01*
Y603121D01*
X141754D01*
Y602080D01*
X142275D01*
Y601039D01*
X142795D01*
Y600518D01*
X140192D01*
Y601039D01*
X139671D01*
Y602080D01*
X139150D01*
Y603121D01*
X138630D01*
Y603642D01*
X138109D01*
Y600518D01*
X135505D01*
Y608849D01*
X141233D01*
Y608329D01*
D02*
G37*
G36*
X131860D02*
X132902D01*
Y607808D01*
X133422D01*
Y606767D01*
X133943D01*
Y605204D01*
X133422D01*
Y604163D01*
X132902D01*
Y603642D01*
X131860D01*
Y603121D01*
X129257D01*
Y600518D01*
X126653D01*
Y605204D01*
Y605725D01*
Y608849D01*
X131860D01*
Y608329D01*
D02*
G37*
G36*
X109990Y607287D02*
X109470D01*
Y606767D01*
X107387D01*
Y604684D01*
X107907D01*
Y604163D01*
X107387D01*
Y601039D01*
X107907D01*
Y600518D01*
X105304D01*
Y606767D01*
X103221D01*
Y608849D01*
X109990D01*
Y607287D01*
D02*
G37*
G36*
X67292Y659879D02*
X66771D01*
Y601039D01*
X67292D01*
Y600518D01*
X6368D01*
Y660400D01*
X67292D01*
Y659879D01*
D02*
G37*
G36*
X82913Y606767D02*
X79268D01*
Y606246D01*
X78747D01*
Y603121D01*
X79268D01*
Y602601D01*
X82913D01*
Y600518D01*
X80830D01*
Y599997D01*
X80310D01*
Y600518D01*
X78227D01*
Y601039D01*
X77185D01*
Y601559D01*
X76665D01*
Y602601D01*
X76144D01*
Y605204D01*
Y605725D01*
Y606767D01*
X76665D01*
Y607287D01*
X77185D01*
Y607808D01*
X77706D01*
Y608329D01*
X78227D01*
Y608849D01*
X82913D01*
Y606767D01*
D02*
G37*
%LPC*%
G36*
X134985Y645820D02*
X134464D01*
Y644779D01*
Y644258D01*
Y643737D01*
X133943D01*
Y642696D01*
X135505D01*
Y644779D01*
X134985D01*
Y645820D01*
D02*
G37*
G36*
X114677D02*
X112594D01*
Y645299D01*
Y644258D01*
X113115D01*
Y643737D01*
X114677D01*
Y644779D01*
X115197D01*
Y645299D01*
X114677D01*
Y645820D01*
D02*
G37*
G36*
X104783D02*
X103221D01*
Y645299D01*
X102700D01*
Y644779D01*
X102180D01*
Y642175D01*
X102700D01*
Y641654D01*
X103221D01*
Y641134D01*
X104783D01*
Y641654D01*
X105304D01*
Y642696D01*
X105825D01*
Y644258D01*
X105304D01*
Y644779D01*
Y645299D01*
X104783D01*
Y645820D01*
D02*
G37*
G36*
X109990Y632802D02*
X107907D01*
Y631761D01*
X107387D01*
Y629157D01*
X107907D01*
Y628637D01*
X108428D01*
Y628116D01*
X109990D01*
Y628637D01*
X110511D01*
Y630199D01*
X111032D01*
Y630719D01*
X110511D01*
Y631240D01*
Y631761D01*
Y632281D01*
X109990D01*
Y632802D01*
D02*
G37*
G36*
X99576Y633323D02*
X98535D01*
Y632802D01*
Y632281D01*
Y631240D01*
X100097D01*
Y631761D01*
X100617D01*
Y632281D01*
X100097D01*
Y632802D01*
X99576D01*
Y633323D01*
D02*
G37*
G36*
X100617Y629678D02*
X98535D01*
Y628116D01*
X100617D01*
Y629157D01*
Y629678D01*
D02*
G37*
G36*
X90724Y632802D02*
X88641D01*
Y632281D01*
X88120D01*
Y631240D01*
X87600D01*
Y629678D01*
X88120D01*
Y629157D01*
Y628637D01*
X88641D01*
Y628116D01*
X90203D01*
Y628637D01*
X90724D01*
Y629157D01*
X91245D01*
Y631761D01*
X90724D01*
Y632802D01*
D02*
G37*
G36*
X79789Y633323D02*
X79268D01*
Y632802D01*
X78747D01*
Y630719D01*
X80310D01*
Y631240D01*
X80830D01*
Y631761D01*
Y632802D01*
X79789D01*
Y633323D01*
D02*
G37*
G36*
X128215Y620305D02*
X127174D01*
Y618222D01*
Y617701D01*
X128215D01*
Y618222D01*
X129257D01*
Y619784D01*
X128215D01*
Y620305D01*
D02*
G37*
G36*
X110511D02*
X109470D01*
Y618222D01*
X111032D01*
Y618743D01*
X111552D01*
Y619784D01*
X110511D01*
Y620305D01*
D02*
G37*
G36*
X111032Y617181D02*
X109470D01*
Y615098D01*
X111552D01*
Y615619D01*
Y616139D01*
Y616660D01*
X111032D01*
Y617181D01*
D02*
G37*
G36*
X80310Y619784D02*
X79789D01*
Y619264D01*
X79268D01*
Y616660D01*
X80830D01*
Y617181D01*
Y617701D01*
X80310D01*
Y619784D01*
D02*
G37*
G36*
X148523Y606767D02*
X148002D01*
Y606246D01*
X147482D01*
Y603642D01*
X148523D01*
Y604163D01*
X149044D01*
Y604684D01*
X148523D01*
Y606767D01*
D02*
G37*
G36*
X139671Y607287D02*
X138109D01*
Y605204D01*
X140192D01*
Y606767D01*
X139671D01*
Y607287D01*
D02*
G37*
G36*
X130819D02*
X129257D01*
Y605204D01*
X131340D01*
Y606767D01*
X130819D01*
Y607287D01*
D02*
G37*
G36*
X48546Y645299D02*
X46984D01*
Y644779D01*
X46463D01*
Y644258D01*
X45422D01*
Y644779D01*
X44901D01*
Y645299D01*
X43339D01*
Y644779D01*
X42818D01*
Y644258D01*
X41777D01*
Y644779D01*
X41256D01*
Y645299D01*
X39694D01*
Y644258D01*
X40215D01*
Y643216D01*
X40735D01*
Y642696D01*
X41777D01*
Y641654D01*
X42818D01*
Y641134D01*
X42298D01*
Y640613D01*
X41777D01*
Y641134D01*
X41256D01*
Y642175D01*
X38132D01*
Y641654D01*
X38653D01*
Y639571D01*
X38132D01*
Y639051D01*
X35008D01*
Y639571D01*
X34487D01*
Y640613D01*
X33445D01*
Y638530D01*
X33966D01*
Y638009D01*
X34487D01*
Y637489D01*
X37090D01*
Y638009D01*
X38653D01*
Y635406D01*
X40215D01*
Y635927D01*
X43860D01*
Y635406D01*
X41777D01*
Y634885D01*
X39694D01*
Y634364D01*
X38132D01*
Y633844D01*
X37090D01*
Y634364D01*
X37611D01*
Y634885D01*
X32404D01*
Y634364D01*
X25635D01*
Y635406D01*
X25114D01*
Y636968D01*
X25635D01*
Y637489D01*
X26155D01*
Y638009D01*
X26676D01*
Y639051D01*
X27197D01*
Y639571D01*
X26676D01*
Y640613D01*
X26155D01*
Y641134D01*
X25114D01*
Y641654D01*
X24593D01*
Y641134D01*
X24072D01*
Y641654D01*
X22510D01*
Y641134D01*
X21469D01*
Y640613D01*
X20428D01*
Y641134D01*
X20948D01*
Y641654D01*
X20428D01*
Y642175D01*
X19386D01*
Y642696D01*
X17824D01*
Y642175D01*
X16262D01*
Y641654D01*
X15741D01*
Y641134D01*
X15220D01*
Y640613D01*
X14700D01*
Y640092D01*
X14179D01*
Y636968D01*
X14700D01*
Y635927D01*
X15220D01*
Y635406D01*
X15741D01*
Y634885D01*
X16262D01*
Y634364D01*
X18345D01*
Y633323D01*
X18865D01*
Y630719D01*
X19386D01*
Y628637D01*
X19907D01*
Y627595D01*
X20428D01*
Y628116D01*
X20948D01*
Y628637D01*
X21990D01*
Y629157D01*
X22510D01*
Y629678D01*
X21990D01*
Y630719D01*
X23031D01*
Y630199D01*
X30321D01*
Y629678D01*
X31883D01*
Y629157D01*
X32404D01*
Y628637D01*
X32925D01*
Y628116D01*
X32404D01*
Y627595D01*
X31883D01*
Y627074D01*
X30842D01*
Y626554D01*
X30321D01*
Y626033D01*
X29800D01*
Y625512D01*
X29280D01*
Y624991D01*
X28759D01*
Y624471D01*
X27717D01*
Y623950D01*
X26676D01*
Y624471D01*
X26155D01*
Y624991D01*
X25635D01*
Y626554D01*
X26155D01*
Y627595D01*
X25635D01*
Y628637D01*
X24593D01*
Y629157D01*
X23031D01*
Y628637D01*
X22510D01*
Y628116D01*
X21469D01*
Y627595D01*
X20948D01*
Y627074D01*
X20428D01*
Y625512D01*
X19907D01*
Y624991D01*
X19386D01*
Y623429D01*
X19907D01*
Y622909D01*
X20428D01*
Y623429D01*
X20948D01*
Y621347D01*
X21469D01*
Y620305D01*
X21990D01*
Y619784D01*
X22510D01*
Y618222D01*
X23031D01*
Y616139D01*
X23552D01*
Y614057D01*
X24072D01*
Y611974D01*
X24593D01*
Y609370D01*
X25114D01*
Y607287D01*
X25635D01*
Y605725D01*
X26676D01*
Y607287D01*
X26155D01*
Y608329D01*
Y608849D01*
X26676D01*
Y607287D01*
X27197D01*
Y605204D01*
X27717D01*
Y604684D01*
X28759D01*
Y605725D01*
X30321D01*
Y605204D01*
X31363D01*
Y604684D01*
X32925D01*
Y605204D01*
X33966D01*
Y605725D01*
X36570D01*
Y605204D01*
X37090D01*
Y604684D01*
X38132D01*
Y605204D01*
X38653D01*
Y605725D01*
X39173D01*
Y613015D01*
X40215D01*
Y613536D01*
X40735D01*
Y614057D01*
X41256D01*
Y615098D01*
X39694D01*
Y615619D01*
X39173D01*
Y616660D01*
X43860D01*
Y617701D01*
X43339D01*
Y618743D01*
X43860D01*
Y617701D01*
X44380D01*
Y617181D01*
X44901D01*
Y616660D01*
X45943D01*
Y617701D01*
X46463D01*
Y615619D01*
X46984D01*
Y614577D01*
X47505D01*
Y614057D01*
X48025D01*
Y613536D01*
X54274D01*
Y608849D01*
X52191D01*
Y609370D01*
X51670D01*
Y610411D01*
X51150D01*
Y610932D01*
X50629D01*
Y611453D01*
X48025D01*
Y610932D01*
X47505D01*
Y609370D01*
X46984D01*
Y608329D01*
X46463D01*
Y607287D01*
X46984D01*
Y605204D01*
X47505D01*
Y604684D01*
X48546D01*
Y605725D01*
X50108D01*
Y605204D01*
X51150D01*
Y604684D01*
X52712D01*
Y605204D01*
X53753D01*
Y605725D01*
X56357D01*
Y605204D01*
X56877D01*
Y604163D01*
X57398D01*
Y604684D01*
X57919D01*
Y605204D01*
X58440D01*
Y605725D01*
X58960D01*
Y615619D01*
X58440D01*
Y616139D01*
X58960D01*
Y616660D01*
X59481D01*
Y617181D01*
X60002D01*
Y618743D01*
X58440D01*
Y618222D01*
X52712D01*
Y618743D01*
X52191D01*
Y620305D01*
X51670D01*
Y620826D01*
X53232D01*
Y620305D01*
X55836D01*
Y620826D01*
X57919D01*
Y621347D01*
X58960D01*
Y621867D01*
X60002D01*
Y622388D01*
X60522D01*
Y622909D01*
X61043D01*
Y623429D01*
X61564D01*
Y624471D01*
X62085D01*
Y624991D01*
X62605D01*
Y627074D01*
X63126D01*
Y629157D01*
X62605D01*
Y630719D01*
X62085D01*
Y631761D01*
X61564D01*
Y632281D01*
X60522D01*
Y632802D01*
X60002D01*
Y633323D01*
X58960D01*
Y632802D01*
X57919D01*
Y633323D01*
X58440D01*
Y633844D01*
X58960D01*
Y634364D01*
X59481D01*
Y634885D01*
X60522D01*
Y635927D01*
X61043D01*
Y637489D01*
X61564D01*
Y638009D01*
X62085D01*
Y638530D01*
X62605D01*
Y640092D01*
X62085D01*
Y641134D01*
X61043D01*
Y641654D01*
X58960D01*
Y641134D01*
X58440D01*
Y640092D01*
X58960D01*
Y639571D01*
X59481D01*
Y636968D01*
X58960D01*
Y636447D01*
X58440D01*
Y635927D01*
X57919D01*
Y635406D01*
X57398D01*
Y634885D01*
X56877D01*
Y634364D01*
X55836D01*
Y634885D01*
X56357D01*
Y635406D01*
X56877D01*
Y636447D01*
X56357D01*
Y637489D01*
X55836D01*
Y639051D01*
X56357D01*
Y640092D01*
X56877D01*
Y641134D01*
X56357D01*
Y641654D01*
X54274D01*
Y641134D01*
X53753D01*
Y640613D01*
X53232D01*
Y640092D01*
X52712D01*
Y639051D01*
X53232D01*
Y638009D01*
X53753D01*
Y637489D01*
X54274D01*
Y635927D01*
X54795D01*
Y634885D01*
X55315D01*
Y634364D01*
X55836D01*
Y633844D01*
X55315D01*
Y633323D01*
X54795D01*
Y632802D01*
X54274D01*
Y632281D01*
X53753D01*
Y631761D01*
X53232D01*
Y631240D01*
X52712D01*
Y630199D01*
X52191D01*
Y626554D01*
X52712D01*
Y625512D01*
X53232D01*
Y624991D01*
X53753D01*
Y624471D01*
X54274D01*
Y623950D01*
X55315D01*
Y623429D01*
X58440D01*
Y622909D01*
X57398D01*
Y622388D01*
X52191D01*
Y622909D01*
X51150D01*
Y623429D01*
X50108D01*
Y623950D01*
X49587D01*
Y624991D01*
X49067D01*
Y626554D01*
X48546D01*
Y627595D01*
X48025D01*
Y627074D01*
X46984D01*
Y627595D01*
X47505D01*
Y628116D01*
X48546D01*
Y628637D01*
X49587D01*
Y629157D01*
X50108D01*
Y630199D01*
X50629D01*
Y630719D01*
X51150D01*
Y632281D01*
X51670D01*
Y636968D01*
X51150D01*
Y633844D01*
X50629D01*
Y634885D01*
Y635406D01*
Y638530D01*
X50108D01*
Y639571D01*
X49587D01*
Y638530D01*
X49067D01*
Y640613D01*
X48546D01*
Y641134D01*
X48025D01*
Y640613D01*
X48546D01*
Y639051D01*
Y638530D01*
Y636968D01*
X48025D01*
Y640613D01*
X47505D01*
Y641654D01*
X46984D01*
Y640613D01*
X46463D01*
Y642175D01*
X44901D01*
Y642696D01*
X47505D01*
Y643737D01*
X48025D01*
Y644258D01*
X48546D01*
Y645299D01*
D02*
G37*
G36*
X17824Y633844D02*
X16262D01*
Y632802D01*
X15741D01*
Y630719D01*
X15220D01*
Y628637D01*
X14700D01*
Y626554D01*
X14179D01*
Y623950D01*
X13658D01*
Y621867D01*
X13138D01*
Y619784D01*
X12617D01*
Y617181D01*
X12096D01*
Y615619D01*
X11575D01*
Y613015D01*
X11055D01*
Y610932D01*
X10534D01*
Y608849D01*
X10013D01*
Y606767D01*
X9492D01*
Y604684D01*
X10534D01*
Y605204D01*
X11055D01*
Y605725D01*
X11575D01*
Y606246D01*
X12096D01*
Y608329D01*
X12617D01*
Y610411D01*
X13138D01*
Y613015D01*
X13658D01*
Y615098D01*
X14179D01*
Y617181D01*
X14700D01*
Y619264D01*
X15220D01*
Y619784D01*
X15741D01*
Y620305D01*
X16262D01*
Y622388D01*
X16783D01*
Y624471D01*
X17303D01*
Y626554D01*
X17824D01*
Y629157D01*
X18345D01*
Y633323D01*
X17824D01*
Y633844D01*
D02*
G37*
%LPD*%
G36*
X44380Y642696D02*
X41777D01*
Y643216D01*
X44380D01*
Y642696D01*
D02*
G37*
G36*
X46463Y640092D02*
X45943D01*
Y640613D01*
X46463D01*
Y640092D01*
D02*
G37*
G36*
X40735Y639571D02*
X41256D01*
Y639051D01*
X40215D01*
Y639571D01*
X39173D01*
Y640092D01*
X40735D01*
Y639571D01*
D02*
G37*
G36*
X25635Y639051D02*
X25114D01*
Y640092D01*
X24593D01*
Y640613D01*
X25635D01*
Y639051D01*
D02*
G37*
G36*
X23031Y640092D02*
X23552D01*
Y639051D01*
Y638530D01*
X23031D01*
Y640092D01*
X22510D01*
Y640613D01*
X23031D01*
Y640092D01*
D02*
G37*
G36*
X46984Y638009D02*
Y637489D01*
X46463D01*
Y638530D01*
X46984D01*
Y638009D01*
D02*
G37*
G36*
X41256D02*
Y637489D01*
X39173D01*
Y638009D01*
X38653D01*
Y638530D01*
X41256D01*
Y638009D01*
D02*
G37*
G36*
X20428Y640092D02*
X19907D01*
Y639571D01*
X19386D01*
Y639051D01*
X20948D01*
Y638530D01*
X21469D01*
Y638009D01*
Y637489D01*
X20948D01*
Y638530D01*
X19907D01*
Y636968D01*
X18865D01*
Y636447D01*
X18345D01*
Y636968D01*
X17303D01*
Y637489D01*
X16783D01*
Y639051D01*
X17303D01*
Y639571D01*
X17824D01*
Y640092D01*
X19386D01*
Y640613D01*
X20428D01*
Y640092D01*
D02*
G37*
G36*
X46463Y636968D02*
X45943D01*
Y637489D01*
X46463D01*
Y636968D01*
D02*
G37*
G36*
X45943Y636447D02*
X45422D01*
Y636968D01*
X45943D01*
Y636447D01*
D02*
G37*
G36*
X44901Y635927D02*
X44380D01*
Y636447D01*
X44901D01*
Y635927D01*
D02*
G37*
G36*
X49587Y634885D02*
X49067D01*
Y635927D01*
Y636447D01*
Y636968D01*
X49587D01*
Y634885D01*
D02*
G37*
G36*
X48025Y635406D02*
X47505D01*
Y634885D01*
X46984D01*
Y634364D01*
X45943D01*
Y634885D01*
X46463D01*
Y635406D01*
X46984D01*
Y635927D01*
X47505D01*
Y636968D01*
X48025D01*
Y635406D01*
D02*
G37*
G36*
X49067Y633844D02*
X48546D01*
Y634364D01*
Y634885D01*
X49067D01*
Y633844D01*
D02*
G37*
G36*
X45943D02*
X44901D01*
Y634364D01*
X45943D01*
Y633844D01*
D02*
G37*
G36*
X48546Y633323D02*
X48025D01*
Y633844D01*
X48546D01*
Y633323D01*
D02*
G37*
G36*
X44901D02*
X43339D01*
Y633844D01*
X44901D01*
Y633323D01*
D02*
G37*
G36*
X50629D02*
Y632802D01*
X50108D01*
Y633844D01*
X50629D01*
Y633323D01*
D02*
G37*
G36*
X48025Y632802D02*
X47505D01*
Y633323D01*
X48025D01*
Y632802D01*
D02*
G37*
G36*
X43339D02*
X41777D01*
Y633323D01*
X43339D01*
Y632802D01*
D02*
G37*
G36*
X47505Y632281D02*
X46984D01*
Y632802D01*
X47505D01*
Y632281D01*
D02*
G37*
G36*
X41777D02*
X40215D01*
Y632802D01*
X41777D01*
Y632281D01*
D02*
G37*
G36*
X50108Y631761D02*
X49587D01*
Y632281D01*
Y632802D01*
X50108D01*
Y631761D01*
D02*
G37*
G36*
X46984D02*
X45422D01*
Y632281D01*
X46984D01*
Y631761D01*
D02*
G37*
G36*
X40215D02*
X39173D01*
Y632281D01*
X40215D01*
Y631761D01*
D02*
G37*
G36*
X37090Y633323D02*
X36570D01*
Y632802D01*
X36049D01*
Y632281D01*
X35528D01*
Y631761D01*
X35008D01*
Y632802D01*
X35528D01*
Y633323D01*
X36049D01*
Y633844D01*
X37090D01*
Y633323D01*
D02*
G37*
G36*
X20948Y635927D02*
X21469D01*
Y635406D01*
Y634885D01*
Y634364D01*
X21990D01*
Y633844D01*
X22510D01*
Y631761D01*
X21469D01*
Y633844D01*
X20948D01*
Y635927D01*
X20428D01*
Y636968D01*
Y637489D01*
X20948D01*
Y635927D01*
D02*
G37*
G36*
X49587Y631240D02*
X49067D01*
Y631761D01*
X49587D01*
Y631240D01*
D02*
G37*
G36*
X45422D02*
X44380D01*
Y631761D01*
X45422D01*
Y631240D01*
D02*
G37*
G36*
X49067Y630719D02*
X48546D01*
Y631240D01*
X49067D01*
Y630719D01*
D02*
G37*
G36*
X44380D02*
X42818D01*
Y631240D01*
X44380D01*
Y630719D01*
D02*
G37*
G36*
X35008D02*
X34487D01*
Y631761D01*
X35008D01*
Y630719D01*
D02*
G37*
G36*
X48546Y630199D02*
X47505D01*
Y630719D01*
X48546D01*
Y630199D01*
D02*
G37*
G36*
X42818D02*
X41777D01*
Y630719D01*
X42818D01*
Y630199D01*
D02*
G37*
G36*
X41777Y629678D02*
X40735D01*
Y630199D01*
X41777D01*
Y629678D01*
D02*
G37*
G36*
X39173Y631240D02*
X38653D01*
Y630719D01*
X38132D01*
Y630199D01*
X37611D01*
Y629678D01*
X37090D01*
Y630719D01*
X37611D01*
Y631240D01*
X38132D01*
Y631761D01*
X39173D01*
Y631240D01*
D02*
G37*
G36*
X47505Y629678D02*
X46984D01*
Y629157D01*
X45422D01*
Y629678D01*
X46463D01*
Y630199D01*
X47505D01*
Y629678D01*
D02*
G37*
G36*
X40735Y629157D02*
X40215D01*
Y629678D01*
X40735D01*
Y629157D01*
D02*
G37*
G36*
X45422Y628637D02*
X44380D01*
Y629157D01*
X45422D01*
Y628637D01*
D02*
G37*
G36*
X40215D02*
X39694D01*
Y629157D01*
X40215D01*
Y628637D01*
D02*
G37*
G36*
X44380Y628116D02*
X43339D01*
Y628637D01*
X44380D01*
Y628116D01*
D02*
G37*
G36*
X24072Y627074D02*
X23552D01*
Y627595D01*
X23031D01*
Y628116D01*
X24072D01*
Y627074D01*
D02*
G37*
G36*
X46984Y626554D02*
X45943D01*
Y627074D01*
X46984D01*
Y626554D01*
D02*
G37*
G36*
X43339Y627595D02*
X42818D01*
Y627074D01*
X42298D01*
Y626554D01*
X41777D01*
Y627595D01*
X42298D01*
Y628116D01*
X43339D01*
Y627595D01*
D02*
G37*
G36*
X45943Y626033D02*
X44901D01*
Y626554D01*
X45943D01*
Y626033D01*
D02*
G37*
G36*
X57919Y632281D02*
X58440D01*
Y631761D01*
X58960D01*
Y631240D01*
X60002D01*
Y630199D01*
X60522D01*
Y629678D01*
Y629157D01*
X61043D01*
Y627595D01*
X60522D01*
Y626554D01*
X60002D01*
Y626033D01*
X59481D01*
Y625512D01*
X55836D01*
Y626033D01*
X54795D01*
Y627074D01*
X54274D01*
Y630199D01*
X54795D01*
Y630719D01*
X55315D01*
Y631240D01*
X55836D01*
Y631761D01*
X56357D01*
Y632281D01*
X56877D01*
Y632802D01*
X57919D01*
Y632281D01*
D02*
G37*
G36*
X44901Y625512D02*
X44380D01*
Y626033D01*
X44901D01*
Y625512D01*
D02*
G37*
G36*
X22510D02*
X21990D01*
Y626033D01*
X20948D01*
Y626554D01*
X22510D01*
Y625512D01*
D02*
G37*
G36*
X44380Y624991D02*
X43860D01*
Y625512D01*
X44380D01*
Y624991D01*
D02*
G37*
G36*
X34487Y627074D02*
X35008D01*
Y626033D01*
X35528D01*
Y624991D01*
X36049D01*
Y624471D01*
X37090D01*
Y623950D01*
X38132D01*
Y624471D01*
X37611D01*
Y624991D01*
X37090D01*
Y625512D01*
X36570D01*
Y629678D01*
X37090D01*
Y628637D01*
Y628116D01*
Y626033D01*
X37611D01*
Y624991D01*
X38132D01*
Y624471D01*
X38653D01*
Y623950D01*
X39173D01*
Y623429D01*
X40215D01*
Y623950D01*
X39694D01*
Y624471D01*
X39173D01*
Y626033D01*
Y626554D01*
Y628637D01*
X39694D01*
Y624471D01*
X40215D01*
Y623950D01*
X40735D01*
Y623429D01*
X41256D01*
Y622909D01*
X41777D01*
Y623950D01*
X41256D01*
Y626554D01*
X41777D01*
Y623950D01*
X42298D01*
Y622909D01*
X42818D01*
Y622388D01*
X43339D01*
Y624991D01*
X43860D01*
Y622388D01*
X44380D01*
Y621347D01*
X44901D01*
Y620305D01*
X45422D01*
Y619784D01*
X45943D01*
Y618743D01*
Y618222D01*
X45422D01*
Y619784D01*
X44901D01*
Y620305D01*
X44380D01*
Y620826D01*
Y621347D01*
X43860D01*
Y621867D01*
X43339D01*
Y620826D01*
X43860D01*
Y619784D01*
X44380D01*
Y618743D01*
X43860D01*
Y619784D01*
X43339D01*
Y620826D01*
X42818D01*
Y621347D01*
X42298D01*
Y621867D01*
X41777D01*
Y622388D01*
X39173D01*
Y621867D01*
X36570D01*
Y621347D01*
X35008D01*
Y620826D01*
X34487D01*
Y619264D01*
X33966D01*
Y617181D01*
X34487D01*
Y608849D01*
X31883D01*
Y609891D01*
X31363D01*
Y610932D01*
X30842D01*
Y611453D01*
X28238D01*
Y610932D01*
X27717D01*
Y609370D01*
X27197D01*
Y608849D01*
X26676D01*
Y611974D01*
X26155D01*
Y614577D01*
X25635D01*
Y616660D01*
X25114D01*
Y618743D01*
X24593D01*
Y620826D01*
X24072D01*
Y621347D01*
X23031D01*
Y621867D01*
X22510D01*
Y622388D01*
X21990D01*
Y622909D01*
X21469D01*
Y623429D01*
X20948D01*
Y623950D01*
X21990D01*
Y623429D01*
X22510D01*
Y622909D01*
X23031D01*
Y622388D01*
X23552D01*
Y621867D01*
X24072D01*
Y621347D01*
X24593D01*
Y620826D01*
X25635D01*
Y620305D01*
X26155D01*
Y619264D01*
X25635D01*
Y618222D01*
X27717D01*
Y618743D01*
X28238D01*
Y619264D01*
X28759D01*
Y619784D01*
X29280D01*
Y620305D01*
X29800D01*
Y620826D01*
X30321D01*
Y621347D01*
X30842D01*
Y621867D01*
X31883D01*
Y622388D01*
X32404D01*
Y622909D01*
X35528D01*
Y623429D01*
X36049D01*
Y624471D01*
X35528D01*
Y624991D01*
X35008D01*
Y625512D01*
X34487D01*
Y626554D01*
X33966D01*
Y628637D01*
X32925D01*
Y629157D01*
X33966D01*
Y630719D01*
X34487D01*
Y627074D01*
D02*
G37*
G36*
X49587Y609891D02*
X50108D01*
Y609370D01*
X49067D01*
Y609891D01*
X48546D01*
Y610411D01*
X49587D01*
Y609891D01*
D02*
G37*
G36*
X29800Y609370D02*
X29280D01*
Y609891D01*
X28759D01*
Y610411D01*
X29800D01*
Y609370D01*
D02*
G37*
G36*
X49067Y607808D02*
X47505D01*
Y608329D01*
X49067D01*
Y607808D01*
D02*
G37*
G36*
X29280D02*
X27717D01*
Y608329D01*
X29280D01*
Y607808D01*
D02*
G37*
D10*
X24110Y511810D02*
G03*
X24110Y511810I-1000J0D01*
G01*
X1000760Y149860D02*
Y607060D01*
X949960Y149860D02*
Y607060D01*
Y149860D02*
X1000760D01*
X949960Y607060D02*
X1000760D01*
X751840Y246380D02*
X777240D01*
X751840D02*
Y347980D01*
X777240Y246380D02*
Y347980D01*
X751840D02*
X777240D01*
X408940Y140840D02*
Y156340D01*
X396240Y140840D02*
X408940D01*
X396240Y156340D02*
X408940D01*
X189230Y102740D02*
Y118240D01*
X176530Y102740D02*
X189230D01*
X176530Y118240D02*
X189230D01*
X61430Y80570D02*
X113830D01*
X50630D02*
X56430D01*
X55680Y76570D02*
X62180D01*
X55680D02*
X56430Y80570D01*
X61430D02*
X62180Y76570D01*
X118830Y80570D02*
X124630D01*
X113080Y76570D02*
X113830Y80570D01*
X118830D02*
X119580Y76570D01*
X113080D02*
X119580D01*
X50630Y150570D02*
X124630D01*
Y80570D02*
Y150570D01*
X50630Y80570D02*
Y150570D01*
X162670Y157540D02*
Y165040D01*
X144670Y157540D02*
Y165040D01*
X900430Y27940D02*
Y53340D01*
X697230Y27940D02*
X900430D01*
X697230D02*
Y53340D01*
X900430D01*
X397510Y629920D02*
Y655320D01*
X194310Y629920D02*
X397510D01*
X194310D02*
Y655320D01*
X397510D01*
X440690Y24130D02*
Y49530D01*
X288290Y24130D02*
Y49530D01*
X440690D01*
X288290Y24130D02*
X440690D01*
X610870Y631190D02*
Y656590D01*
X407670Y631190D02*
X610870D01*
X407670D02*
Y656590D01*
X610870D01*
X838200Y631190D02*
Y656590D01*
X635000Y631190D02*
X838200D01*
X635000D02*
Y656590D01*
X838200D01*
X665480Y26670D02*
Y52070D01*
X462280Y26670D02*
X665480D01*
X462280D02*
Y52070D01*
X665480D01*
X684530Y234950D02*
Y285750D01*
X608330Y234950D02*
Y285750D01*
X684530D01*
X608330Y234950D02*
X684530D01*
X635847D02*
X684530D01*
X707390Y309880D02*
Y335280D01*
X504190Y309880D02*
X707390D01*
X504190D02*
Y335280D01*
X707390D01*
Y182880D02*
Y208280D01*
X504190Y182880D02*
X707390D01*
X504190D02*
Y208280D01*
X707390D01*
X455930Y424180D02*
Y474980D01*
X379730Y424180D02*
Y474980D01*
X455930D01*
X379730Y424180D02*
X455930D01*
X407247D02*
X455930D01*
X466090Y506730D02*
Y532130D01*
X262890Y506730D02*
X466090D01*
X262890D02*
Y532130D01*
X466090D01*
Y379730D02*
Y405130D01*
X262890Y379730D02*
X466090D01*
X262890D02*
Y405130D01*
X466090D01*
X447040Y232410D02*
Y283210D01*
X370840Y232410D02*
Y283210D01*
X447040D01*
X370840Y232410D02*
X447040D01*
X398357D02*
X447040D01*
X469900Y311150D02*
Y336550D01*
X266700Y311150D02*
X469900D01*
X266700D02*
Y336550D01*
X469900D01*
Y184150D02*
Y209550D01*
X266700Y184150D02*
X469900D01*
X266700D02*
Y209550D01*
X469900D01*
X751840Y358140D02*
X777240D01*
X751840D02*
Y459740D01*
X777240Y358140D02*
Y459740D01*
X751840D02*
X777240D01*
X751840Y133350D02*
X777240D01*
X751840D02*
Y234950D01*
X777240Y133350D02*
Y234950D01*
X751840D02*
X777240D01*
X751840Y467360D02*
X777240D01*
X751840D02*
Y568960D01*
X777240Y467360D02*
Y568960D01*
X751840D02*
X777240D01*
X683260Y425450D02*
Y476250D01*
X607060Y425450D02*
Y476250D01*
X683260D01*
X607060Y425450D02*
X683260D01*
X634577D02*
X683260D01*
X706120Y505460D02*
Y530860D01*
X502920Y505460D02*
X706120D01*
X502920D02*
Y530860D01*
X706120D01*
Y378460D02*
Y403860D01*
X502920Y378460D02*
X706120D01*
X502920D02*
Y403860D01*
X706120D01*
X891540Y97790D02*
Y123190D01*
X688340Y97790D02*
X891540D01*
X688340D02*
Y123190D01*
X891540D01*
X396240Y580390D02*
Y605790D01*
X193040Y580390D02*
X396240D01*
X193040D02*
Y605790D01*
X396240D01*
X826770Y351790D02*
X877570D01*
X826770Y148590D02*
X877570D01*
Y351790D01*
X826770Y148590D02*
Y351790D01*
X877570Y391160D02*
Y543560D01*
X826770D02*
X877570D01*
X826770Y391160D02*
Y543560D01*
Y391160D02*
X877570D01*
X434340Y97790D02*
Y123190D01*
X281940Y97790D02*
Y123190D01*
X434340D01*
X281940Y97790D02*
X434340D01*
X612140Y580390D02*
Y605790D01*
X408940Y580390D02*
X612140D01*
X408940D02*
Y605790D01*
X612140D01*
X840740Y580390D02*
Y605790D01*
X637540Y580390D02*
X840740D01*
X637540D02*
Y605790D01*
X840740D01*
X662940Y97790D02*
Y123190D01*
X459740Y97790D02*
X662940D01*
X459740D02*
Y123190D01*
X662940D01*
X457200Y58420D02*
Y83820D01*
X254000Y58420D02*
X457200D01*
X254000D02*
Y83820D01*
X457200D01*
X494030Y59690D02*
Y85090D01*
X595630D01*
X494030Y59690D02*
X595630D01*
Y85090D01*
X894080Y648970D02*
Y674370D01*
X995680D01*
X894080Y648970D02*
X995680D01*
Y674370D01*
X698500Y86360D02*
X933450D01*
X679450D02*
X698500D01*
X679450Y60960D02*
Y86360D01*
Y60960D02*
X933450D01*
Y86360D01*
X972820Y123190D02*
X998220D01*
Y21590D02*
Y123190D01*
X972820Y21590D02*
Y123190D01*
Y21590D02*
X998220D01*
X891540Y605790D02*
X942340D01*
X891540Y148590D02*
X942340D01*
X891540D02*
Y605790D01*
X942340Y148590D02*
Y605790D01*
X1009650Y168910D02*
Y607060D01*
X1035050D01*
Y149860D02*
Y607060D01*
X1009650Y149860D02*
X1035050D01*
X1009650D02*
Y168910D01*
X189230Y138430D02*
Y189230D01*
Y138430D02*
X214630D01*
Y189230D01*
X189230D02*
X214630D01*
X509560Y416850D02*
Y439100D01*
Y462600D02*
Y484850D01*
X567560D02*
X577560Y474850D01*
X567560Y416850D02*
X577560Y426850D01*
X509560Y416850D02*
X567560D01*
X577560Y426850D02*
Y438850D01*
Y462850D02*
Y474850D01*
X509560Y484850D02*
X567560D01*
X512100Y222540D02*
Y244790D01*
Y268290D02*
Y290540D01*
X570100D02*
X580100Y280540D01*
X570100Y222540D02*
X580100Y232540D01*
X512100Y222540D02*
X570100D01*
X580100Y232540D02*
Y244540D01*
Y268540D02*
Y280540D01*
X512100Y290540D02*
X570100D01*
X278420Y419390D02*
Y441640D01*
Y465140D02*
Y487390D01*
X336420D02*
X346420Y477390D01*
X336420Y419390D02*
X346420Y429390D01*
X278420Y419390D02*
X336420D01*
X346420Y429390D02*
Y441390D01*
Y465390D02*
Y477390D01*
X278420Y487390D02*
X336420D01*
X268260Y228890D02*
Y251140D01*
Y274640D02*
Y296890D01*
X326260D02*
X336260Y286890D01*
X326260Y228890D02*
X336260Y238890D01*
X268260Y228890D02*
X326260D01*
X336260Y238890D02*
Y250890D01*
Y274890D02*
Y286890D01*
X268260Y296890D02*
X326260D01*
X160570Y18310D02*
X202610D01*
X160570Y78210D02*
X202610D01*
X211560Y37260D02*
Y59550D01*
X151660Y36970D02*
Y59550D01*
D11*
X497810Y450850D02*
G03*
X497810Y450850I-1250J0D01*
G01*
X500350Y256540D02*
G03*
X500350Y256540I-1250J0D01*
G01*
X266670Y453390D02*
G03*
X266670Y453390I-1250J0D01*
G01*
X256510Y262890D02*
G03*
X256510Y262890I-1250J0D01*
G01*
X137360Y70760D02*
G03*
X137360Y70760I-1250J0D01*
G01*
D12*
X29210Y524510D02*
X207010D01*
Y219710D02*
Y524510D01*
X29210Y219710D02*
X207010D01*
X29210D02*
Y524510D01*
D13*
X895472Y610870D02*
X893973Y612369D01*
Y615368D01*
X895472Y616868D01*
X896972D01*
X898472Y615368D01*
Y613869D01*
Y615368D01*
X899971Y616868D01*
X901470D01*
X902970Y615368D01*
Y612369D01*
X901470Y610870D01*
X893973Y625865D02*
X895472Y622866D01*
X898472Y619867D01*
X901470D01*
X902970Y621367D01*
Y624366D01*
X901470Y625865D01*
X899971D01*
X898472Y624366D01*
Y619867D01*
X951307Y635061D02*
Y644058D01*
X955805D01*
X957305Y642559D01*
Y639560D01*
X955805Y638060D01*
X951307D01*
X960304Y635061D02*
X963303D01*
X961803D01*
Y644058D01*
X960304Y642559D01*
X967801Y636561D02*
X969301Y635061D01*
X972300D01*
X973799Y636561D01*
Y642559D01*
X972300Y644058D01*
X969301D01*
X967801Y642559D01*
Y641059D01*
X969301Y639560D01*
X973799D01*
X976798Y633562D02*
X982796D01*
X991793Y635061D02*
X985795D01*
X991793Y641059D01*
Y642559D01*
X990294Y644058D01*
X987295D01*
X985795Y642559D01*
X732851Y256892D02*
X731352Y255392D01*
Y252393D01*
X732851Y250894D01*
X734351D01*
X735850Y252393D01*
Y255392D01*
X737350Y256892D01*
X738849D01*
X740349Y255392D01*
Y252393D01*
X738849Y250894D01*
X741848Y259891D02*
Y265889D01*
X731352Y268888D02*
X732851D01*
X735850Y271887D01*
X732851Y274886D01*
X731352D01*
X735850Y271887D02*
X740349D01*
X1053308Y19050D02*
X1043311D01*
X1046643Y22382D01*
X1043311Y25714D01*
X1053308D01*
X1046643Y29047D02*
X1051642D01*
X1053308Y30713D01*
Y35711D01*
X1046643D01*
X1053308Y39044D02*
Y42376D01*
Y40710D01*
X1043311D01*
Y39044D01*
X1046643Y47374D02*
X1051642D01*
X1053308Y49040D01*
Y54039D01*
X1046643D01*
X1056640Y60703D02*
Y62369D01*
X1054974Y64036D01*
X1046643D01*
Y59037D01*
X1048309Y57371D01*
X1051642D01*
X1053308Y59037D01*
Y64036D01*
Y72366D02*
Y69034D01*
X1051642Y67368D01*
X1048309D01*
X1046643Y69034D01*
Y72366D01*
X1048309Y74032D01*
X1049976D01*
Y67368D01*
X1044977Y79031D02*
X1046643D01*
Y77365D01*
Y80697D01*
Y79031D01*
X1051642D01*
X1053308Y80697D01*
X1046643Y87361D02*
Y90694D01*
X1048309Y92360D01*
X1053308D01*
Y87361D01*
X1051642Y85695D01*
X1049976Y87361D01*
Y92360D01*
X1043311Y105689D02*
Y112353D01*
Y109021D01*
X1053308D01*
Y115686D02*
X1051642D01*
Y117352D01*
X1053308D01*
Y115686D01*
X1043311Y134013D02*
Y140677D01*
Y137345D01*
X1053308D01*
X1046643Y145676D02*
Y149008D01*
X1048309Y150674D01*
X1053308D01*
Y145676D01*
X1051642Y144010D01*
X1049976Y145676D01*
Y150674D01*
X1043311Y160671D02*
X1053308D01*
Y155673D01*
X1051642Y154007D01*
X1048309D01*
X1046643Y155673D01*
Y160671D01*
X1053308Y169002D02*
Y165669D01*
X1051642Y164003D01*
X1048309D01*
X1046643Y165669D01*
Y169002D01*
X1048309Y170668D01*
X1049976D01*
Y164003D01*
X1053308Y174000D02*
Y178999D01*
X1051642Y180665D01*
X1049976Y178999D01*
Y175666D01*
X1048309Y174000D01*
X1046643Y175666D01*
Y180665D01*
X1053308Y183997D02*
Y188995D01*
X1051642Y190661D01*
X1049976Y188995D01*
Y185663D01*
X1048309Y183997D01*
X1046643Y185663D01*
Y190661D01*
X1053308Y198992D02*
Y195660D01*
X1051642Y193994D01*
X1048309D01*
X1046643Y195660D01*
Y198992D01*
X1048309Y200658D01*
X1049976D01*
Y193994D01*
Y218986D02*
X1048309D01*
Y217320D01*
X1049976D01*
Y218986D01*
X1048309Y220652D01*
X1044977D01*
X1043311Y218986D01*
Y215653D01*
X1044977Y213987D01*
X1051642D01*
X1053308Y215653D01*
Y220652D01*
Y230648D02*
Y223984D01*
X1046643Y230648D01*
X1044977D01*
X1043311Y228982D01*
Y225650D01*
X1044977Y223984D01*
Y233981D02*
X1043311Y235647D01*
Y238979D01*
X1044977Y240645D01*
X1051642D01*
X1053308Y238979D01*
Y235647D01*
X1051642Y233981D01*
X1044977D01*
X1053308Y250642D02*
Y243978D01*
X1046643Y250642D01*
X1044977D01*
X1043311Y248976D01*
Y245644D01*
X1044977Y243978D01*
X1043311Y260639D02*
Y253974D01*
X1048309D01*
X1046643Y257307D01*
Y258973D01*
X1048309Y260639D01*
X1051642D01*
X1053308Y258973D01*
Y255641D01*
X1051642Y253974D01*
X30480Y557989D02*
X34978D01*
X36478Y559488D01*
X34978Y560988D01*
X31979D01*
X30480Y562488D01*
X31979Y563987D01*
X36478D01*
X40977Y565487D02*
Y563987D01*
X39477D01*
X42476D01*
X40977D01*
Y559488D01*
X42476Y557989D01*
X51473D02*
X48474D01*
X46975Y559488D01*
Y562488D01*
X48474Y563987D01*
X51473D01*
X52973Y562488D01*
Y560988D01*
X46975D01*
X55972Y554990D02*
Y563987D01*
X60470D01*
X61970Y562488D01*
Y559488D01*
X60470Y557989D01*
X55972D01*
X64969Y554990D02*
Y563987D01*
X69467D01*
X70967Y562488D01*
Y559488D01*
X69467Y557989D01*
X64969D01*
X78464D02*
X75465D01*
X73966Y559488D01*
Y562488D01*
X75465Y563987D01*
X78464D01*
X79964Y562488D01*
Y560988D01*
X73966D01*
X82963Y563987D02*
Y557989D01*
Y560988D01*
X84462Y562488D01*
X85962Y563987D01*
X87462D01*
X100957Y557989D02*
Y563987D01*
X102457D01*
X103956Y562488D01*
Y557989D01*
Y562488D01*
X105456Y563987D01*
X106955Y562488D01*
Y557989D01*
X111454D02*
X114453D01*
X115952Y559488D01*
Y562488D01*
X114453Y563987D01*
X111454D01*
X109954Y562488D01*
Y559488D01*
X111454Y557989D01*
X120451Y565487D02*
Y563987D01*
X118951D01*
X121950D01*
X120451D01*
Y559488D01*
X121950Y557989D01*
X127948D02*
X130948D01*
X132447Y559488D01*
Y562488D01*
X130948Y563987D01*
X127948D01*
X126449Y562488D01*
Y559488D01*
X127948Y557989D01*
X135446Y563987D02*
Y557989D01*
Y560988D01*
X136945Y562488D01*
X138445Y563987D01*
X139945D01*
X159438Y566986D02*
Y557989D01*
X154940D01*
X153440Y559488D01*
Y562488D01*
X154940Y563987D01*
X159438D01*
X162437D02*
Y557989D01*
Y560988D01*
X163937Y562488D01*
X165436Y563987D01*
X166936D01*
X171434Y557989D02*
X174433D01*
X172934D01*
Y563987D01*
X171434D01*
X178932D02*
X181931Y557989D01*
X184930Y563987D01*
X192428Y557989D02*
X189429D01*
X187929Y559488D01*
Y562488D01*
X189429Y563987D01*
X192428D01*
X193927Y562488D01*
Y560988D01*
X187929D01*
X196926Y563987D02*
Y557989D01*
Y560988D01*
X198426Y562488D01*
X199925Y563987D01*
X201425D01*
X216420D02*
X219419D01*
X220918Y562488D01*
Y557989D01*
X216420D01*
X214920Y559488D01*
X216420Y560988D01*
X220918D01*
X223917Y563987D02*
Y557989D01*
Y560988D01*
X225417Y562488D01*
X226916Y563987D01*
X228416D01*
X238913Y566986D02*
Y557989D01*
X234414D01*
X232914Y559488D01*
Y562488D01*
X234414Y563987D01*
X238913D01*
X241912D02*
Y559488D01*
X243411Y557989D01*
X247910D01*
Y563987D01*
X250909Y557989D02*
X253908D01*
X252408D01*
Y563987D01*
X250909D01*
X258406Y557989D02*
Y563987D01*
X262905D01*
X264404Y562488D01*
Y557989D01*
X268903D02*
X271902D01*
X273401Y559488D01*
Y562488D01*
X271902Y563987D01*
X268903D01*
X267403Y562488D01*
Y559488D01*
X268903Y557989D01*
X285397D02*
X289896D01*
X291395Y559488D01*
X289896Y560988D01*
X286897D01*
X285397Y562488D01*
X286897Y563987D01*
X291395D01*
X294394Y566986D02*
Y557989D01*
Y562488D01*
X295894Y563987D01*
X298893D01*
X300393Y562488D01*
Y557989D01*
X303392D02*
X306391D01*
X304891D01*
Y563987D01*
X303392D01*
X315388Y557989D02*
X312389D01*
X310889Y559488D01*
Y562488D01*
X312389Y563987D01*
X315388D01*
X316887Y562488D01*
Y560988D01*
X310889D01*
X319886Y557989D02*
X322885D01*
X321386D01*
Y566986D01*
X319886D01*
X333382D02*
Y557989D01*
X328883D01*
X327384Y559488D01*
Y562488D01*
X328883Y563987D01*
X333382D01*
X810153Y527050D02*
Y533048D01*
X811652D01*
X817651Y527050D01*
X819150D01*
Y533048D01*
X814651Y536047D02*
Y542045D01*
X811652Y539046D02*
X817651D01*
X810153Y500380D02*
Y506378D01*
X811652D01*
X817651Y500380D01*
X819150D01*
Y506378D01*
X814651Y509377D02*
Y515375D01*
X808883Y472440D02*
X810382D01*
X813382Y475439D01*
X810382Y478438D01*
X808883D01*
X813382Y475439D02*
X817880D01*
X813382Y481437D02*
Y487435D01*
X810382Y484436D02*
X816380D01*
X808883Y447040D02*
X810382D01*
X813382Y450039D01*
X810382Y453038D01*
X808883D01*
X813382Y450039D02*
X817880D01*
X813382Y456037D02*
Y462035D01*
X808883Y424180D02*
X817880Y430178D01*
X808883D02*
X817880Y424180D01*
X813382Y433177D02*
Y439175D01*
X810382Y436176D02*
X816380D01*
X808883Y393700D02*
X817880Y399698D01*
X808883D02*
X817880Y393700D01*
X813382Y402697D02*
Y408695D01*
X383620Y174271D02*
Y165274D01*
X388119D01*
X389618Y166773D01*
Y172772D01*
X388119Y174271D01*
X383620D01*
X398615Y165274D02*
X392617D01*
X398615Y171272D01*
Y172772D01*
X397116Y174271D01*
X394117D01*
X392617Y172772D01*
X163910Y136171D02*
Y127174D01*
X168409D01*
X169908Y128673D01*
Y134672D01*
X168409Y136171D01*
X163910D01*
X172907Y127174D02*
X175906D01*
X174407D01*
Y136171D01*
X172907Y134672D01*
X50880Y160497D02*
Y169494D01*
X55379D01*
X56878Y167994D01*
Y164995D01*
X55379Y163496D01*
X50880D01*
X61377D02*
X64376D01*
X65875Y164995D01*
Y167994D01*
X64376Y169494D01*
X61377D01*
X59877Y167994D01*
Y164995D01*
X61377Y163496D01*
X68874Y169494D02*
Y164995D01*
X70374Y163496D01*
X71873Y164995D01*
X73373Y163496D01*
X74872Y164995D01*
Y169494D01*
X82370Y163496D02*
X79371D01*
X77871Y164995D01*
Y167994D01*
X79371Y169494D01*
X82370D01*
X83869Y167994D01*
Y166495D01*
X77871D01*
X86868Y169494D02*
Y163496D01*
Y166495D01*
X88368Y167994D01*
X89867Y169494D01*
X91367D01*
X151112Y197385D02*
X145114D01*
Y192887D01*
X148113D01*
X145114D01*
Y188388D01*
X154111D02*
X157110D01*
X155611D01*
Y197385D01*
X154111Y195886D01*
X721437Y10221D02*
Y19218D01*
X725935D01*
X727435Y17719D01*
Y14720D01*
X725935Y13220D01*
X721437D01*
X736432Y10221D02*
X730434D01*
X736432Y16219D01*
Y17719D01*
X734932Y19218D01*
X731933D01*
X730434Y17719D01*
X739431Y10221D02*
X742430D01*
X740930D01*
Y19218D01*
X739431Y17719D01*
X746928Y8722D02*
X752926D01*
X761923Y10221D02*
X755925D01*
X761923Y16219D01*
Y17719D01*
X760424Y19218D01*
X757425D01*
X755925Y17719D01*
X195914Y665400D02*
Y674397D01*
X200413D01*
X201912Y672898D01*
Y669899D01*
X200413Y668399D01*
X195914D01*
X210909Y665400D02*
X204911D01*
X210909Y671398D01*
Y672898D01*
X209410Y674397D01*
X206411D01*
X204911Y672898D01*
X213908D02*
X215408Y674397D01*
X218407D01*
X219906Y672898D01*
Y666899D01*
X218407Y665400D01*
X215408D01*
X213908Y666899D01*
Y672898D01*
X222905Y663901D02*
X228903D01*
X237900Y665400D02*
X231902D01*
X237900Y671398D01*
Y672898D01*
X236401Y674397D01*
X233402D01*
X231902Y672898D01*
X305626Y8951D02*
Y17948D01*
X310125D01*
X311624Y16449D01*
Y13450D01*
X310125Y11950D01*
X305626D01*
X314623Y8951D02*
X317622D01*
X316123D01*
Y17948D01*
X314623Y16449D01*
X322121Y8951D02*
X325120D01*
X323620D01*
Y17948D01*
X322121Y16449D01*
X329618Y7452D02*
X335617D01*
X344614Y8951D02*
X338616D01*
X344614Y14949D01*
Y16449D01*
X343114Y17948D01*
X340115D01*
X338616Y16449D01*
X409274Y666670D02*
Y675667D01*
X413773D01*
X415272Y674168D01*
Y671169D01*
X413773Y669669D01*
X409274D01*
X418271Y666670D02*
X421270D01*
X419771D01*
Y675667D01*
X418271Y674168D01*
X425769D02*
X427268Y675667D01*
X430267D01*
X431767Y674168D01*
Y668169D01*
X430267Y666670D01*
X427268D01*
X425769Y668169D01*
Y674168D01*
X434766Y665171D02*
X440764D01*
X449761Y666670D02*
X443763D01*
X449761Y672668D01*
Y674168D01*
X448261Y675667D01*
X445262D01*
X443763Y674168D01*
X636604Y666670D02*
Y675667D01*
X641103D01*
X642602Y674168D01*
Y671169D01*
X641103Y669669D01*
X636604D01*
X645601Y668169D02*
X647101Y666670D01*
X650100D01*
X651599Y668169D01*
Y674168D01*
X650100Y675667D01*
X647101D01*
X645601Y674168D01*
Y672668D01*
X647101Y671169D01*
X651599D01*
X654598Y665171D02*
X660596D01*
X669593Y666670D02*
X663595D01*
X669593Y672668D01*
Y674168D01*
X668094Y675667D01*
X665095D01*
X663595Y674168D01*
X477535Y12761D02*
Y21758D01*
X482034D01*
X483533Y20259D01*
Y17260D01*
X482034Y15760D01*
X477535D01*
X486532Y20259D02*
X488032Y21758D01*
X491031D01*
X492531Y20259D01*
Y18759D01*
X491031Y17260D01*
X492531Y15760D01*
Y14261D01*
X491031Y12761D01*
X488032D01*
X486532Y14261D01*
Y15760D01*
X488032Y17260D01*
X486532Y18759D01*
Y20259D01*
X488032Y17260D02*
X491031D01*
X495530Y11262D02*
X501528D01*
X510525Y12761D02*
X504527D01*
X510525Y18759D01*
Y20259D01*
X509025Y21758D01*
X506026D01*
X504527Y20259D01*
X596218Y303303D02*
X602216D01*
Y301804D01*
X596218Y295805D01*
Y294306D01*
X602216D01*
X605215Y301804D02*
X606715Y303303D01*
X609714D01*
X611213Y301804D01*
Y300304D01*
X609714Y298804D01*
X608214D01*
X609714D01*
X611213Y297305D01*
Y295805D01*
X609714Y294306D01*
X606715D01*
X605215Y295805D01*
X614212Y301804D02*
X615712Y303303D01*
X618711D01*
X620210Y301804D01*
Y300304D01*
X618711Y298804D01*
X617211D01*
X618711D01*
X620210Y297305D01*
Y295805D01*
X618711Y294306D01*
X615712D01*
X614212Y295805D01*
X482722Y328349D02*
X488721D01*
Y326849D01*
X482722Y320851D01*
Y319352D01*
X488721D01*
X497718D02*
X491720D01*
X497718Y325350D01*
Y326849D01*
X496218Y328349D01*
X493219D01*
X491720Y326849D01*
X486762Y200079D02*
X492760D01*
Y198579D01*
X486762Y192581D01*
Y191082D01*
X492760D01*
X495759D02*
X498758D01*
X497258D01*
Y200079D01*
X495759Y198579D01*
X367618Y492533D02*
Y491034D01*
X370617Y488035D01*
X373616Y491034D01*
Y492533D01*
X370617Y488035D02*
Y483536D01*
X382613D02*
X376615D01*
X382613Y489534D01*
Y491034D01*
X381114Y492533D01*
X378115D01*
X376615Y491034D01*
X391610Y483536D02*
X385612D01*
X391610Y489534D01*
Y491034D01*
X390111Y492533D01*
X387112D01*
X385612Y491034D01*
X242692Y523928D02*
Y522429D01*
X245692Y519430D01*
X248690Y522429D01*
Y523928D01*
X245692Y519430D02*
Y514931D01*
X257688D02*
X251689D01*
X257688Y520929D01*
Y522429D01*
X256188Y523928D01*
X253189D01*
X251689Y522429D01*
X245462Y398199D02*
Y396699D01*
X248461Y393700D01*
X251460Y396699D01*
Y398199D01*
X248461Y393700D02*
Y389202D01*
X254459D02*
X257458D01*
X255958D01*
Y398199D01*
X254459Y396699D01*
X358728Y300763D02*
X364726Y291766D01*
Y300763D02*
X358728Y291766D01*
X367725D02*
X370724D01*
X369225D01*
Y300763D01*
X367725Y299264D01*
X375223Y291766D02*
X378222D01*
X376722D01*
Y300763D01*
X375223Y299264D01*
X246502Y329618D02*
X252500Y320621D01*
Y329618D02*
X246502Y320621D01*
X261498D02*
X255499D01*
X261498Y326619D01*
Y328119D01*
X259998Y329618D01*
X256999D01*
X255499Y328119D01*
X248002Y202619D02*
X254000Y193622D01*
Y202619D02*
X248002Y193622D01*
X256999D02*
X259998D01*
X258498D01*
Y202619D01*
X256999Y201119D01*
X730311Y381352D02*
X728812Y379852D01*
Y376853D01*
X730311Y375354D01*
X731811D01*
X733310Y376853D01*
Y379852D01*
X734810Y381352D01*
X736309D01*
X737809Y379852D01*
Y376853D01*
X736309Y375354D01*
X739308Y384351D02*
Y390349D01*
X728812Y393348D02*
Y399346D01*
X730311D01*
X736309Y393348D01*
X737809D01*
Y399346D01*
X731581Y157832D02*
X730082Y156332D01*
Y153333D01*
X731581Y151834D01*
X733081D01*
X734580Y153333D01*
Y156332D01*
X736080Y157832D01*
X737579D01*
X739079Y156332D01*
Y153333D01*
X737579Y151834D01*
X740578Y160831D02*
Y166829D01*
X730082Y169828D02*
X739079Y175826D01*
X730082D02*
X739079Y169828D01*
X732851Y502002D02*
X731352Y500502D01*
Y497503D01*
X732851Y496004D01*
X734351D01*
X735850Y497503D01*
Y500502D01*
X737350Y502002D01*
X738849D01*
X740349Y500502D01*
Y497503D01*
X738849Y496004D01*
X741848Y505001D02*
Y510999D01*
X731352Y519996D02*
Y513998D01*
X740349D01*
Y519996D01*
X735850Y513998D02*
Y516997D01*
X600946Y493803D02*
X594948D01*
Y484806D01*
X600946D01*
X594948Y489305D02*
X597947D01*
X608444Y484806D02*
Y493803D01*
X603945Y489305D01*
X609943D01*
X617441Y484806D02*
Y493803D01*
X612942Y489305D01*
X618940D01*
X486180Y522659D02*
X480182D01*
Y513661D01*
X486180D01*
X480182Y518160D02*
X483181D01*
X495178Y513661D02*
X489179D01*
X495178Y519660D01*
Y521159D01*
X493678Y522659D01*
X490679D01*
X489179Y521159D01*
X491490Y396928D02*
X485492D01*
Y387932D01*
X491490D01*
X485492Y392430D02*
X488491D01*
X494489Y387932D02*
X497488D01*
X495989D01*
Y396928D01*
X494489Y395429D01*
X23702Y543841D02*
X29700D01*
X26701D01*
Y534844D01*
X38697Y542342D02*
X37198Y543841D01*
X34199D01*
X32699Y542342D01*
Y536343D01*
X34199Y534844D01*
X37198D01*
X38697Y536343D01*
X41696Y534844D02*
Y540842D01*
X44695Y543841D01*
X47694Y540842D01*
Y534844D01*
Y539342D01*
X41696D01*
X50693Y536343D02*
X52193Y534844D01*
X55192D01*
X56691Y536343D01*
Y542342D01*
X55192Y543841D01*
X52193D01*
X50693Y542342D01*
Y540842D01*
X52193Y539342D01*
X56691D01*
X65688Y543841D02*
X59690D01*
Y539342D01*
X62689Y540842D01*
X64189D01*
X65688Y539342D01*
Y536343D01*
X64189Y534844D01*
X61190D01*
X59690Y536343D01*
X73186Y534844D02*
Y543841D01*
X68687Y539342D01*
X74686D01*
X77684Y542342D02*
X79184Y543841D01*
X82183D01*
X83683Y542342D01*
Y540842D01*
X82183Y539342D01*
X83683Y537843D01*
Y536343D01*
X82183Y534844D01*
X79184D01*
X77684Y536343D01*
Y537843D01*
X79184Y539342D01*
X77684Y540842D01*
Y542342D01*
X79184Y539342D02*
X82183D01*
X86682Y534844D02*
Y540842D01*
X89681Y543841D01*
X92680Y540842D01*
Y534844D01*
Y539342D01*
X86682D01*
X689944Y131746D02*
Y140743D01*
X694443D01*
X695942Y139244D01*
Y136244D01*
X694443Y134745D01*
X689944D01*
X704939Y131746D02*
X698941D01*
X704939Y137744D01*
Y139244D01*
X703440Y140743D01*
X700441D01*
X698941Y139244D01*
X707938Y131746D02*
X710937D01*
X709438D01*
Y140743D01*
X707938Y139244D01*
X194644Y614346D02*
Y623343D01*
X199143D01*
X200642Y621844D01*
Y618844D01*
X199143Y617345D01*
X194644D01*
X209639Y614346D02*
X203641D01*
X209639Y620344D01*
Y621844D01*
X208140Y623343D01*
X205141D01*
X203641Y621844D01*
X212638D02*
X214138Y623343D01*
X217137D01*
X218636Y621844D01*
Y615845D01*
X217137Y614346D01*
X214138D01*
X212638Y615845D01*
Y621844D01*
X817819Y285720D02*
X811821D01*
Y287219D01*
X813320Y288718D01*
X817819D01*
X813320D01*
X811821Y290218D01*
X813320Y291717D01*
X817819D01*
X811821Y294717D02*
X816319D01*
X817819Y296216D01*
Y300715D01*
X811821D01*
Y303714D02*
X817819Y309712D01*
X814820Y306713D01*
X811821Y309712D01*
X817819Y303714D01*
X819318Y312711D02*
Y318709D01*
X817819Y321708D02*
Y324707D01*
Y323207D01*
X811821D01*
Y321708D01*
X817819Y329205D02*
Y333704D01*
X816319Y335203D01*
X814820Y333704D01*
Y330705D01*
X813320Y329205D01*
X811821Y330705D01*
Y335203D01*
Y344201D02*
Y339702D01*
X813320Y338203D01*
X816319D01*
X817819Y339702D01*
Y344201D01*
X800788Y452304D02*
X791792D01*
Y456802D01*
X793291Y458302D01*
X796290D01*
X797790Y456802D01*
Y452304D01*
X800788Y461301D02*
Y464300D01*
Y462800D01*
X791792D01*
X793291Y461301D01*
X791792Y474796D02*
X793291Y471797D01*
X796290Y468798D01*
X799289D01*
X800788Y470298D01*
Y473297D01*
X799289Y474796D01*
X797790D01*
X796290Y473297D01*
Y468798D01*
X283544Y131746D02*
Y140743D01*
X288043D01*
X289542Y139244D01*
Y136244D01*
X288043Y134745D01*
X283544D01*
X292541Y131746D02*
X295540D01*
X294041D01*
Y140743D01*
X292541Y139244D01*
X300039Y131746D02*
X303038D01*
X301538D01*
Y140743D01*
X300039Y139244D01*
X410544Y614346D02*
Y623343D01*
X415043D01*
X416542Y621844D01*
Y618844D01*
X415043Y617345D01*
X410544D01*
X419541Y614346D02*
X422540D01*
X421041D01*
Y623343D01*
X419541Y621844D01*
X427039D02*
X428538Y623343D01*
X431537D01*
X433037Y621844D01*
Y615845D01*
X431537Y614346D01*
X428538D01*
X427039Y615845D01*
Y621844D01*
X639144Y614346D02*
Y623343D01*
X643643D01*
X645142Y621844D01*
Y618844D01*
X643643Y617345D01*
X639144D01*
X648141Y615845D02*
X649641Y614346D01*
X652640D01*
X654139Y615845D01*
Y621844D01*
X652640Y623343D01*
X649641D01*
X648141Y621844D01*
Y620344D01*
X649641Y618844D01*
X654139D01*
X461344Y131746D02*
Y140743D01*
X465843D01*
X467342Y139244D01*
Y136244D01*
X465843Y134745D01*
X461344D01*
X470341Y139244D02*
X471841Y140743D01*
X474840D01*
X476339Y139244D01*
Y137744D01*
X474840Y136244D01*
X476339Y134745D01*
Y133245D01*
X474840Y131746D01*
X471841D01*
X470341Y133245D01*
Y134745D01*
X471841Y136244D01*
X470341Y137744D01*
Y139244D01*
X471841Y136244D02*
X474840D01*
X244529Y63622D02*
X235532D01*
Y68121D01*
X237031Y69620D01*
X240030D01*
X241530Y68121D01*
Y63622D01*
X235532Y72620D02*
Y78618D01*
X237031D01*
X243029Y72620D01*
X244529D01*
X484558Y66162D02*
X475561D01*
Y70661D01*
X477061Y72161D01*
X480060D01*
X481559Y70661D01*
Y66162D01*
X475561Y81158D02*
X477061Y78158D01*
X480060Y75160D01*
X483059D01*
X484558Y76659D01*
Y79658D01*
X483059Y81158D01*
X481559D01*
X480060Y79658D01*
Y75160D01*
X879529Y655442D02*
X870531D01*
Y659941D01*
X872031Y661441D01*
X875030D01*
X876529Y659941D01*
Y655442D01*
X879529Y668938D02*
X870531D01*
X875030Y664439D01*
Y670438D01*
X668708Y66162D02*
X659712D01*
Y70661D01*
X661211Y72161D01*
X664210D01*
X665710Y70661D01*
Y66162D01*
X661211Y75160D02*
X659712Y76659D01*
Y79658D01*
X661211Y81158D01*
X662710D01*
X664210Y79658D01*
Y78158D01*
Y79658D01*
X665710Y81158D01*
X667209D01*
X668708Y79658D01*
Y76659D01*
X667209Y75160D01*
X488368Y348102D02*
X479371D01*
Y352601D01*
X480871Y354100D01*
X483870D01*
X485369Y352601D01*
Y348102D01*
Y351101D02*
X488368Y354100D01*
X479371Y363098D02*
X480871Y360098D01*
X483870Y357099D01*
X486869D01*
X488368Y358599D01*
Y361598D01*
X486869Y363098D01*
X485369D01*
X483870Y361598D01*
Y357099D01*
X494719Y144902D02*
X485722D01*
Y149401D01*
X487221Y150900D01*
X490220D01*
X491720Y149401D01*
Y144902D01*
Y147901D02*
X494719Y150900D01*
X485722Y159898D02*
Y153899D01*
X490220D01*
X488721Y156898D01*
Y158398D01*
X490220Y159898D01*
X493219D01*
X494719Y158398D01*
Y155399D01*
X493219Y153899D01*
X949042Y112341D02*
Y121339D01*
X953540D01*
X955040Y119839D01*
Y116840D01*
X953540Y115340D01*
X949042D01*
X952041D02*
X955040Y112341D01*
X958039D02*
X961038D01*
X959538D01*
Y121339D01*
X958039Y119839D01*
X934138Y33142D02*
X925142D01*
Y37641D01*
X926641Y39141D01*
X929640D01*
X931140Y37641D01*
Y33142D01*
Y36142D02*
X934138Y39141D01*
Y48138D02*
Y42140D01*
X928140Y48138D01*
X926641D01*
X925142Y46638D01*
Y43639D01*
X926641Y42140D01*
X250879Y350642D02*
X241882D01*
Y355141D01*
X243381Y356641D01*
X246380D01*
X247880Y355141D01*
Y350642D01*
Y353642D02*
X250879Y356641D01*
Y364138D02*
X241882D01*
X246380Y359640D01*
Y365638D01*
X258498Y155062D02*
X249501D01*
Y159561D01*
X251001Y161061D01*
X254000D01*
X255499Y159561D01*
Y155062D01*
Y158062D02*
X258498Y161061D01*
X251001Y164060D02*
X249501Y165559D01*
Y168558D01*
X251001Y170058D01*
X252500D01*
X254000Y168558D01*
Y167059D01*
Y168558D01*
X255499Y170058D01*
X256999D01*
X258498Y168558D01*
Y165559D01*
X256999Y164060D01*
X996828Y15928D02*
Y6931D01*
X992329D01*
X990829Y8431D01*
Y11430D01*
X992329Y12930D01*
X996828D01*
X981832Y6931D02*
X987831D01*
Y11430D01*
X984831Y9930D01*
X983332D01*
X981832Y11430D01*
Y14429D01*
X983332Y15928D01*
X986331D01*
X987831Y14429D01*
X892994Y631772D02*
Y640769D01*
X897492D01*
X898992Y639269D01*
Y636270D01*
X897492Y634771D01*
X892994D01*
X901991Y631772D02*
X904990D01*
X903490D01*
Y640769D01*
X901991Y639269D01*
X909488Y633271D02*
X910988Y631772D01*
X913987D01*
X915486Y633271D01*
Y639269D01*
X913987Y640769D01*
X910988D01*
X909488Y639269D01*
Y637770D01*
X910988Y636270D01*
X915486D01*
X1011254Y615616D02*
Y624613D01*
X1015753D01*
X1017252Y623114D01*
Y620115D01*
X1015753Y618615D01*
X1011254D01*
X1020251Y615616D02*
X1023250D01*
X1021751D01*
Y624613D01*
X1020251Y623114D01*
X1027749D02*
X1029248Y624613D01*
X1032247D01*
X1033747Y623114D01*
Y621614D01*
X1032247Y620115D01*
X1033747Y618615D01*
Y617116D01*
X1032247Y615616D01*
X1029248D01*
X1027749Y617116D01*
Y618615D01*
X1029248Y620115D01*
X1027749Y621614D01*
Y623114D01*
X1029248Y620115D02*
X1032247D01*
X190834Y197786D02*
Y206783D01*
X195333D01*
X196832Y205284D01*
Y202285D01*
X195333Y200785D01*
X190834D01*
X205829Y197786D02*
X199831D01*
X205829Y203784D01*
Y205284D01*
X204330Y206783D01*
X201331D01*
X199831Y205284D01*
X479601Y446810D02*
X478102Y445311D01*
Y442312D01*
X479601Y440812D01*
X485599D01*
X487099Y442312D01*
Y445311D01*
X485599Y446810D01*
X487099Y454308D02*
X478102D01*
X482600Y449809D01*
Y455808D01*
X480871Y252500D02*
X479371Y251001D01*
Y248002D01*
X480871Y246502D01*
X486869D01*
X488368Y248002D01*
Y251001D01*
X486869Y252500D01*
X480871Y255499D02*
X479371Y256999D01*
Y259998D01*
X480871Y261498D01*
X482370D01*
X483870Y259998D01*
Y258498D01*
Y259998D01*
X485369Y261498D01*
X486869D01*
X488368Y259998D01*
Y256999D01*
X486869Y255499D01*
X245921Y453161D02*
X244422Y451661D01*
Y448662D01*
X245921Y447162D01*
X251919D01*
X253419Y448662D01*
Y451661D01*
X251919Y453161D01*
X253419Y462158D02*
Y456160D01*
X247421Y462158D01*
X245921D01*
X244422Y460658D01*
Y457659D01*
X245921Y456160D01*
X237031Y264160D02*
X235532Y262661D01*
Y259662D01*
X237031Y258162D01*
X243029D01*
X244529Y259662D01*
Y262661D01*
X243029Y264160D01*
X244529Y267159D02*
Y270158D01*
Y268659D01*
X235532D01*
X237031Y267159D01*
X142222Y94540D02*
X140723Y96039D01*
X137724D01*
X136224Y94540D01*
Y93040D01*
X137724Y91540D01*
X140723D01*
X142222Y90041D01*
Y88541D01*
X140723Y87042D01*
X137724D01*
X136224Y88541D01*
X145221Y96039D02*
Y87042D01*
X148220Y90041D01*
X151219Y87042D01*
Y96039D01*
X154218Y87042D02*
X157217D01*
X155718D01*
Y96039D01*
X154218Y94540D01*
D14*
X960242Y612140D02*
X958743Y613639D01*
Y616638D01*
X960242Y618138D01*
X961742D01*
X963242Y616638D01*
Y615139D01*
Y616638D01*
X964741Y618138D01*
X966240D01*
X967740Y616638D01*
Y613639D01*
X966240Y612140D01*
X958743Y627135D02*
X960242Y624136D01*
X963242Y621137D01*
X966240D01*
X967740Y622637D01*
Y625636D01*
X966240Y627135D01*
X964741D01*
X963242Y625636D01*
Y621137D01*
X983102Y613410D02*
X981603Y614910D01*
Y617909D01*
X983102Y619408D01*
X984602D01*
X986102Y617909D01*
Y616409D01*
Y617909D01*
X987601Y619408D01*
X989100D01*
X990600Y617909D01*
Y614910D01*
X989100Y613410D01*
X981603Y628405D02*
Y622407D01*
X986102D01*
X984602Y625406D01*
Y626906D01*
X986102Y628405D01*
X989100D01*
X990600Y626906D01*
Y623907D01*
X989100Y622407D01*
X993140Y137160D02*
Y140159D01*
Y138659D01*
X984143D01*
X985642Y137160D01*
X967740Y138078D02*
Y132080D01*
X961742Y138078D01*
X960242D01*
X958743Y136579D01*
Y133580D01*
X960242Y132080D01*
X695608Y276967D02*
X692609Y275468D01*
X689610Y272468D01*
Y269470D01*
X691109Y267970D01*
X694109D01*
X695608Y269470D01*
Y270969D01*
X694109Y272468D01*
X689610D01*
X695608Y251567D02*
X689610D01*
Y247069D01*
X692609Y248568D01*
X694109D01*
X695608Y247069D01*
Y244069D01*
X694109Y242570D01*
X691109D01*
X689610Y244069D01*
X601628Y267970D02*
X595630D01*
X601628Y273968D01*
Y275468D01*
X600129Y276967D01*
X597130D01*
X595630Y275468D01*
X600710Y242570D02*
X603709D01*
X602210D01*
Y251567D01*
X600710Y250068D01*
X467008Y466197D02*
X464009Y464698D01*
X461010Y461698D01*
Y458699D01*
X462509Y457200D01*
X465508D01*
X467008Y458699D01*
Y460199D01*
X465508Y461698D01*
X461010D01*
X467008Y440797D02*
X461010D01*
Y436298D01*
X464009Y437798D01*
X465508D01*
X467008Y436298D01*
Y433299D01*
X465508Y431800D01*
X462509D01*
X461010Y433299D01*
X373028Y457200D02*
X367030D01*
X373028Y463198D01*
Y464698D01*
X371529Y466197D01*
X368530D01*
X367030Y464698D01*
X372110Y431800D02*
X375109D01*
X373610D01*
Y440797D01*
X372110Y439298D01*
X458118Y274427D02*
X455119Y272928D01*
X452120Y269928D01*
Y266929D01*
X453619Y265430D01*
X456618D01*
X458118Y266929D01*
Y268429D01*
X456618Y269928D01*
X452120D01*
X458118Y249027D02*
X452120D01*
Y244529D01*
X455119Y246028D01*
X456618D01*
X458118Y244529D01*
Y241530D01*
X456618Y240030D01*
X453619D01*
X452120Y241530D01*
X364138Y265430D02*
X358140D01*
X364138Y271428D01*
Y272928D01*
X362639Y274427D01*
X359640D01*
X358140Y272928D01*
X363220Y240030D02*
X366219D01*
X364720D01*
Y249027D01*
X363220Y247528D01*
X694338Y467467D02*
X691339Y465968D01*
X688340Y462968D01*
Y459969D01*
X689839Y458470D01*
X692839D01*
X694338Y459969D01*
Y461469D01*
X692839Y462968D01*
X688340D01*
X694338Y442067D02*
X688340D01*
Y437569D01*
X691339Y439068D01*
X692839D01*
X694338Y437569D01*
Y434570D01*
X692839Y433070D01*
X689839D01*
X688340Y434570D01*
X600358Y458470D02*
X594360D01*
X600358Y464468D01*
Y465968D01*
X598858Y467467D01*
X595859D01*
X594360Y465968D01*
X599440Y433070D02*
X602439D01*
X600939D01*
Y442067D01*
X599440Y440568D01*
X844550Y141888D02*
Y135890D01*
X838552Y141888D01*
X837052D01*
X835553Y140388D01*
Y137389D01*
X837052Y135890D01*
X869950D02*
Y138889D01*
Y137389D01*
X860953D01*
X862452Y135890D01*
X869950Y358140D02*
Y361139D01*
Y359640D01*
X860953D01*
X862452Y358140D01*
X860953Y371636D02*
Y365638D01*
X865452D01*
X863952Y368637D01*
Y370136D01*
X865452Y371636D01*
X868450D01*
X869950Y370136D01*
Y367137D01*
X868450Y365638D01*
X844550Y356870D02*
Y359869D01*
Y358369D01*
X835553D01*
X837052Y356870D01*
X835553Y370366D02*
X837052Y367367D01*
X840051Y364368D01*
X843051D01*
X844550Y365867D01*
Y368866D01*
X843051Y370366D01*
X841551D01*
X840051Y368866D01*
Y364368D01*
X844550Y551180D02*
Y554179D01*
Y552679D01*
X835553D01*
X837052Y551180D01*
X844550Y564676D02*
Y558678D01*
X838552Y564676D01*
X837052D01*
X835553Y563176D01*
Y560177D01*
X837052Y558678D01*
X869950Y561340D02*
Y564339D01*
Y562840D01*
X860953D01*
X862452Y561340D01*
X869950Y551180D02*
Y554179D01*
Y552679D01*
X860953D01*
X862452Y551180D01*
X869950Y378460D02*
Y381459D01*
Y379959D01*
X860953D01*
X862452Y378460D01*
X844550Y384458D02*
Y378460D01*
X838552Y384458D01*
X837052D01*
X835553Y382958D01*
Y379959D01*
X837052Y378460D01*
X909320Y136808D02*
Y130810D01*
X903322Y136808D01*
X901822D01*
X900323Y135309D01*
Y132310D01*
X901822Y130810D01*
X934720Y135890D02*
Y138889D01*
Y137389D01*
X925723D01*
X927222Y135890D01*
Y610870D02*
X925723Y612369D01*
Y615368D01*
X927222Y616868D01*
X928722D01*
X930221Y615368D01*
Y613869D01*
Y615368D01*
X931721Y616868D01*
X933221D01*
X934720Y615368D01*
Y612369D01*
X933221Y610870D01*
X925723Y625865D02*
Y619867D01*
X930221D01*
X928722Y622866D01*
Y624366D01*
X930221Y625865D01*
X933221D01*
X934720Y624366D01*
Y621367D01*
X933221Y619867D01*
D15*
X406400Y148275D02*
D03*
X186690Y110175D02*
D03*
M02*
