G04*
G04 #@! TF.GenerationSoftware,Altium Limited,Altium Designer,22.5.1 (42)*
G04*
G04 Layer_Color=16711935*
%FSLAX44Y44*%
%MOMM*%
G71*
G04*
G04 #@! TF.SameCoordinates,CA0BB6C5-CFA1-4992-A8A9-7B9ED42510D7*
G04*
G04*
G04 #@! TF.FilePolarity,Positive*
G04*
G01*
G75*
%ADD10C,0.2000*%
G36*
X153670Y168566D02*
X148668D01*
X148678Y168557D01*
X148714Y168511D01*
X148770Y168455D01*
X148835Y168363D01*
X148918Y168261D01*
X149010Y168132D01*
X149112Y167984D01*
X149214Y167817D01*
Y167808D01*
X149223Y167799D01*
X149260Y167743D01*
X149306Y167651D01*
X149362Y167540D01*
X149426Y167411D01*
X149491Y167272D01*
X149556Y167133D01*
X149611Y166994D01*
X148853D01*
Y167004D01*
X148835Y167022D01*
X148825Y167059D01*
X148798Y167105D01*
X148770Y167161D01*
X148733Y167225D01*
X148640Y167383D01*
X148539Y167568D01*
X148409Y167752D01*
X148261Y167947D01*
X148104Y168141D01*
X148095Y168150D01*
X148086Y168159D01*
X148058Y168187D01*
X148030Y168224D01*
X147938Y168307D01*
X147827Y168418D01*
X147697Y168529D01*
X147549Y168649D01*
X147402Y168751D01*
X147244Y168843D01*
Y169352D01*
X153670D01*
Y168566D01*
D02*
G37*
G36*
X148030Y162141D02*
X150009D01*
Y165145D01*
X150767D01*
Y162141D01*
X153670D01*
Y161290D01*
X147272D01*
Y165617D01*
X148030D01*
Y162141D01*
D02*
G37*
G36*
X546731Y457461D02*
X546814Y457451D01*
X546916Y457442D01*
X547018Y457433D01*
X547138Y457405D01*
X547388Y457350D01*
X547665Y457266D01*
X547804Y457211D01*
X547933Y457146D01*
X548063Y457063D01*
X548192Y456980D01*
X548201Y456970D01*
X548220Y456961D01*
X548257Y456934D01*
X548303Y456887D01*
X548349Y456841D01*
X548414Y456776D01*
X548479Y456702D01*
X548553Y456628D01*
X548627Y456536D01*
X548700Y456425D01*
X548784Y456314D01*
X548858Y456194D01*
X548922Y456055D01*
X548996Y455916D01*
X549052Y455769D01*
X549107Y455602D01*
X548275Y455408D01*
Y455417D01*
X548266Y455436D01*
X548247Y455473D01*
X548229Y455519D01*
X548210Y455574D01*
X548183Y455648D01*
X548109Y455796D01*
X548016Y455963D01*
X547905Y456129D01*
X547767Y456286D01*
X547619Y456425D01*
X547600Y456443D01*
X547545Y456480D01*
X547452Y456527D01*
X547332Y456591D01*
X547175Y456647D01*
X546999Y456702D01*
X546787Y456739D01*
X546555Y456749D01*
X546482D01*
X546435Y456739D01*
X546371D01*
X546297Y456730D01*
X546121Y456702D01*
X545927Y456665D01*
X545723Y456601D01*
X545511Y456508D01*
X545317Y456388D01*
X545307D01*
X545298Y456370D01*
X545233Y456323D01*
X545150Y456249D01*
X545048Y456138D01*
X544928Y456000D01*
X544817Y455843D01*
X544716Y455648D01*
X544623Y455436D01*
Y455426D01*
X544614Y455408D01*
X544605Y455380D01*
X544595Y455334D01*
X544577Y455279D01*
X544558Y455214D01*
X544531Y455057D01*
X544494Y454872D01*
X544457Y454668D01*
X544438Y454446D01*
X544429Y454206D01*
Y454197D01*
Y454169D01*
Y454123D01*
Y454067D01*
X544438Y454003D01*
Y453919D01*
X544448Y453827D01*
X544457Y453725D01*
X544484Y453503D01*
X544531Y453263D01*
X544586Y453023D01*
X544660Y452782D01*
Y452773D01*
X544669Y452755D01*
X544688Y452727D01*
X544706Y452681D01*
X544762Y452570D01*
X544845Y452440D01*
X544947Y452292D01*
X545076Y452135D01*
X545224Y451996D01*
X545400Y451867D01*
X545409D01*
X545428Y451858D01*
X545455Y451839D01*
X545492Y451821D01*
X545538Y451802D01*
X545594Y451774D01*
X545723Y451719D01*
X545890Y451664D01*
X546075Y451617D01*
X546278Y451580D01*
X546491Y451571D01*
X546555D01*
X546611Y451580D01*
X546676D01*
X546740Y451590D01*
X546907Y451627D01*
X547101Y451673D01*
X547295Y451747D01*
X547499Y451848D01*
X547600Y451904D01*
X547693Y451978D01*
X547702Y451987D01*
X547711Y451996D01*
X547739Y452024D01*
X547776Y452052D01*
X547813Y452098D01*
X547859Y452154D01*
X547915Y452209D01*
X547961Y452283D01*
X548016Y452366D01*
X548081Y452459D01*
X548136Y452551D01*
X548192Y452662D01*
X548238Y452782D01*
X548284Y452912D01*
X548331Y453050D01*
X548368Y453198D01*
X549218Y452986D01*
Y452976D01*
X549209Y452939D01*
X549190Y452884D01*
X549163Y452810D01*
X549135Y452727D01*
X549098Y452625D01*
X549052Y452514D01*
X548996Y452394D01*
X548867Y452135D01*
X548700Y451876D01*
X548599Y451747D01*
X548497Y451617D01*
X548386Y451506D01*
X548257Y451395D01*
X548247Y451386D01*
X548229Y451368D01*
X548183Y451349D01*
X548136Y451312D01*
X548063Y451266D01*
X547989Y451220D01*
X547887Y451174D01*
X547785Y451127D01*
X547665Y451072D01*
X547536Y451026D01*
X547397Y450979D01*
X547249Y450933D01*
X547092Y450896D01*
X546925Y450878D01*
X546750Y450859D01*
X546565Y450850D01*
X546463D01*
X546389Y450859D01*
X546306D01*
X546204Y450868D01*
X546093Y450887D01*
X545964Y450905D01*
X545696Y450952D01*
X545418Y451026D01*
X545141Y451127D01*
X545011Y451192D01*
X544882Y451266D01*
X544873Y451275D01*
X544854Y451284D01*
X544817Y451312D01*
X544780Y451349D01*
X544725Y451386D01*
X544660Y451442D01*
X544586Y451506D01*
X544512Y451580D01*
X544438Y451664D01*
X544355Y451747D01*
X544189Y451959D01*
X544031Y452209D01*
X543893Y452486D01*
Y452496D01*
X543874Y452523D01*
X543865Y452570D01*
X543837Y452625D01*
X543819Y452699D01*
X543791Y452791D01*
X543754Y452893D01*
X543726Y453004D01*
X543699Y453124D01*
X543662Y453263D01*
X543615Y453550D01*
X543578Y453873D01*
X543560Y454206D01*
Y454215D01*
Y454252D01*
Y454308D01*
X543569Y454372D01*
Y454465D01*
X543578Y454557D01*
X543588Y454678D01*
X543606Y454798D01*
X543652Y455066D01*
X543717Y455362D01*
X543810Y455658D01*
X543939Y455944D01*
X543948Y455953D01*
X543957Y455981D01*
X543976Y456018D01*
X544013Y456064D01*
X544050Y456129D01*
X544096Y456203D01*
X544216Y456370D01*
X544374Y456554D01*
X544558Y456739D01*
X544771Y456924D01*
X545021Y457081D01*
X545030Y457091D01*
X545058Y457100D01*
X545095Y457118D01*
X545141Y457146D01*
X545215Y457174D01*
X545289Y457202D01*
X545381Y457239D01*
X545483Y457276D01*
X545594Y457313D01*
X545714Y457350D01*
X545973Y457405D01*
X546269Y457451D01*
X546574Y457470D01*
X546666D01*
X546731Y457461D01*
D02*
G37*
G36*
X553240Y453217D02*
X554109D01*
Y452496D01*
X553240D01*
Y450961D01*
X552454D01*
Y452496D01*
X549671D01*
Y453217D01*
X552602Y457359D01*
X553240D01*
Y453217D01*
D02*
G37*
G36*
X549271Y263151D02*
X549354Y263141D01*
X549456Y263132D01*
X549558Y263123D01*
X549678Y263095D01*
X549928Y263039D01*
X550205Y262956D01*
X550344Y262901D01*
X550473Y262836D01*
X550602Y262753D01*
X550732Y262670D01*
X550741Y262661D01*
X550760Y262651D01*
X550797Y262624D01*
X550843Y262577D01*
X550889Y262531D01*
X550954Y262466D01*
X551018Y262392D01*
X551092Y262318D01*
X551166Y262226D01*
X551240Y262115D01*
X551324Y262004D01*
X551398Y261884D01*
X551462Y261745D01*
X551536Y261607D01*
X551592Y261458D01*
X551647Y261292D01*
X550815Y261098D01*
Y261107D01*
X550806Y261126D01*
X550787Y261163D01*
X550769Y261209D01*
X550750Y261264D01*
X550723Y261338D01*
X550649Y261486D01*
X550556Y261653D01*
X550445Y261819D01*
X550307Y261976D01*
X550159Y262115D01*
X550140Y262134D01*
X550085Y262170D01*
X549992Y262217D01*
X549872Y262281D01*
X549715Y262337D01*
X549539Y262392D01*
X549327Y262429D01*
X549095Y262439D01*
X549021D01*
X548975Y262429D01*
X548910D01*
X548837Y262420D01*
X548661Y262392D01*
X548467Y262355D01*
X548263Y262291D01*
X548051Y262198D01*
X547856Y262078D01*
X547847D01*
X547838Y262059D01*
X547773Y262013D01*
X547690Y261939D01*
X547588Y261828D01*
X547468Y261690D01*
X547357Y261532D01*
X547256Y261338D01*
X547163Y261126D01*
Y261116D01*
X547154Y261098D01*
X547145Y261070D01*
X547135Y261024D01*
X547117Y260968D01*
X547098Y260904D01*
X547071Y260747D01*
X547034Y260562D01*
X546997Y260358D01*
X546978Y260136D01*
X546969Y259896D01*
Y259887D01*
Y259859D01*
Y259813D01*
Y259757D01*
X546978Y259693D01*
Y259609D01*
X546987Y259517D01*
X546997Y259415D01*
X547024Y259193D01*
X547071Y258953D01*
X547126Y258713D01*
X547200Y258472D01*
Y258463D01*
X547209Y258444D01*
X547228Y258417D01*
X547246Y258370D01*
X547302Y258260D01*
X547385Y258130D01*
X547487Y257982D01*
X547616Y257825D01*
X547764Y257686D01*
X547940Y257557D01*
X547949D01*
X547967Y257548D01*
X547995Y257529D01*
X548032Y257511D01*
X548078Y257492D01*
X548134Y257464D01*
X548263Y257409D01*
X548430Y257353D01*
X548615Y257307D01*
X548818Y257270D01*
X549031Y257261D01*
X549095D01*
X549151Y257270D01*
X549216D01*
X549280Y257279D01*
X549447Y257316D01*
X549641Y257363D01*
X549835Y257437D01*
X550038Y257538D01*
X550140Y257594D01*
X550233Y257668D01*
X550242Y257677D01*
X550251Y257686D01*
X550279Y257714D01*
X550316Y257742D01*
X550353Y257788D01*
X550399Y257843D01*
X550455Y257899D01*
X550501Y257973D01*
X550556Y258056D01*
X550621Y258149D01*
X550676Y258241D01*
X550732Y258352D01*
X550778Y258472D01*
X550824Y258602D01*
X550871Y258740D01*
X550908Y258888D01*
X551758Y258676D01*
Y258666D01*
X551749Y258629D01*
X551730Y258574D01*
X551703Y258500D01*
X551675Y258417D01*
X551638Y258315D01*
X551592Y258204D01*
X551536Y258084D01*
X551407Y257825D01*
X551240Y257566D01*
X551139Y257437D01*
X551037Y257307D01*
X550926Y257196D01*
X550797Y257085D01*
X550787Y257076D01*
X550769Y257058D01*
X550723Y257039D01*
X550676Y257002D01*
X550602Y256956D01*
X550528Y256910D01*
X550427Y256863D01*
X550325Y256817D01*
X550205Y256762D01*
X550075Y256716D01*
X549937Y256669D01*
X549789Y256623D01*
X549632Y256586D01*
X549465Y256568D01*
X549290Y256549D01*
X549105Y256540D01*
X549003D01*
X548929Y256549D01*
X548846D01*
X548744Y256558D01*
X548633Y256577D01*
X548504Y256595D01*
X548236Y256642D01*
X547958Y256716D01*
X547681Y256817D01*
X547551Y256882D01*
X547422Y256956D01*
X547413Y256965D01*
X547394Y256974D01*
X547357Y257002D01*
X547320Y257039D01*
X547265Y257076D01*
X547200Y257132D01*
X547126Y257196D01*
X547052Y257270D01*
X546978Y257353D01*
X546895Y257437D01*
X546729Y257649D01*
X546571Y257899D01*
X546433Y258176D01*
Y258186D01*
X546414Y258213D01*
X546405Y258260D01*
X546377Y258315D01*
X546359Y258389D01*
X546331Y258481D01*
X546294Y258583D01*
X546266Y258694D01*
X546239Y258814D01*
X546202Y258953D01*
X546155Y259240D01*
X546118Y259563D01*
X546100Y259896D01*
Y259905D01*
Y259942D01*
Y259998D01*
X546109Y260062D01*
Y260155D01*
X546118Y260247D01*
X546128Y260368D01*
X546146Y260488D01*
X546192Y260756D01*
X546257Y261052D01*
X546349Y261348D01*
X546479Y261634D01*
X546488Y261643D01*
X546497Y261671D01*
X546516Y261708D01*
X546553Y261754D01*
X546590Y261819D01*
X546636Y261893D01*
X546756Y262059D01*
X546913Y262244D01*
X547098Y262429D01*
X547311Y262614D01*
X547561Y262771D01*
X547570Y262781D01*
X547598Y262790D01*
X547635Y262808D01*
X547681Y262836D01*
X547755Y262864D01*
X547829Y262892D01*
X547921Y262929D01*
X548023Y262966D01*
X548134Y263002D01*
X548254Y263039D01*
X548513Y263095D01*
X548809Y263141D01*
X549114Y263160D01*
X549206D01*
X549271Y263151D01*
D02*
G37*
G36*
X554680Y263067D02*
X554800Y263049D01*
X554948Y263021D01*
X555114Y262975D01*
X555281Y262919D01*
X555447Y262845D01*
X555456D01*
X555466Y262836D01*
X555521Y262808D01*
X555604Y262753D01*
X555697Y262688D01*
X555808Y262596D01*
X555919Y262494D01*
X556030Y262374D01*
X556122Y262235D01*
X556131Y262217D01*
X556159Y262170D01*
X556196Y262087D01*
X556242Y261985D01*
X556288Y261865D01*
X556325Y261727D01*
X556353Y261569D01*
X556362Y261412D01*
Y261394D01*
Y261338D01*
X556353Y261264D01*
X556335Y261163D01*
X556307Y261042D01*
X556261Y260913D01*
X556205Y260784D01*
X556131Y260654D01*
X556122Y260636D01*
X556094Y260599D01*
X556039Y260534D01*
X555965Y260460D01*
X555872Y260377D01*
X555761Y260284D01*
X555632Y260201D01*
X555475Y260118D01*
X555484D01*
X555503Y260109D01*
X555530Y260099D01*
X555567Y260090D01*
X555669Y260053D01*
X555798Y259998D01*
X555946Y259924D01*
X556094Y259831D01*
X556233Y259711D01*
X556362Y259572D01*
X556372Y259554D01*
X556409Y259499D01*
X556464Y259406D01*
X556520Y259286D01*
X556575Y259138D01*
X556631Y258962D01*
X556668Y258759D01*
X556677Y258537D01*
Y258528D01*
Y258500D01*
Y258454D01*
X556668Y258398D01*
X556658Y258324D01*
X556640Y258241D01*
X556621Y258149D01*
X556603Y258047D01*
X556529Y257825D01*
X556473Y257705D01*
X556418Y257594D01*
X556344Y257474D01*
X556261Y257353D01*
X556168Y257233D01*
X556057Y257122D01*
X556048Y257113D01*
X556030Y257095D01*
X555993Y257067D01*
X555946Y257030D01*
X555891Y256984D01*
X555817Y256937D01*
X555734Y256882D01*
X555632Y256836D01*
X555530Y256780D01*
X555410Y256725D01*
X555290Y256679D01*
X555151Y256632D01*
X555003Y256595D01*
X554846Y256568D01*
X554689Y256549D01*
X554513Y256540D01*
X554430D01*
X554375Y256549D01*
X554301Y256558D01*
X554217Y256568D01*
X554125Y256586D01*
X554023Y256605D01*
X553801Y256660D01*
X553570Y256752D01*
X553450Y256808D01*
X553339Y256873D01*
X553228Y256956D01*
X553117Y257039D01*
X553108Y257048D01*
X553089Y257067D01*
X553062Y257095D01*
X553034Y257132D01*
X552988Y257178D01*
X552942Y257243D01*
X552886Y257307D01*
X552831Y257390D01*
X552775Y257483D01*
X552720Y257575D01*
X552618Y257797D01*
X552535Y258056D01*
X552507Y258195D01*
X552489Y258343D01*
X553274Y258444D01*
Y258435D01*
X553284Y258417D01*
X553293Y258380D01*
X553302Y258333D01*
X553311Y258278D01*
X553330Y258213D01*
X553376Y258075D01*
X553441Y257908D01*
X553524Y257751D01*
X553616Y257603D01*
X553727Y257474D01*
X553746Y257464D01*
X553783Y257428D01*
X553857Y257381D01*
X553949Y257335D01*
X554060Y257279D01*
X554199Y257233D01*
X554356Y257196D01*
X554523Y257187D01*
X554578D01*
X554615Y257196D01*
X554717Y257206D01*
X554846Y257233D01*
X554994Y257279D01*
X555151Y257344D01*
X555308Y257437D01*
X555456Y257566D01*
X555475Y257585D01*
X555521Y257640D01*
X555577Y257723D01*
X555651Y257834D01*
X555724Y257973D01*
X555780Y258130D01*
X555826Y258315D01*
X555845Y258518D01*
Y258528D01*
Y258546D01*
Y258574D01*
X555835Y258611D01*
X555826Y258713D01*
X555798Y258833D01*
X555761Y258981D01*
X555697Y259129D01*
X555604Y259277D01*
X555484Y259415D01*
X555466Y259434D01*
X555419Y259471D01*
X555345Y259526D01*
X555244Y259591D01*
X555114Y259656D01*
X554957Y259711D01*
X554781Y259748D01*
X554587Y259767D01*
X554504D01*
X554439Y259757D01*
X554356Y259748D01*
X554264Y259730D01*
X554153Y259711D01*
X554033Y259683D01*
X554125Y260377D01*
X554171D01*
X554208Y260368D01*
X554328D01*
X554430Y260386D01*
X554550Y260404D01*
X554689Y260432D01*
X554846Y260478D01*
X554994Y260543D01*
X555151Y260626D01*
X555161D01*
X555170Y260636D01*
X555216Y260673D01*
X555281Y260737D01*
X555355Y260821D01*
X555429Y260941D01*
X555493Y261080D01*
X555540Y261237D01*
X555558Y261329D01*
Y261431D01*
Y261440D01*
Y261449D01*
Y261505D01*
X555540Y261579D01*
X555521Y261680D01*
X555484Y261791D01*
X555438Y261912D01*
X555364Y262032D01*
X555262Y262143D01*
X555253Y262152D01*
X555207Y262189D01*
X555142Y262235D01*
X555059Y262291D01*
X554948Y262337D01*
X554818Y262383D01*
X554670Y262420D01*
X554504Y262429D01*
X554430D01*
X554347Y262411D01*
X554236Y262392D01*
X554116Y262355D01*
X553996Y262309D01*
X553866Y262235D01*
X553746Y262143D01*
X553737Y262134D01*
X553700Y262087D01*
X553644Y262022D01*
X553580Y261930D01*
X553515Y261810D01*
X553450Y261662D01*
X553395Y261486D01*
X553358Y261283D01*
X552572Y261422D01*
Y261431D01*
X552581Y261458D01*
X552590Y261495D01*
X552599Y261551D01*
X552618Y261616D01*
X552646Y261690D01*
X552701Y261865D01*
X552794Y262069D01*
X552905Y262272D01*
X553043Y262466D01*
X553219Y262642D01*
X553228Y262651D01*
X553247Y262661D01*
X553274Y262679D01*
X553311Y262707D01*
X553358Y262744D01*
X553422Y262781D01*
X553487Y262818D01*
X553570Y262864D01*
X553755Y262938D01*
X553968Y263012D01*
X554217Y263058D01*
X554347Y263076D01*
X554578D01*
X554680Y263067D01*
D02*
G37*
G36*
X315591Y460000D02*
X315674Y459991D01*
X315776Y459982D01*
X315878Y459973D01*
X315998Y459945D01*
X316248Y459889D01*
X316525Y459806D01*
X316664Y459751D01*
X316793Y459686D01*
X316922Y459603D01*
X317052Y459520D01*
X317061Y459510D01*
X317080Y459501D01*
X317117Y459473D01*
X317163Y459427D01*
X317209Y459381D01*
X317274Y459316D01*
X317339Y459242D01*
X317412Y459168D01*
X317486Y459076D01*
X317560Y458965D01*
X317644Y458854D01*
X317718Y458734D01*
X317782Y458595D01*
X317856Y458456D01*
X317912Y458308D01*
X317967Y458142D01*
X317135Y457948D01*
Y457957D01*
X317126Y457976D01*
X317107Y458013D01*
X317089Y458059D01*
X317070Y458114D01*
X317043Y458188D01*
X316969Y458336D01*
X316876Y458503D01*
X316765Y458669D01*
X316627Y458826D01*
X316479Y458965D01*
X316460Y458983D01*
X316405Y459020D01*
X316312Y459067D01*
X316192Y459131D01*
X316035Y459187D01*
X315859Y459242D01*
X315647Y459279D01*
X315415Y459289D01*
X315341D01*
X315295Y459279D01*
X315231D01*
X315157Y459270D01*
X314981Y459242D01*
X314787Y459205D01*
X314583Y459141D01*
X314371Y459048D01*
X314177Y458928D01*
X314167D01*
X314158Y458909D01*
X314093Y458863D01*
X314010Y458789D01*
X313908Y458678D01*
X313788Y458540D01*
X313677Y458382D01*
X313576Y458188D01*
X313483Y457976D01*
Y457966D01*
X313474Y457948D01*
X313465Y457920D01*
X313455Y457874D01*
X313437Y457818D01*
X313418Y457754D01*
X313391Y457597D01*
X313354Y457412D01*
X313317Y457208D01*
X313298Y456986D01*
X313289Y456746D01*
Y456737D01*
Y456709D01*
Y456663D01*
Y456607D01*
X313298Y456543D01*
Y456459D01*
X313307Y456367D01*
X313317Y456265D01*
X313344Y456043D01*
X313391Y455803D01*
X313446Y455563D01*
X313520Y455322D01*
Y455313D01*
X313529Y455294D01*
X313548Y455267D01*
X313566Y455220D01*
X313622Y455110D01*
X313705Y454980D01*
X313807Y454832D01*
X313936Y454675D01*
X314084Y454536D01*
X314260Y454407D01*
X314269D01*
X314287Y454398D01*
X314315Y454379D01*
X314352Y454361D01*
X314398Y454342D01*
X314454Y454314D01*
X314583Y454259D01*
X314750Y454203D01*
X314935Y454157D01*
X315138Y454120D01*
X315351Y454111D01*
X315415D01*
X315471Y454120D01*
X315536D01*
X315600Y454129D01*
X315767Y454166D01*
X315961Y454213D01*
X316155Y454287D01*
X316359Y454388D01*
X316460Y454444D01*
X316553Y454518D01*
X316562Y454527D01*
X316571Y454536D01*
X316599Y454564D01*
X316636Y454592D01*
X316673Y454638D01*
X316719Y454693D01*
X316775Y454749D01*
X316821Y454823D01*
X316876Y454906D01*
X316941Y454999D01*
X316996Y455091D01*
X317052Y455202D01*
X317098Y455322D01*
X317144Y455452D01*
X317191Y455590D01*
X317228Y455738D01*
X318078Y455526D01*
Y455516D01*
X318069Y455479D01*
X318050Y455424D01*
X318023Y455350D01*
X317995Y455267D01*
X317958Y455165D01*
X317912Y455054D01*
X317856Y454934D01*
X317727Y454675D01*
X317560Y454416D01*
X317459Y454287D01*
X317357Y454157D01*
X317246Y454046D01*
X317117Y453935D01*
X317107Y453926D01*
X317089Y453908D01*
X317043Y453889D01*
X316996Y453852D01*
X316922Y453806D01*
X316849Y453760D01*
X316747Y453713D01*
X316645Y453667D01*
X316525Y453612D01*
X316395Y453565D01*
X316257Y453519D01*
X316109Y453473D01*
X315952Y453436D01*
X315785Y453418D01*
X315610Y453399D01*
X315425Y453390D01*
X315323D01*
X315249Y453399D01*
X315166D01*
X315064Y453408D01*
X314953Y453427D01*
X314824Y453445D01*
X314556Y453492D01*
X314278Y453565D01*
X314001Y453667D01*
X313871Y453732D01*
X313742Y453806D01*
X313733Y453815D01*
X313714Y453824D01*
X313677Y453852D01*
X313640Y453889D01*
X313585Y453926D01*
X313520Y453982D01*
X313446Y454046D01*
X313372Y454120D01*
X313298Y454203D01*
X313215Y454287D01*
X313049Y454499D01*
X312891Y454749D01*
X312753Y455026D01*
Y455036D01*
X312734Y455063D01*
X312725Y455110D01*
X312697Y455165D01*
X312679Y455239D01*
X312651Y455331D01*
X312614Y455433D01*
X312586Y455544D01*
X312559Y455664D01*
X312522Y455803D01*
X312475Y456090D01*
X312438Y456413D01*
X312420Y456746D01*
Y456755D01*
Y456792D01*
Y456848D01*
X312429Y456912D01*
Y457005D01*
X312438Y457097D01*
X312448Y457218D01*
X312466Y457338D01*
X312512Y457606D01*
X312577Y457902D01*
X312670Y458198D01*
X312799Y458484D01*
X312808Y458493D01*
X312817Y458521D01*
X312836Y458558D01*
X312873Y458604D01*
X312910Y458669D01*
X312956Y458743D01*
X313076Y458909D01*
X313234Y459094D01*
X313418Y459279D01*
X313631Y459464D01*
X313881Y459621D01*
X313890Y459631D01*
X313918Y459640D01*
X313955Y459658D01*
X314001Y459686D01*
X314075Y459714D01*
X314149Y459742D01*
X314241Y459779D01*
X314343Y459816D01*
X314454Y459852D01*
X314574Y459889D01*
X314833Y459945D01*
X315129Y459991D01*
X315434Y460010D01*
X315526D01*
X315591Y460000D01*
D02*
G37*
G36*
X321074Y459917D02*
X321148Y459908D01*
X321240Y459899D01*
X321342Y459880D01*
X321444Y459862D01*
X321684Y459797D01*
X321924Y459705D01*
X322044Y459649D01*
X322165Y459584D01*
X322276Y459501D01*
X322377Y459409D01*
X322387Y459399D01*
X322405Y459390D01*
X322424Y459353D01*
X322461Y459316D01*
X322507Y459270D01*
X322553Y459205D01*
X322599Y459141D01*
X322655Y459057D01*
X322747Y458882D01*
X322840Y458660D01*
X322877Y458549D01*
X322895Y458419D01*
X322914Y458290D01*
X322923Y458151D01*
Y458133D01*
Y458087D01*
X322914Y458013D01*
X322904Y457911D01*
X322886Y457800D01*
X322849Y457671D01*
X322812Y457532D01*
X322757Y457393D01*
X322747Y457375D01*
X322729Y457328D01*
X322692Y457254D01*
X322636Y457153D01*
X322562Y457042D01*
X322470Y456903D01*
X322359Y456764D01*
X322229Y456607D01*
X322211Y456589D01*
X322165Y456533D01*
X322118Y456487D01*
X322072Y456441D01*
X322017Y456385D01*
X321943Y456311D01*
X321869Y456237D01*
X321776Y456154D01*
X321684Y456062D01*
X321573Y455960D01*
X321453Y455858D01*
X321323Y455738D01*
X321175Y455618D01*
X321027Y455489D01*
X321018Y455479D01*
X321000Y455461D01*
X320963Y455433D01*
X320917Y455396D01*
X320861Y455341D01*
X320796Y455285D01*
X320648Y455165D01*
X320491Y455026D01*
X320343Y454888D01*
X320214Y454767D01*
X320158Y454721D01*
X320112Y454675D01*
X320103Y454666D01*
X320075Y454638D01*
X320038Y454601D01*
X319992Y454546D01*
X319946Y454481D01*
X319890Y454416D01*
X319779Y454259D01*
X322932D01*
Y453501D01*
X318688D01*
Y453510D01*
Y453547D01*
Y453602D01*
X318698Y453676D01*
X318707Y453760D01*
X318725Y453852D01*
X318744Y453945D01*
X318781Y454046D01*
Y454056D01*
X318790Y454065D01*
X318809Y454120D01*
X318846Y454203D01*
X318901Y454314D01*
X318975Y454444D01*
X319067Y454592D01*
X319169Y454740D01*
X319299Y454897D01*
Y454906D01*
X319317Y454915D01*
X319363Y454971D01*
X319447Y455054D01*
X319567Y455174D01*
X319705Y455313D01*
X319881Y455479D01*
X320094Y455664D01*
X320325Y455858D01*
X320334Y455868D01*
X320371Y455895D01*
X320427Y455942D01*
X320491Y455997D01*
X320574Y456071D01*
X320676Y456154D01*
X320778Y456247D01*
X320898Y456348D01*
X321129Y456570D01*
X321360Y456792D01*
X321471Y456903D01*
X321573Y457014D01*
X321665Y457116D01*
X321739Y457218D01*
Y457227D01*
X321758Y457236D01*
X321776Y457264D01*
X321795Y457301D01*
X321860Y457402D01*
X321934Y457523D01*
X321998Y457671D01*
X322063Y457828D01*
X322100Y458003D01*
X322118Y458170D01*
Y458179D01*
Y458188D01*
X322109Y458244D01*
X322100Y458336D01*
X322072Y458438D01*
X322035Y458567D01*
X321971Y458697D01*
X321887Y458826D01*
X321776Y458956D01*
X321758Y458974D01*
X321712Y459011D01*
X321647Y459057D01*
X321545Y459122D01*
X321416Y459178D01*
X321268Y459233D01*
X321092Y459270D01*
X320898Y459279D01*
X320843D01*
X320806Y459270D01*
X320695Y459261D01*
X320565Y459233D01*
X320427Y459196D01*
X320269Y459131D01*
X320121Y459048D01*
X319983Y458937D01*
X319964Y458919D01*
X319927Y458872D01*
X319872Y458798D01*
X319816Y458688D01*
X319752Y458558D01*
X319696Y458392D01*
X319659Y458207D01*
X319641Y457994D01*
X318836Y458077D01*
Y458087D01*
X318846Y458114D01*
Y458161D01*
X318855Y458225D01*
X318873Y458299D01*
X318892Y458382D01*
X318920Y458484D01*
X318947Y458586D01*
X319021Y458808D01*
X319132Y459030D01*
X319197Y459141D01*
X319280Y459252D01*
X319363Y459353D01*
X319456Y459446D01*
X319465Y459455D01*
X319484Y459464D01*
X319511Y459492D01*
X319557Y459520D01*
X319613Y459557D01*
X319678Y459594D01*
X319752Y459640D01*
X319844Y459686D01*
X319946Y459732D01*
X320057Y459779D01*
X320177Y459816D01*
X320306Y459852D01*
X320445Y459880D01*
X320593Y459908D01*
X320750Y459917D01*
X320917Y459926D01*
X321009D01*
X321074Y459917D01*
D02*
G37*
G36*
X305431Y269501D02*
X305514Y269491D01*
X305616Y269482D01*
X305718Y269473D01*
X305838Y269445D01*
X306088Y269389D01*
X306365Y269306D01*
X306504Y269251D01*
X306633Y269186D01*
X306763Y269103D01*
X306892Y269020D01*
X306901Y269011D01*
X306920Y269001D01*
X306957Y268974D01*
X307003Y268927D01*
X307049Y268881D01*
X307114Y268816D01*
X307178Y268742D01*
X307253Y268668D01*
X307327Y268576D01*
X307400Y268465D01*
X307484Y268354D01*
X307558Y268234D01*
X307622Y268095D01*
X307696Y267957D01*
X307752Y267808D01*
X307807Y267642D01*
X306975Y267448D01*
Y267457D01*
X306966Y267476D01*
X306947Y267513D01*
X306929Y267559D01*
X306910Y267614D01*
X306883Y267688D01*
X306809Y267836D01*
X306716Y268003D01*
X306605Y268169D01*
X306467Y268326D01*
X306319Y268465D01*
X306300Y268484D01*
X306245Y268520D01*
X306152Y268567D01*
X306032Y268631D01*
X305875Y268687D01*
X305699Y268742D01*
X305487Y268779D01*
X305255Y268789D01*
X305182D01*
X305135Y268779D01*
X305070D01*
X304997Y268770D01*
X304821Y268742D01*
X304627Y268705D01*
X304423Y268641D01*
X304211Y268548D01*
X304016Y268428D01*
X304007D01*
X303998Y268410D01*
X303933Y268363D01*
X303850Y268289D01*
X303748Y268178D01*
X303628Y268040D01*
X303517Y267882D01*
X303416Y267688D01*
X303323Y267476D01*
Y267466D01*
X303314Y267448D01*
X303305Y267420D01*
X303295Y267374D01*
X303277Y267318D01*
X303258Y267254D01*
X303231Y267097D01*
X303194Y266912D01*
X303157Y266708D01*
X303138Y266486D01*
X303129Y266246D01*
Y266237D01*
Y266209D01*
Y266163D01*
Y266107D01*
X303138Y266043D01*
Y265959D01*
X303148Y265867D01*
X303157Y265765D01*
X303184Y265543D01*
X303231Y265303D01*
X303286Y265063D01*
X303360Y264822D01*
Y264813D01*
X303369Y264795D01*
X303388Y264767D01*
X303406Y264720D01*
X303462Y264610D01*
X303545Y264480D01*
X303647Y264332D01*
X303776Y264175D01*
X303924Y264036D01*
X304100Y263907D01*
X304109D01*
X304128Y263898D01*
X304155Y263879D01*
X304192Y263861D01*
X304238Y263842D01*
X304294Y263814D01*
X304423Y263759D01*
X304590Y263703D01*
X304775Y263657D01*
X304978Y263620D01*
X305191Y263611D01*
X305255D01*
X305311Y263620D01*
X305376D01*
X305440Y263629D01*
X305607Y263666D01*
X305801Y263713D01*
X305995Y263787D01*
X306199Y263888D01*
X306300Y263944D01*
X306393Y264018D01*
X306402Y264027D01*
X306411Y264036D01*
X306439Y264064D01*
X306476Y264092D01*
X306513Y264138D01*
X306559Y264193D01*
X306615Y264249D01*
X306661Y264323D01*
X306716Y264406D01*
X306781Y264499D01*
X306836Y264591D01*
X306892Y264702D01*
X306938Y264822D01*
X306984Y264952D01*
X307031Y265090D01*
X307068Y265238D01*
X307918Y265026D01*
Y265016D01*
X307909Y264979D01*
X307890Y264924D01*
X307863Y264850D01*
X307835Y264767D01*
X307798Y264665D01*
X307752Y264554D01*
X307696Y264434D01*
X307567Y264175D01*
X307400Y263916D01*
X307299Y263787D01*
X307197Y263657D01*
X307086Y263546D01*
X306957Y263435D01*
X306947Y263426D01*
X306929Y263408D01*
X306883Y263389D01*
X306836Y263352D01*
X306763Y263306D01*
X306688Y263260D01*
X306587Y263214D01*
X306485Y263167D01*
X306365Y263112D01*
X306236Y263065D01*
X306097Y263019D01*
X305949Y262973D01*
X305792Y262936D01*
X305625Y262918D01*
X305450Y262899D01*
X305265Y262890D01*
X305163D01*
X305089Y262899D01*
X305006D01*
X304904Y262908D01*
X304793Y262927D01*
X304664Y262945D01*
X304396Y262992D01*
X304118Y263065D01*
X303841Y263167D01*
X303711Y263232D01*
X303582Y263306D01*
X303573Y263315D01*
X303554Y263324D01*
X303517Y263352D01*
X303480Y263389D01*
X303425Y263426D01*
X303360Y263482D01*
X303286Y263546D01*
X303212Y263620D01*
X303138Y263703D01*
X303055Y263787D01*
X302889Y263999D01*
X302731Y264249D01*
X302593Y264526D01*
Y264536D01*
X302574Y264563D01*
X302565Y264610D01*
X302537Y264665D01*
X302519Y264739D01*
X302491Y264831D01*
X302454Y264933D01*
X302426Y265044D01*
X302399Y265164D01*
X302362Y265303D01*
X302315Y265590D01*
X302278Y265913D01*
X302260Y266246D01*
Y266255D01*
Y266292D01*
Y266348D01*
X302269Y266412D01*
Y266505D01*
X302278Y266597D01*
X302288Y266718D01*
X302306Y266838D01*
X302352Y267106D01*
X302417Y267402D01*
X302509Y267698D01*
X302639Y267984D01*
X302648Y267993D01*
X302657Y268021D01*
X302676Y268058D01*
X302713Y268104D01*
X302750Y268169D01*
X302796Y268243D01*
X302916Y268410D01*
X303074Y268594D01*
X303258Y268779D01*
X303471Y268964D01*
X303721Y269121D01*
X303730Y269131D01*
X303758Y269140D01*
X303795Y269158D01*
X303841Y269186D01*
X303915Y269214D01*
X303989Y269242D01*
X304081Y269279D01*
X304183Y269316D01*
X304294Y269352D01*
X304414Y269389D01*
X304673Y269445D01*
X304969Y269491D01*
X305274Y269510D01*
X305366D01*
X305431Y269501D01*
D02*
G37*
G36*
X311598Y263001D02*
X310812D01*
Y268003D01*
X310803Y267993D01*
X310757Y267957D01*
X310701Y267901D01*
X310609Y267836D01*
X310507Y267753D01*
X310378Y267661D01*
X310230Y267559D01*
X310063Y267457D01*
X310054D01*
X310045Y267448D01*
X309989Y267411D01*
X309897Y267365D01*
X309786Y267309D01*
X309656Y267245D01*
X309518Y267180D01*
X309379Y267115D01*
X309240Y267060D01*
Y267818D01*
X309249D01*
X309268Y267836D01*
X309305Y267845D01*
X309351Y267873D01*
X309407Y267901D01*
X309471Y267938D01*
X309629Y268030D01*
X309813Y268132D01*
X309998Y268262D01*
X310193Y268410D01*
X310387Y268567D01*
X310396Y268576D01*
X310405Y268585D01*
X310433Y268613D01*
X310470Y268641D01*
X310553Y268733D01*
X310664Y268844D01*
X310775Y268974D01*
X310895Y269121D01*
X310997Y269269D01*
X311089Y269426D01*
X311598D01*
Y263001D01*
D02*
G37*
%LPC*%
G36*
X552454Y456083D02*
X550439Y453217D01*
X552454D01*
Y456083D01*
D02*
G37*
%LPD*%
D10*
X143670Y142790D02*
X163670D01*
Y179790D01*
X143670D02*
X163670D01*
X143670Y142790D02*
Y179790D01*
X500060Y487350D02*
X587060D01*
Y414350D02*
Y487350D01*
X500060Y414350D02*
X587060D01*
X500060D02*
Y487350D01*
X502600Y293040D02*
X589600D01*
Y220040D02*
Y293040D01*
X502600Y220040D02*
X589600D01*
X502600D02*
Y293040D01*
X268920Y489890D02*
X355920D01*
Y416890D02*
Y489890D01*
X268920Y416890D02*
X355920D01*
X268920D02*
Y489890D01*
X258760Y299390D02*
X345760D01*
Y226390D02*
Y299390D01*
X258760Y226390D02*
X345760D01*
X258760D02*
Y299390D01*
M02*
