G04*
G04 #@! TF.GenerationSoftware,Altium Limited,Altium Designer,22.5.1 (42)*
G04*
G04 Layer_Color=255*
%FSLAX44Y44*%
%MOMM*%
G71*
G04*
G04 #@! TF.SameCoordinates,CA0BB6C5-CFA1-4992-A8A9-7B9ED42510D7*
G04*
G04*
G04 #@! TF.FilePolarity,Positive*
G04*
G01*
G75*
%ADD16R,1.5500X1.3500*%
%ADD17R,0.9000X0.9500*%
%ADD18R,1.8000X1.0000*%
%ADD19R,1.3500X1.5500*%
%ADD20R,3.2000X1.6000*%
%ADD35C,1.5000*%
%ADD36R,1.5000X1.5000*%
G04:AMPARAMS|DCode=37|XSize=1.95mm|YSize=1.95mm|CornerRadius=0.4875mm|HoleSize=0mm|Usage=FLASHONLY|Rotation=90.000|XOffset=0mm|YOffset=0mm|HoleType=Round|Shape=RoundedRectangle|*
%AMROUNDEDRECTD37*
21,1,1.9500,0.9750,0,0,90.0*
21,1,0.9750,1.9500,0,0,90.0*
1,1,0.9750,0.4875,0.4875*
1,1,0.9750,0.4875,-0.4875*
1,1,0.9750,-0.4875,-0.4875*
1,1,0.9750,-0.4875,0.4875*
%
%ADD37ROUNDEDRECTD37*%
%ADD38C,1.9500*%
%ADD39R,1.5000X1.5000*%
%ADD40R,1.5080X1.5080*%
%ADD41C,1.5080*%
%ADD42C,3.5160*%
D16*
X953770Y49346D02*
D03*
Y29846D02*
D03*
Y96336D02*
D03*
Y76836D02*
D03*
D17*
X386840Y148590D02*
D03*
X418340D02*
D03*
X167130Y110490D02*
D03*
X198630D02*
D03*
D18*
X153670Y173790D02*
D03*
Y148790D02*
D03*
D19*
X528770Y355600D02*
D03*
X509270D02*
D03*
X535120Y152400D02*
D03*
X515620D02*
D03*
X293820Y356870D02*
D03*
X274320D02*
D03*
X300580Y161290D02*
D03*
X281080D02*
D03*
D20*
X518560Y450850D02*
D03*
X568560D02*
D03*
X521100Y256540D02*
D03*
X571100D02*
D03*
X287420Y453390D02*
D03*
X337420D02*
D03*
X277260Y262890D02*
D03*
X327260D02*
D03*
D35*
X962660Y594360D02*
D03*
X988060D02*
D03*
X962660Y568960D02*
D03*
X988060D02*
D03*
X962660Y543560D02*
D03*
X988060D02*
D03*
X962660Y518160D02*
D03*
X988060D02*
D03*
X962660Y492760D02*
D03*
X988060D02*
D03*
X962660Y467360D02*
D03*
X988060D02*
D03*
X962660Y441960D02*
D03*
X988060D02*
D03*
X962660Y416560D02*
D03*
X988060D02*
D03*
X962660Y391160D02*
D03*
X988060D02*
D03*
X962660Y365760D02*
D03*
X988060D02*
D03*
X962660Y340360D02*
D03*
X988060D02*
D03*
X962660Y314960D02*
D03*
X988060D02*
D03*
X962660Y289560D02*
D03*
X988060D02*
D03*
X962660Y264160D02*
D03*
X988060D02*
D03*
X962660Y238760D02*
D03*
X988060D02*
D03*
X962660Y213360D02*
D03*
X988060D02*
D03*
X962660Y187960D02*
D03*
X988060D02*
D03*
X962660Y162560D02*
D03*
X764540Y335280D02*
D03*
Y309880D02*
D03*
Y284480D02*
D03*
X735330Y40640D02*
D03*
X760730D02*
D03*
X786130D02*
D03*
X811530D02*
D03*
X836930D02*
D03*
X862330D02*
D03*
X887730D02*
D03*
X232410Y642620D02*
D03*
X257810D02*
D03*
X283210D02*
D03*
X308610D02*
D03*
X334010D02*
D03*
X359410D02*
D03*
X384810D02*
D03*
X326390Y36830D02*
D03*
X351790D02*
D03*
X377190D02*
D03*
X402590D02*
D03*
X427990D02*
D03*
X445770Y643890D02*
D03*
X471170D02*
D03*
X496570D02*
D03*
X521970D02*
D03*
X547370D02*
D03*
X572770D02*
D03*
X598170D02*
D03*
X673100D02*
D03*
X698500D02*
D03*
X723900D02*
D03*
X749300D02*
D03*
X774700D02*
D03*
X800100D02*
D03*
X825500D02*
D03*
X500380Y39370D02*
D03*
X525780D02*
D03*
X551180D02*
D03*
X576580D02*
D03*
X601980D02*
D03*
X627380D02*
D03*
X652780D02*
D03*
X621030Y273050D02*
D03*
X646430Y247650D02*
D03*
Y273050D02*
D03*
X671830Y247650D02*
D03*
Y273050D02*
D03*
X542290Y322580D02*
D03*
X567690D02*
D03*
X593090D02*
D03*
X618490D02*
D03*
X643890D02*
D03*
X669290D02*
D03*
X694690D02*
D03*
X542290Y195580D02*
D03*
X567690D02*
D03*
X593090D02*
D03*
X618490D02*
D03*
X643890D02*
D03*
X669290D02*
D03*
X694690D02*
D03*
X392430Y462280D02*
D03*
X417830Y436880D02*
D03*
Y462280D02*
D03*
X443230Y436880D02*
D03*
Y462280D02*
D03*
X300990Y519430D02*
D03*
X326390D02*
D03*
X351790D02*
D03*
X377190D02*
D03*
X402590D02*
D03*
X427990D02*
D03*
X453390D02*
D03*
X300990Y392430D02*
D03*
X326390D02*
D03*
X351790D02*
D03*
X377190D02*
D03*
X402590D02*
D03*
X427990D02*
D03*
X453390D02*
D03*
X383540Y270510D02*
D03*
X408940Y245110D02*
D03*
Y270510D02*
D03*
X434340Y245110D02*
D03*
Y270510D02*
D03*
X304800Y323850D02*
D03*
X330200D02*
D03*
X355600D02*
D03*
X381000D02*
D03*
X406400D02*
D03*
X431800D02*
D03*
X457200D02*
D03*
X304800Y196850D02*
D03*
X330200D02*
D03*
X355600D02*
D03*
X381000D02*
D03*
X406400D02*
D03*
X431800D02*
D03*
X457200D02*
D03*
X764540Y447040D02*
D03*
Y421640D02*
D03*
Y396240D02*
D03*
Y222250D02*
D03*
Y196850D02*
D03*
Y171450D02*
D03*
Y556260D02*
D03*
Y530860D02*
D03*
Y505460D02*
D03*
X619760Y463550D02*
D03*
X645160Y438150D02*
D03*
Y463550D02*
D03*
X670560Y438150D02*
D03*
Y463550D02*
D03*
X541020Y518160D02*
D03*
X566420D02*
D03*
X591820D02*
D03*
X617220D02*
D03*
X642620D02*
D03*
X668020D02*
D03*
X693420D02*
D03*
X541020Y391160D02*
D03*
X566420D02*
D03*
X591820D02*
D03*
X617220D02*
D03*
X642620D02*
D03*
X668020D02*
D03*
X693420D02*
D03*
X726440Y110490D02*
D03*
X751840D02*
D03*
X777240D02*
D03*
X802640D02*
D03*
X828040D02*
D03*
X853440D02*
D03*
X878840D02*
D03*
X231140Y593090D02*
D03*
X256540D02*
D03*
X281940D02*
D03*
X307340D02*
D03*
X332740D02*
D03*
X358140D02*
D03*
X383540D02*
D03*
X839470Y161290D02*
D03*
X864870Y186690D02*
D03*
X839470D02*
D03*
X864870Y212090D02*
D03*
X839470D02*
D03*
X864870Y237490D02*
D03*
X839470D02*
D03*
X864870Y262890D02*
D03*
X839470D02*
D03*
X864870Y288290D02*
D03*
X839470D02*
D03*
X864870Y313690D02*
D03*
X839470D02*
D03*
X864870Y339090D02*
D03*
X839470D02*
D03*
Y530860D02*
D03*
X864870D02*
D03*
X839470Y505460D02*
D03*
X864870D02*
D03*
X839470Y480060D02*
D03*
X864870D02*
D03*
X839470Y454660D02*
D03*
X864870D02*
D03*
X839470Y429260D02*
D03*
X864870D02*
D03*
X839470Y403860D02*
D03*
X320040Y110490D02*
D03*
X345440D02*
D03*
X370840D02*
D03*
X396240D02*
D03*
X421640D02*
D03*
X447040Y593090D02*
D03*
X472440D02*
D03*
X497840D02*
D03*
X523240D02*
D03*
X548640D02*
D03*
X574040D02*
D03*
X599440D02*
D03*
X675640D02*
D03*
X701040D02*
D03*
X726440D02*
D03*
X751840D02*
D03*
X777240D02*
D03*
X802640D02*
D03*
X828040D02*
D03*
X497840Y110490D02*
D03*
X523240D02*
D03*
X548640D02*
D03*
X574040D02*
D03*
X599440D02*
D03*
X624840D02*
D03*
X650240D02*
D03*
X292100Y71120D02*
D03*
X317500D02*
D03*
X342900D02*
D03*
X368300D02*
D03*
X393700D02*
D03*
X419100D02*
D03*
X444500D02*
D03*
X582930Y72390D02*
D03*
X557530D02*
D03*
X532130D02*
D03*
X982980Y661670D02*
D03*
X957580D02*
D03*
X932180D02*
D03*
X742950Y73660D02*
D03*
X920750D02*
D03*
X895350D02*
D03*
X869950D02*
D03*
X844550D02*
D03*
X819150D02*
D03*
X793750D02*
D03*
X768350D02*
D03*
X717550D02*
D03*
X985520Y59690D02*
D03*
Y85090D02*
D03*
Y110490D02*
D03*
X904240Y161290D02*
D03*
X929640Y186690D02*
D03*
X904240D02*
D03*
X929640Y212090D02*
D03*
X904240D02*
D03*
X929640Y237490D02*
D03*
X904240D02*
D03*
X929640Y262890D02*
D03*
X904240D02*
D03*
X929640Y288290D02*
D03*
X904240D02*
D03*
X929640Y313690D02*
D03*
X904240D02*
D03*
X929640Y339090D02*
D03*
X904240D02*
D03*
X929640Y364490D02*
D03*
X904240D02*
D03*
X929640Y389890D02*
D03*
X904240D02*
D03*
X929640Y415290D02*
D03*
X904240D02*
D03*
X929640Y440690D02*
D03*
X904240D02*
D03*
X929640Y466090D02*
D03*
X904240D02*
D03*
X929640Y491490D02*
D03*
X904240D02*
D03*
X929640Y516890D02*
D03*
X904240D02*
D03*
X929640Y542290D02*
D03*
X904240D02*
D03*
X929640Y567690D02*
D03*
X904240D02*
D03*
X929640Y593090D02*
D03*
X904240D02*
D03*
X1022350Y187960D02*
D03*
Y213360D02*
D03*
Y238760D02*
D03*
Y264160D02*
D03*
Y289560D02*
D03*
Y314960D02*
D03*
Y340360D02*
D03*
Y365760D02*
D03*
Y391160D02*
D03*
Y416560D02*
D03*
Y441960D02*
D03*
Y467360D02*
D03*
Y492760D02*
D03*
Y518160D02*
D03*
Y543560D02*
D03*
Y568960D02*
D03*
Y594360D02*
D03*
X201930Y176530D02*
D03*
X149110Y25760D02*
D03*
X214110D02*
D03*
Y70760D02*
D03*
D36*
X988060Y162560D02*
D03*
X764540Y259080D02*
D03*
Y370840D02*
D03*
Y146050D02*
D03*
Y480060D02*
D03*
X864870Y161290D02*
D03*
Y403860D02*
D03*
X985520Y34290D02*
D03*
X929640Y161290D02*
D03*
X1022350Y162560D02*
D03*
X201930Y151130D02*
D03*
D37*
X90630Y98070D02*
D03*
D38*
Y133070D02*
D03*
D39*
X709930Y40640D02*
D03*
X207010Y642620D02*
D03*
X300990Y36830D02*
D03*
X420370Y643890D02*
D03*
X647700D02*
D03*
X474980Y39370D02*
D03*
X621030Y247650D02*
D03*
X516890Y322580D02*
D03*
Y195580D02*
D03*
X392430Y436880D02*
D03*
X275590Y519430D02*
D03*
Y392430D02*
D03*
X383540Y245110D02*
D03*
X279400Y323850D02*
D03*
Y196850D02*
D03*
X619760Y438150D02*
D03*
X515620Y518160D02*
D03*
Y391160D02*
D03*
X701040Y110490D02*
D03*
X205740Y593090D02*
D03*
X294640Y110490D02*
D03*
X421640Y593090D02*
D03*
X650240D02*
D03*
X472440Y110490D02*
D03*
X266700Y71120D02*
D03*
X506730Y72390D02*
D03*
X906780Y661670D02*
D03*
X692150Y73660D02*
D03*
X149110Y70760D02*
D03*
D40*
X41910Y511810D02*
D03*
D41*
Y486410D02*
D03*
Y461010D02*
D03*
Y435610D02*
D03*
Y410210D02*
D03*
Y384810D02*
D03*
Y359410D02*
D03*
Y334010D02*
D03*
Y308610D02*
D03*
Y283210D02*
D03*
Y257810D02*
D03*
Y232410D02*
D03*
X194310D02*
D03*
Y257810D02*
D03*
Y283210D02*
D03*
Y308610D02*
D03*
Y334010D02*
D03*
Y359410D02*
D03*
Y384810D02*
D03*
Y410210D02*
D03*
Y435610D02*
D03*
Y461010D02*
D03*
Y486410D02*
D03*
Y511810D02*
D03*
D42*
X118110Y499110D02*
D03*
Y245110D02*
D03*
M02*
