G04*
G04 #@! TF.GenerationSoftware,Altium Limited,Altium Designer,22.5.1 (42)*
G04*
G04 Layer_Color=128*
%FSLAX44Y44*%
%MOMM*%
G71*
G04*
G04 #@! TF.SameCoordinates,CA0BB6C5-CFA1-4992-A8A9-7B9ED42510D7*
G04*
G04*
G04 #@! TF.FilePolarity,Positive*
G04*
G01*
G75*
%ADD48C,0.0508*%
D48*
X958160Y594360D02*
X967160D01*
X962660Y589860D02*
Y598860D01*
X983560Y594360D02*
X992560D01*
X988060Y589860D02*
Y598860D01*
X958160Y568960D02*
X967160D01*
X962660Y564460D02*
Y573460D01*
X983560Y568960D02*
X992560D01*
X988060Y564460D02*
Y573460D01*
X958160Y543560D02*
X967160D01*
X962660Y539060D02*
Y548060D01*
X983560Y543560D02*
X992560D01*
X988060Y539060D02*
Y548060D01*
X958160Y518160D02*
X967160D01*
X962660Y513660D02*
Y522660D01*
X983560Y518160D02*
X992560D01*
X988060Y513660D02*
Y522660D01*
X958160Y492760D02*
X967160D01*
X962660Y488260D02*
Y497260D01*
X983560Y492760D02*
X992560D01*
X988060Y488260D02*
Y497260D01*
X958160Y467360D02*
X967160D01*
X962660Y462860D02*
Y471860D01*
X983560Y467360D02*
X992560D01*
X988060Y462860D02*
Y471860D01*
X958160Y441960D02*
X967160D01*
X962660Y437460D02*
Y446460D01*
X983560Y441960D02*
X992560D01*
X988060Y437460D02*
Y446460D01*
X958160Y416560D02*
X967160D01*
X962660Y412060D02*
Y421060D01*
X983560Y416560D02*
X992560D01*
X988060Y412060D02*
Y421060D01*
X958160Y391160D02*
X967160D01*
X962660Y386660D02*
Y395660D01*
X983560Y391160D02*
X992560D01*
X988060Y386660D02*
Y395660D01*
X958160Y365760D02*
X967160D01*
X962660Y361260D02*
Y370260D01*
X983560Y365760D02*
X992560D01*
X988060Y361260D02*
Y370260D01*
X958160Y340360D02*
X967160D01*
X962660Y335860D02*
Y344860D01*
X983560Y340360D02*
X992560D01*
X988060Y335860D02*
Y344860D01*
X958160Y314960D02*
X967160D01*
X962660Y310460D02*
Y319460D01*
X983560Y314960D02*
X992560D01*
X988060Y310460D02*
Y319460D01*
X958160Y289560D02*
X967160D01*
X962660Y285060D02*
Y294060D01*
X983560Y289560D02*
X992560D01*
X988060Y285060D02*
Y294060D01*
X958160Y264160D02*
X967160D01*
X962660Y259660D02*
Y268660D01*
X983560Y264160D02*
X992560D01*
X988060Y259660D02*
Y268660D01*
X958160Y238760D02*
X967160D01*
X962660Y234260D02*
Y243260D01*
X983560Y238760D02*
X992560D01*
X988060Y234260D02*
Y243260D01*
X958160Y213360D02*
X967160D01*
X962660Y208860D02*
Y217860D01*
X983560Y213360D02*
X992560D01*
X988060Y208860D02*
Y217860D01*
X958160Y187960D02*
X967160D01*
X962660Y183460D02*
Y192460D01*
X983560Y187960D02*
X992560D01*
X988060Y183460D02*
Y192460D01*
X958160Y162560D02*
X967160D01*
X962660Y158060D02*
Y167060D01*
X983560Y162560D02*
X992560D01*
X988060Y158060D02*
Y167060D01*
X760040Y335280D02*
X769040D01*
X764540Y330780D02*
Y339780D01*
X760040Y309880D02*
X769040D01*
X764540Y305380D02*
Y314380D01*
X760040Y284480D02*
X769040D01*
X764540Y279980D02*
Y288980D01*
X760040Y259080D02*
X769040D01*
X764540Y254580D02*
Y263580D01*
X84130Y98070D02*
X97130D01*
X90630Y91570D02*
Y104570D01*
X84130Y133070D02*
X97130D01*
X90630Y126570D02*
Y139570D01*
X705430Y40640D02*
X714430D01*
X709930Y36140D02*
Y45140D01*
X730830Y40640D02*
X739830D01*
X735330Y36140D02*
Y45140D01*
X756230Y40640D02*
X765230D01*
X760730Y36140D02*
Y45140D01*
X781630Y40640D02*
X790630D01*
X786130Y36140D02*
Y45140D01*
X807030Y40640D02*
X816030D01*
X811530Y36140D02*
Y45140D01*
X832430Y40640D02*
X841430D01*
X836930Y36140D02*
Y45140D01*
X857830Y40640D02*
X866830D01*
X862330Y36140D02*
Y45140D01*
X883230Y40640D02*
X892230D01*
X887730Y36140D02*
Y45140D01*
X202510Y642620D02*
X211510D01*
X207010Y638120D02*
Y647120D01*
X227910Y642620D02*
X236910D01*
X232410Y638120D02*
Y647120D01*
X253310Y642620D02*
X262310D01*
X257810Y638120D02*
Y647120D01*
X278710Y642620D02*
X287710D01*
X283210Y638120D02*
Y647120D01*
X304110Y642620D02*
X313110D01*
X308610Y638120D02*
Y647120D01*
X329510Y642620D02*
X338510D01*
X334010Y638120D02*
Y647120D01*
X354910Y642620D02*
X363910D01*
X359410Y638120D02*
Y647120D01*
X380310Y642620D02*
X389310D01*
X384810Y638120D02*
Y647120D01*
X296490Y36830D02*
X305490D01*
X300990Y32330D02*
Y41330D01*
X321890Y36830D02*
X330890D01*
X326390Y32330D02*
Y41330D01*
X347290Y36830D02*
X356290D01*
X351790Y32330D02*
Y41330D01*
X372690Y36830D02*
X381690D01*
X377190Y32330D02*
Y41330D01*
X398090Y36830D02*
X407090D01*
X402590Y32330D02*
Y41330D01*
X423490Y36830D02*
X432490D01*
X427990Y32330D02*
Y41330D01*
X415870Y643890D02*
X424870D01*
X420370Y639390D02*
Y648390D01*
X441270Y643890D02*
X450270D01*
X445770Y639390D02*
Y648390D01*
X466670Y643890D02*
X475670D01*
X471170Y639390D02*
Y648390D01*
X492070Y643890D02*
X501070D01*
X496570Y639390D02*
Y648390D01*
X517470Y643890D02*
X526470D01*
X521970Y639390D02*
Y648390D01*
X542870Y643890D02*
X551870D01*
X547370Y639390D02*
Y648390D01*
X568270Y643890D02*
X577270D01*
X572770Y639390D02*
Y648390D01*
X593670Y643890D02*
X602670D01*
X598170Y639390D02*
Y648390D01*
X643200Y643890D02*
X652200D01*
X647700Y639390D02*
Y648390D01*
X668600Y643890D02*
X677600D01*
X673100Y639390D02*
Y648390D01*
X694000Y643890D02*
X703000D01*
X698500Y639390D02*
Y648390D01*
X719400Y643890D02*
X728400D01*
X723900Y639390D02*
Y648390D01*
X744800Y643890D02*
X753800D01*
X749300Y639390D02*
Y648390D01*
X770200Y643890D02*
X779200D01*
X774700Y639390D02*
Y648390D01*
X795600Y643890D02*
X804600D01*
X800100Y639390D02*
Y648390D01*
X821000Y643890D02*
X830000D01*
X825500Y639390D02*
Y648390D01*
X470480Y39370D02*
X479480D01*
X474980Y34870D02*
Y43870D01*
X495880Y39370D02*
X504880D01*
X500380Y34870D02*
Y43870D01*
X521280Y39370D02*
X530280D01*
X525780Y34870D02*
Y43870D01*
X546680Y39370D02*
X555680D01*
X551180Y34870D02*
Y43870D01*
X572080Y39370D02*
X581080D01*
X576580Y34870D02*
Y43870D01*
X597480Y39370D02*
X606480D01*
X601980Y34870D02*
Y43870D01*
X622880Y39370D02*
X631880D01*
X627380Y34870D02*
Y43870D01*
X648280Y39370D02*
X657280D01*
X652780Y34870D02*
Y43870D01*
X616530Y247650D02*
X625530D01*
X621030Y243150D02*
Y252150D01*
X616530Y273050D02*
X625530D01*
X621030Y268550D02*
Y277550D01*
X641930Y247650D02*
X650930D01*
X646430Y243150D02*
Y252150D01*
X641930Y273050D02*
X650930D01*
X646430Y268550D02*
Y277550D01*
X667330Y247650D02*
X676330D01*
X671830Y243150D02*
Y252150D01*
X667330Y273050D02*
X676330D01*
X671830Y268550D02*
Y277550D01*
X512390Y322580D02*
X521390D01*
X516890Y318080D02*
Y327080D01*
X537790Y322580D02*
X546790D01*
X542290Y318080D02*
Y327080D01*
X563190Y322580D02*
X572190D01*
X567690Y318080D02*
Y327080D01*
X588590Y322580D02*
X597590D01*
X593090Y318080D02*
Y327080D01*
X613990Y322580D02*
X622990D01*
X618490Y318080D02*
Y327080D01*
X639390Y322580D02*
X648390D01*
X643890Y318080D02*
Y327080D01*
X664790Y322580D02*
X673790D01*
X669290Y318080D02*
Y327080D01*
X690190Y322580D02*
X699190D01*
X694690Y318080D02*
Y327080D01*
X512390Y195580D02*
X521390D01*
X516890Y191080D02*
Y200080D01*
X537790Y195580D02*
X546790D01*
X542290Y191080D02*
Y200080D01*
X563190Y195580D02*
X572190D01*
X567690Y191080D02*
Y200080D01*
X588590Y195580D02*
X597590D01*
X593090Y191080D02*
Y200080D01*
X613990Y195580D02*
X622990D01*
X618490Y191080D02*
Y200080D01*
X639390Y195580D02*
X648390D01*
X643890Y191080D02*
Y200080D01*
X664790Y195580D02*
X673790D01*
X669290Y191080D02*
Y200080D01*
X690190Y195580D02*
X699190D01*
X694690Y191080D02*
Y200080D01*
X387930Y436880D02*
X396930D01*
X392430Y432380D02*
Y441380D01*
X387930Y462280D02*
X396930D01*
X392430Y457780D02*
Y466780D01*
X413330Y436880D02*
X422330D01*
X417830Y432380D02*
Y441380D01*
X413330Y462280D02*
X422330D01*
X417830Y457780D02*
Y466780D01*
X438730Y436880D02*
X447730D01*
X443230Y432380D02*
Y441380D01*
X438730Y462280D02*
X447730D01*
X443230Y457780D02*
Y466780D01*
X271090Y519430D02*
X280090D01*
X275590Y514930D02*
Y523930D01*
X296490Y519430D02*
X305490D01*
X300990Y514930D02*
Y523930D01*
X321890Y519430D02*
X330890D01*
X326390Y514930D02*
Y523930D01*
X347290Y519430D02*
X356290D01*
X351790Y514930D02*
Y523930D01*
X372690Y519430D02*
X381690D01*
X377190Y514930D02*
Y523930D01*
X398090Y519430D02*
X407090D01*
X402590Y514930D02*
Y523930D01*
X423490Y519430D02*
X432490D01*
X427990Y514930D02*
Y523930D01*
X448890Y519430D02*
X457890D01*
X453390Y514930D02*
Y523930D01*
X271090Y392430D02*
X280090D01*
X275590Y387930D02*
Y396930D01*
X296490Y392430D02*
X305490D01*
X300990Y387930D02*
Y396930D01*
X321890Y392430D02*
X330890D01*
X326390Y387930D02*
Y396930D01*
X347290Y392430D02*
X356290D01*
X351790Y387930D02*
Y396930D01*
X372690Y392430D02*
X381690D01*
X377190Y387930D02*
Y396930D01*
X398090Y392430D02*
X407090D01*
X402590Y387930D02*
Y396930D01*
X423490Y392430D02*
X432490D01*
X427990Y387930D02*
Y396930D01*
X448890Y392430D02*
X457890D01*
X453390Y387930D02*
Y396930D01*
X379040Y245110D02*
X388040D01*
X383540Y240610D02*
Y249610D01*
X379040Y270510D02*
X388040D01*
X383540Y266010D02*
Y275010D01*
X404440Y245110D02*
X413440D01*
X408940Y240610D02*
Y249610D01*
X404440Y270510D02*
X413440D01*
X408940Y266010D02*
Y275010D01*
X429840Y245110D02*
X438840D01*
X434340Y240610D02*
Y249610D01*
X429840Y270510D02*
X438840D01*
X434340Y266010D02*
Y275010D01*
X274900Y323850D02*
X283900D01*
X279400Y319350D02*
Y328350D01*
X300300Y323850D02*
X309300D01*
X304800Y319350D02*
Y328350D01*
X325700Y323850D02*
X334700D01*
X330200Y319350D02*
Y328350D01*
X351100Y323850D02*
X360100D01*
X355600Y319350D02*
Y328350D01*
X376500Y323850D02*
X385500D01*
X381000Y319350D02*
Y328350D01*
X401900Y323850D02*
X410900D01*
X406400Y319350D02*
Y328350D01*
X427300Y323850D02*
X436300D01*
X431800Y319350D02*
Y328350D01*
X452700Y323850D02*
X461700D01*
X457200Y319350D02*
Y328350D01*
X274900Y196850D02*
X283900D01*
X279400Y192350D02*
Y201350D01*
X300300Y196850D02*
X309300D01*
X304800Y192350D02*
Y201350D01*
X325700Y196850D02*
X334700D01*
X330200Y192350D02*
Y201350D01*
X351100Y196850D02*
X360100D01*
X355600Y192350D02*
Y201350D01*
X376500Y196850D02*
X385500D01*
X381000Y192350D02*
Y201350D01*
X401900Y196850D02*
X410900D01*
X406400Y192350D02*
Y201350D01*
X427300Y196850D02*
X436300D01*
X431800Y192350D02*
Y201350D01*
X452700Y196850D02*
X461700D01*
X457200Y192350D02*
Y201350D01*
X760040Y447040D02*
X769040D01*
X764540Y442540D02*
Y451540D01*
X760040Y421640D02*
X769040D01*
X764540Y417140D02*
Y426140D01*
X760040Y396240D02*
X769040D01*
X764540Y391740D02*
Y400740D01*
X760040Y370840D02*
X769040D01*
X764540Y366340D02*
Y375340D01*
X760040Y222250D02*
X769040D01*
X764540Y217750D02*
Y226750D01*
X760040Y196850D02*
X769040D01*
X764540Y192350D02*
Y201350D01*
X760040Y171450D02*
X769040D01*
X764540Y166950D02*
Y175950D01*
X760040Y146050D02*
X769040D01*
X764540Y141550D02*
Y150550D01*
X760040Y556260D02*
X769040D01*
X764540Y551760D02*
Y560760D01*
X760040Y530860D02*
X769040D01*
X764540Y526360D02*
Y535360D01*
X760040Y505460D02*
X769040D01*
X764540Y500960D02*
Y509960D01*
X760040Y480060D02*
X769040D01*
X764540Y475560D02*
Y484560D01*
X615260Y438150D02*
X624260D01*
X619760Y433650D02*
Y442650D01*
X615260Y463550D02*
X624260D01*
X619760Y459050D02*
Y468050D01*
X640660Y438150D02*
X649660D01*
X645160Y433650D02*
Y442650D01*
X640660Y463550D02*
X649660D01*
X645160Y459050D02*
Y468050D01*
X666060Y438150D02*
X675060D01*
X670560Y433650D02*
Y442650D01*
X666060Y463550D02*
X675060D01*
X670560Y459050D02*
Y468050D01*
X511120Y518160D02*
X520120D01*
X515620Y513660D02*
Y522660D01*
X536520Y518160D02*
X545520D01*
X541020Y513660D02*
Y522660D01*
X561920Y518160D02*
X570920D01*
X566420Y513660D02*
Y522660D01*
X587320Y518160D02*
X596320D01*
X591820Y513660D02*
Y522660D01*
X612720Y518160D02*
X621720D01*
X617220Y513660D02*
Y522660D01*
X638120Y518160D02*
X647120D01*
X642620Y513660D02*
Y522660D01*
X663520Y518160D02*
X672520D01*
X668020Y513660D02*
Y522660D01*
X688920Y518160D02*
X697920D01*
X693420Y513660D02*
Y522660D01*
X511120Y391160D02*
X520120D01*
X515620Y386660D02*
Y395660D01*
X536520Y391160D02*
X545520D01*
X541020Y386660D02*
Y395660D01*
X561920Y391160D02*
X570920D01*
X566420Y386660D02*
Y395660D01*
X587320Y391160D02*
X596320D01*
X591820Y386660D02*
Y395660D01*
X612720Y391160D02*
X621720D01*
X617220Y386660D02*
Y395660D01*
X638120Y391160D02*
X647120D01*
X642620Y386660D02*
Y395660D01*
X663520Y391160D02*
X672520D01*
X668020Y386660D02*
Y395660D01*
X688920Y391160D02*
X697920D01*
X693420Y386660D02*
Y395660D01*
X36910Y511810D02*
X46910D01*
X41910Y506810D02*
Y516810D01*
X36910Y486410D02*
X46910D01*
X41910Y481410D02*
Y491410D01*
X36910Y461010D02*
X46910D01*
X41910Y456010D02*
Y466010D01*
X36910Y435610D02*
X46910D01*
X41910Y430610D02*
Y440610D01*
X36910Y410210D02*
X46910D01*
X41910Y405210D02*
Y415210D01*
X36910Y384810D02*
X46910D01*
X41910Y379810D02*
Y389810D01*
X36910Y359410D02*
X46910D01*
X41910Y354410D02*
Y364410D01*
X36910Y334010D02*
X46910D01*
X41910Y329010D02*
Y339010D01*
X36910Y308610D02*
X46910D01*
X41910Y303610D02*
Y313610D01*
X36910Y283210D02*
X46910D01*
X41910Y278210D02*
Y288210D01*
X36910Y257810D02*
X46910D01*
X41910Y252810D02*
Y262810D01*
X36910Y232410D02*
X46910D01*
X41910Y227410D02*
Y237410D01*
X189310Y232410D02*
X199310D01*
X194310Y227410D02*
Y237410D01*
X189310Y257810D02*
X199310D01*
X194310Y252810D02*
Y262810D01*
X189310Y283210D02*
X199310D01*
X194310Y278210D02*
Y288210D01*
X189310Y308610D02*
X199310D01*
X194310Y303610D02*
Y313610D01*
X189310Y334010D02*
X199310D01*
X194310Y329010D02*
Y339010D01*
X189310Y359410D02*
X199310D01*
X194310Y354410D02*
Y364410D01*
X189310Y384810D02*
X199310D01*
X194310Y379810D02*
Y389810D01*
X189310Y410210D02*
X199310D01*
X194310Y405210D02*
Y415210D01*
X189310Y435610D02*
X199310D01*
X194310Y430610D02*
Y440610D01*
X189310Y461010D02*
X199310D01*
X194310Y456010D02*
Y466010D01*
X189310Y486410D02*
X199310D01*
X194310Y481410D02*
Y491410D01*
X189310Y511810D02*
X199310D01*
X194310Y506810D02*
Y516810D01*
X105610Y499110D02*
X130610D01*
X118110Y486610D02*
Y511610D01*
X105610Y245110D02*
X130610D01*
X118110Y232610D02*
Y257610D01*
X696540Y110490D02*
X705540D01*
X701040Y105990D02*
Y114990D01*
X721940Y110490D02*
X730940D01*
X726440Y105990D02*
Y114990D01*
X747340Y110490D02*
X756340D01*
X751840Y105990D02*
Y114990D01*
X772740Y110490D02*
X781740D01*
X777240Y105990D02*
Y114990D01*
X798140Y110490D02*
X807140D01*
X802640Y105990D02*
Y114990D01*
X823540Y110490D02*
X832540D01*
X828040Y105990D02*
Y114990D01*
X848940Y110490D02*
X857940D01*
X853440Y105990D02*
Y114990D01*
X874340Y110490D02*
X883340D01*
X878840Y105990D02*
Y114990D01*
X201240Y593090D02*
X210240D01*
X205740Y588590D02*
Y597590D01*
X226640Y593090D02*
X235640D01*
X231140Y588590D02*
Y597590D01*
X252040Y593090D02*
X261040D01*
X256540Y588590D02*
Y597590D01*
X277440Y593090D02*
X286440D01*
X281940Y588590D02*
Y597590D01*
X302840Y593090D02*
X311840D01*
X307340Y588590D02*
Y597590D01*
X328240Y593090D02*
X337240D01*
X332740Y588590D02*
Y597590D01*
X353640Y593090D02*
X362640D01*
X358140Y588590D02*
Y597590D01*
X379040Y593090D02*
X388040D01*
X383540Y588590D02*
Y597590D01*
X860370Y161290D02*
X869370D01*
X864870Y156790D02*
Y165790D01*
X834970Y161290D02*
X843970D01*
X839470Y156790D02*
Y165790D01*
X860370Y186690D02*
X869370D01*
X864870Y182190D02*
Y191190D01*
X834970Y186690D02*
X843970D01*
X839470Y182190D02*
Y191190D01*
X860370Y212090D02*
X869370D01*
X864870Y207590D02*
Y216590D01*
X834970Y212090D02*
X843970D01*
X839470Y207590D02*
Y216590D01*
X860370Y237490D02*
X869370D01*
X864870Y232990D02*
Y241990D01*
X834970Y237490D02*
X843970D01*
X839470Y232990D02*
Y241990D01*
X860370Y262890D02*
X869370D01*
X864870Y258390D02*
Y267390D01*
X834970Y262890D02*
X843970D01*
X839470Y258390D02*
Y267390D01*
X860370Y288290D02*
X869370D01*
X864870Y283790D02*
Y292790D01*
X834970Y288290D02*
X843970D01*
X839470Y283790D02*
Y292790D01*
X860370Y313690D02*
X869370D01*
X864870Y309190D02*
Y318190D01*
X834970Y313690D02*
X843970D01*
X839470Y309190D02*
Y318190D01*
X860370Y339090D02*
X869370D01*
X864870Y334590D02*
Y343590D01*
X834970Y339090D02*
X843970D01*
X839470Y334590D02*
Y343590D01*
X834970Y530860D02*
X843970D01*
X839470Y526360D02*
Y535360D01*
X860370Y530860D02*
X869370D01*
X864870Y526360D02*
Y535360D01*
X834970Y505460D02*
X843970D01*
X839470Y500960D02*
Y509960D01*
X860370Y505460D02*
X869370D01*
X864870Y500960D02*
Y509960D01*
X834970Y480060D02*
X843970D01*
X839470Y475560D02*
Y484560D01*
X860370Y480060D02*
X869370D01*
X864870Y475560D02*
Y484560D01*
X834970Y454660D02*
X843970D01*
X839470Y450160D02*
Y459160D01*
X860370Y454660D02*
X869370D01*
X864870Y450160D02*
Y459160D01*
X834970Y429260D02*
X843970D01*
X839470Y424760D02*
Y433760D01*
X860370Y429260D02*
X869370D01*
X864870Y424760D02*
Y433760D01*
X834970Y403860D02*
X843970D01*
X839470Y399360D02*
Y408360D01*
X860370Y403860D02*
X869370D01*
X864870Y399360D02*
Y408360D01*
X290140Y110490D02*
X299140D01*
X294640Y105990D02*
Y114990D01*
X315540Y110490D02*
X324540D01*
X320040Y105990D02*
Y114990D01*
X340940Y110490D02*
X349940D01*
X345440Y105990D02*
Y114990D01*
X366340Y110490D02*
X375340D01*
X370840Y105990D02*
Y114990D01*
X391740Y110490D02*
X400740D01*
X396240Y105990D02*
Y114990D01*
X417140Y110490D02*
X426140D01*
X421640Y105990D02*
Y114990D01*
X417140Y593090D02*
X426140D01*
X421640Y588590D02*
Y597590D01*
X442540Y593090D02*
X451540D01*
X447040Y588590D02*
Y597590D01*
X467940Y593090D02*
X476940D01*
X472440Y588590D02*
Y597590D01*
X493340Y593090D02*
X502340D01*
X497840Y588590D02*
Y597590D01*
X518740Y593090D02*
X527740D01*
X523240Y588590D02*
Y597590D01*
X544140Y593090D02*
X553140D01*
X548640Y588590D02*
Y597590D01*
X569540Y593090D02*
X578540D01*
X574040Y588590D02*
Y597590D01*
X594940Y593090D02*
X603940D01*
X599440Y588590D02*
Y597590D01*
X645740Y593090D02*
X654740D01*
X650240Y588590D02*
Y597590D01*
X671140Y593090D02*
X680140D01*
X675640Y588590D02*
Y597590D01*
X696540Y593090D02*
X705540D01*
X701040Y588590D02*
Y597590D01*
X721940Y593090D02*
X730940D01*
X726440Y588590D02*
Y597590D01*
X747340Y593090D02*
X756340D01*
X751840Y588590D02*
Y597590D01*
X772740Y593090D02*
X781740D01*
X777240Y588590D02*
Y597590D01*
X798140Y593090D02*
X807140D01*
X802640Y588590D02*
Y597590D01*
X823540Y593090D02*
X832540D01*
X828040Y588590D02*
Y597590D01*
X467940Y110490D02*
X476940D01*
X472440Y105990D02*
Y114990D01*
X493340Y110490D02*
X502340D01*
X497840Y105990D02*
Y114990D01*
X518740Y110490D02*
X527740D01*
X523240Y105990D02*
Y114990D01*
X544140Y110490D02*
X553140D01*
X548640Y105990D02*
Y114990D01*
X569540Y110490D02*
X578540D01*
X574040Y105990D02*
Y114990D01*
X594940Y110490D02*
X603940D01*
X599440Y105990D02*
Y114990D01*
X620340Y110490D02*
X629340D01*
X624840Y105990D02*
Y114990D01*
X645740Y110490D02*
X654740D01*
X650240Y105990D02*
Y114990D01*
X262200Y71120D02*
X271200D01*
X266700Y66620D02*
Y75620D01*
X287600Y71120D02*
X296600D01*
X292100Y66620D02*
Y75620D01*
X313000Y71120D02*
X322000D01*
X317500Y66620D02*
Y75620D01*
X338400Y71120D02*
X347400D01*
X342900Y66620D02*
Y75620D01*
X363800Y71120D02*
X372800D01*
X368300Y66620D02*
Y75620D01*
X389200Y71120D02*
X398200D01*
X393700Y66620D02*
Y75620D01*
X414600Y71120D02*
X423600D01*
X419100Y66620D02*
Y75620D01*
X440000Y71120D02*
X449000D01*
X444500Y66620D02*
Y75620D01*
X578430Y72390D02*
X587430D01*
X582930Y67890D02*
Y76890D01*
X553030Y72390D02*
X562030D01*
X557530Y67890D02*
Y76890D01*
X527630Y72390D02*
X536630D01*
X532130Y67890D02*
Y76890D01*
X502230Y72390D02*
X511230D01*
X506730Y67890D02*
Y76890D01*
X978480Y661670D02*
X987480D01*
X982980Y657170D02*
Y666170D01*
X953080Y661670D02*
X962080D01*
X957580Y657170D02*
Y666170D01*
X927680Y661670D02*
X936680D01*
X932180Y657170D02*
Y666170D01*
X902280Y661670D02*
X911280D01*
X906780Y657170D02*
Y666170D01*
X738450Y73660D02*
X747450D01*
X742950Y69160D02*
Y78160D01*
X916250Y73660D02*
X925250D01*
X920750Y69160D02*
Y78160D01*
X890850Y73660D02*
X899850D01*
X895350Y69160D02*
Y78160D01*
X865450Y73660D02*
X874450D01*
X869950Y69160D02*
Y78160D01*
X840050Y73660D02*
X849050D01*
X844550Y69160D02*
Y78160D01*
X814650Y73660D02*
X823650D01*
X819150Y69160D02*
Y78160D01*
X789250Y73660D02*
X798250D01*
X793750Y69160D02*
Y78160D01*
X763850Y73660D02*
X772850D01*
X768350Y69160D02*
Y78160D01*
X713050Y73660D02*
X722050D01*
X717550Y69160D02*
Y78160D01*
X687650Y73660D02*
X696650D01*
X692150Y69160D02*
Y78160D01*
X981020Y34290D02*
X990020D01*
X985520Y29790D02*
Y38790D01*
X981020Y59690D02*
X990020D01*
X985520Y55190D02*
Y64190D01*
X981020Y85090D02*
X990020D01*
X985520Y80590D02*
Y89590D01*
X981020Y110490D02*
X990020D01*
X985520Y105990D02*
Y114990D01*
X925140Y161290D02*
X934140D01*
X929640Y156790D02*
Y165790D01*
X899740Y161290D02*
X908740D01*
X904240Y156790D02*
Y165790D01*
X925140Y186690D02*
X934140D01*
X929640Y182190D02*
Y191190D01*
X899740Y186690D02*
X908740D01*
X904240Y182190D02*
Y191190D01*
X925140Y212090D02*
X934140D01*
X929640Y207590D02*
Y216590D01*
X899740Y212090D02*
X908740D01*
X904240Y207590D02*
Y216590D01*
X925140Y237490D02*
X934140D01*
X929640Y232990D02*
Y241990D01*
X899740Y237490D02*
X908740D01*
X904240Y232990D02*
Y241990D01*
X925140Y262890D02*
X934140D01*
X929640Y258390D02*
Y267390D01*
X899740Y262890D02*
X908740D01*
X904240Y258390D02*
Y267390D01*
X925140Y288290D02*
X934140D01*
X929640Y283790D02*
Y292790D01*
X899740Y288290D02*
X908740D01*
X904240Y283790D02*
Y292790D01*
X925140Y313690D02*
X934140D01*
X929640Y309190D02*
Y318190D01*
X899740Y313690D02*
X908740D01*
X904240Y309190D02*
Y318190D01*
X925140Y339090D02*
X934140D01*
X929640Y334590D02*
Y343590D01*
X899740Y339090D02*
X908740D01*
X904240Y334590D02*
Y343590D01*
X925140Y364490D02*
X934140D01*
X929640Y359990D02*
Y368990D01*
X899740Y364490D02*
X908740D01*
X904240Y359990D02*
Y368990D01*
X925140Y389890D02*
X934140D01*
X929640Y385390D02*
Y394390D01*
X899740Y389890D02*
X908740D01*
X904240Y385390D02*
Y394390D01*
X925140Y415290D02*
X934140D01*
X929640Y410790D02*
Y419790D01*
X899740Y415290D02*
X908740D01*
X904240Y410790D02*
Y419790D01*
X925140Y440690D02*
X934140D01*
X929640Y436190D02*
Y445190D01*
X899740Y440690D02*
X908740D01*
X904240Y436190D02*
Y445190D01*
X925140Y466090D02*
X934140D01*
X929640Y461590D02*
Y470590D01*
X899740Y466090D02*
X908740D01*
X904240Y461590D02*
Y470590D01*
X925140Y491490D02*
X934140D01*
X929640Y486990D02*
Y495990D01*
X899740Y491490D02*
X908740D01*
X904240Y486990D02*
Y495990D01*
X925140Y516890D02*
X934140D01*
X929640Y512390D02*
Y521390D01*
X899740Y516890D02*
X908740D01*
X904240Y512390D02*
Y521390D01*
X925140Y542290D02*
X934140D01*
X929640Y537790D02*
Y546790D01*
X899740Y542290D02*
X908740D01*
X904240Y537790D02*
Y546790D01*
X925140Y567690D02*
X934140D01*
X929640Y563190D02*
Y572190D01*
X899740Y567690D02*
X908740D01*
X904240Y563190D02*
Y572190D01*
X925140Y593090D02*
X934140D01*
X929640Y588590D02*
Y597590D01*
X899740Y593090D02*
X908740D01*
X904240Y588590D02*
Y597590D01*
X1017850Y162560D02*
X1026850D01*
X1022350Y158060D02*
Y167060D01*
X1017850Y187960D02*
X1026850D01*
X1022350Y183460D02*
Y192460D01*
X1017850Y213360D02*
X1026850D01*
X1022350Y208860D02*
Y217860D01*
X1017850Y238760D02*
X1026850D01*
X1022350Y234260D02*
Y243260D01*
X1017850Y264160D02*
X1026850D01*
X1022350Y259660D02*
Y268660D01*
X1017850Y289560D02*
X1026850D01*
X1022350Y285060D02*
Y294060D01*
X1017850Y314960D02*
X1026850D01*
X1022350Y310460D02*
Y319460D01*
X1017850Y340360D02*
X1026850D01*
X1022350Y335860D02*
Y344860D01*
X1017850Y365760D02*
X1026850D01*
X1022350Y361260D02*
Y370260D01*
X1017850Y391160D02*
X1026850D01*
X1022350Y386660D02*
Y395660D01*
X1017850Y416560D02*
X1026850D01*
X1022350Y412060D02*
Y421060D01*
X1017850Y441960D02*
X1026850D01*
X1022350Y437460D02*
Y446460D01*
X1017850Y467360D02*
X1026850D01*
X1022350Y462860D02*
Y471860D01*
X1017850Y492760D02*
X1026850D01*
X1022350Y488260D02*
Y497260D01*
X1017850Y518160D02*
X1026850D01*
X1022350Y513660D02*
Y522660D01*
X1017850Y543560D02*
X1026850D01*
X1022350Y539060D02*
Y548060D01*
X1017850Y568960D02*
X1026850D01*
X1022350Y564460D02*
Y573460D01*
X1017850Y594360D02*
X1026850D01*
X1022350Y589860D02*
Y598860D01*
X197430Y176530D02*
X206430D01*
X201930Y172030D02*
Y181030D01*
X197430Y151130D02*
X206430D01*
X201930Y146630D02*
Y155630D01*
X144160Y70760D02*
X154060D01*
X149110Y65810D02*
Y75710D01*
X144160Y25760D02*
X154060D01*
X149110Y20810D02*
Y30710D01*
X209160Y25760D02*
X219060D01*
X214110Y20810D02*
Y30710D01*
X209160Y70760D02*
X219060D01*
X214110Y65810D02*
Y75710D01*
X739394Y354330D02*
X746506D01*
X742950Y350774D02*
Y357886D01*
X730504Y332740D02*
X737616D01*
X734060Y329184D02*
Y336296D01*
X810340Y365426D02*
X817452D01*
X813896Y361870D02*
Y368982D01*
X212344Y290830D02*
X219456D01*
X215900Y287274D02*
Y294386D01*
X443484Y219710D02*
X450596D01*
X447040Y216154D02*
Y223266D01*
X413004Y218440D02*
X420116D01*
X416560Y214884D02*
Y221996D01*
X370647Y221520D02*
X377759D01*
X374203Y217964D02*
Y225076D01*
X256794Y148590D02*
X263906D01*
X260350Y145034D02*
Y152146D01*
X783793Y629100D02*
X790905D01*
X787349Y625544D02*
Y632656D01*
X884174Y128270D02*
X891286D01*
X887730Y124714D02*
Y131826D01*
X815594Y130810D02*
X822706D01*
X819150Y127254D02*
Y134366D01*
X644224Y166110D02*
X651336D01*
X647780Y162554D02*
Y169666D01*
X745744Y21590D02*
X752856D01*
X749300Y18034D02*
Y25146D01*
X846074Y140970D02*
X853186D01*
X849630Y137414D02*
Y144526D01*
X678434Y415290D02*
X685546D01*
X681990Y411734D02*
Y418846D01*
X418084Y132080D02*
X425196D01*
X421640Y128524D02*
Y135636D01*
X411734Y408940D02*
X418846D01*
X415290Y405384D02*
Y412496D01*
X1038686Y676322D02*
X1045798D01*
X1042242Y672766D02*
Y679878D01*
X911686Y623744D02*
X918798D01*
X915242Y620188D02*
Y627300D01*
X839550Y617394D02*
X846662D01*
X843106Y613838D02*
Y620950D01*
X820500Y11096D02*
X827612D01*
X824056Y7540D02*
Y14652D01*
X19638Y40306D02*
X26750D01*
X23194Y36750D02*
Y43862D01*
X116920Y656002D02*
X124032D01*
X120476Y652446D02*
Y659558D01*
X519002Y664892D02*
X526114D01*
X522558Y661336D02*
Y668448D01*
X880952Y566594D02*
X888064D01*
X884508Y563038D02*
Y570150D01*
X876380Y517064D02*
X883492D01*
X879936Y513508D02*
Y520620D01*
X585550Y475662D02*
X592662D01*
X589106Y472106D02*
Y479218D01*
X1018112Y635936D02*
X1025224D01*
X1021668Y632380D02*
Y639492D01*
X210646Y678608D02*
X217758D01*
X214202Y675052D02*
Y682164D01*
X215472Y566848D02*
X222584D01*
X219028Y563292D02*
Y570404D01*
X156798Y548052D02*
X163910D01*
X160354Y544496D02*
Y551608D01*
X156798Y346630D02*
X163910D01*
X160354Y343074D02*
Y350186D01*
X376508Y346630D02*
X383620D01*
X380064Y343074D02*
Y350186D01*
X673180Y106854D02*
X680292D01*
X676736Y103298D02*
Y110410D01*
X678514Y41322D02*
X685626D01*
X682070Y37766D02*
Y44878D01*
X876968Y593518D02*
X884080D01*
X880524Y589962D02*
Y597074D01*
X73994Y214042D02*
X81106D01*
X77550Y210486D02*
Y217598D01*
X178642Y633904D02*
X185754D01*
X182198Y630348D02*
Y637460D01*
X787734Y306325D02*
X794846D01*
X791290Y302769D02*
Y309881D01*
X567262Y358346D02*
X574374D01*
X570818Y354790D02*
Y361902D01*
X172038Y334692D02*
X179150D01*
X175594Y331136D02*
Y338248D01*
X167720Y667432D02*
X174832D01*
X171276Y663876D02*
Y670988D01*
X859538Y664716D02*
X866650D01*
X863094Y661160D02*
Y668272D01*
X808308Y203882D02*
X815420D01*
X811864Y200326D02*
Y207438D01*
X484729Y175403D02*
X491841D01*
X488285Y171847D02*
Y178959D01*
X441604Y349170D02*
X448716D01*
X445160Y345614D02*
Y352726D01*
X877904Y367458D02*
X885016D01*
X881460Y363902D02*
Y371014D01*
X1041988Y555672D02*
X1049100D01*
X1045544Y552116D02*
Y559228D01*
X955120Y123364D02*
X962232D01*
X958676Y119808D02*
Y126920D01*
X577422Y237918D02*
X584534D01*
X580978Y234362D02*
Y241474D01*
X370920Y162988D02*
X378032D01*
X374476Y159432D02*
Y166544D01*
X806784Y446706D02*
X813896D01*
X810340Y443150D02*
Y450262D01*
X822024Y379650D02*
X829136D01*
X825580Y376094D02*
Y383206D01*
X632540Y421814D02*
X639652D01*
X636096Y418258D02*
Y425370D01*
X311738Y502332D02*
X318850D01*
X315294Y498776D02*
Y505888D01*
M02*
