M48
;Layer_Color=9474304
;FILE_FORMAT=4:4
METRIC,LZ
;TYPE=PLATED
T1F00S00C0.7112
T2F00S00C0.9000
T3F00S00C0.9900
T4F00S00C1.0000
T5F00S00C1.3000
T6F00S00C2.5000
%
T01
X0068207Y00041322
X00676736Y00106854
X0064778Y0016611
X00811864Y00203882
X0081915Y0013081
X0084963Y0014097
X0088773Y0012827
X00958676Y00123364
X00824056Y00011096
X007493Y0002159
X0079129Y00306325
X00580978Y00237918
X0044704Y0021971
X0041656Y0021844
X00374203Y0022152
X00374476Y00162988
X0042164Y0013208
X00488285Y00175403
X0026035Y0014859
X002159Y0029083
X0007755Y00214042
X00023194Y00040306
X00160354Y0034663
X00175594Y00334692
X00160354Y00548052
X00219028Y00566848
X00182198Y00633904
X00171276Y00667432
X00214202Y00678608
X00120476Y00656002
X00315294Y00502332
X0041529Y0040894
X0044516Y0034917
X00380064Y0034663
X00570818Y00358346
X00636096Y00421814
X00589106Y00475662
X00522558Y00664892
X00787349Y006291
X00843106Y00617394
X00880524Y00593518
X00884508Y00566594
X00879936Y00517064
X0081034Y00446706
X0082558Y0037965
X00813896Y00365426
X0088146Y00367458
X0074295Y0035433
X0073406Y0033274
X0068199Y0041529
X00863094Y00664716
X00915242Y00623744
X01021668Y00635936
X01042242Y00676322
X01045544Y00555672
T02
X0065278Y0003937
X0070993Y0004064
X0073533
X0076073
X0078613
X0081153
X0083693
X0086233
X0088773
X0089535Y0007366
X0092075
X0086995
X0084455
X0081915
X0079375
X0076835
X0074295
X0071755
X0069215
X0070104Y0011049
X0072644
X0075184
X0077724
X0080264
X0082804
X0085344
X0087884
X0086487Y0016129
X0083947
Y0018669
X0086487
Y0021209
X0083947
Y0023749
X0086487
Y0026289
X0083947
Y0028829
X0086487
X0090424
Y0026289
Y0023749
Y0021209
Y0018669
Y0016129
X0092964
Y0018669
Y0021209
Y0023749
Y0026289
Y0028829
X0096266Y0028956
X0098806
Y0026416
X0096266
Y0023876
X0098806
Y0021336
X0096266
Y0018796
X0098806
Y0016256
X0096266
X0102235
Y0018796
Y0021336
Y0023876
Y0026416
Y0028956
X0098552Y0011049
Y0008509
Y0005969
Y0003429
X0076454Y0014605
Y0017145
Y0019685
Y0022225
Y0025908
Y0028448
Y0030988
X0067183Y0027305
X0064643
Y0024765
X0067183
X0066929Y0019558
X0064389
X0069469
X0065024Y0011049
X0062484
X0059944
X0057404
X0054864
X0052324
X0049784
X0047244
X0042164
X0039624
X0037084
X0034544
X0032004
X0029464
X002921Y0007112
X002667
X003175
X003429
X003683
X003937
X004191
X004445
X0042799Y0003683
X0040259
X0037719
X0035179
X0032639
X0030099
X003048Y0019685
X002794
X003302
X003556
X00381
X004064
X004318
X004572
X0051689Y0019558
X0054229
X0056769
X0059309
X0061849
X0062103Y0024765
Y0027305
X0043434Y0027051
X0040894
X0038354
Y0024511
X0040894
X0043434
X0050673Y0007239
X0053213
X0055753
X0058293
X0057658Y0003937
X0055118
X0052578
X0050038
X0047498
X0060198
X0062738
X0020193Y0015113
Y0017653
X0020574Y0059309
X0023114
X0023241Y0064262
X0020701
X0025781
X0028321
X0030861
X0033401
X0035941
X0038481
X0042037Y0064389
X0044577
X0047117
X0049657
X0052197
X0054737
X0057277
X0059817
X0059944Y0059309
X0057404
X0054864
X0052324
X0049784
X0047244
X0044704
X0042164
X0038354
X0035814
X0033274
X0030734
X0028194
X0025654
X0027559Y0051943
X0030099
X0032639
X0035179
X0037719
X0040259
X0042799
X0045339
X0051562Y0051816
X0054102
X0056642
X0059182
X0061722
X0061976Y0046355
Y0043815
X0061722Y0039116
X0059182
X0056642
X0054102
X0051562
X0045339Y0039243
X0042799
X0040259
X0037719
X0035179
X0032639
X0030099
X0027559
X002794Y0032385
X003048
X003302
X003556
X00381
X004064
X004318
X004572
X0051689Y0032258
X0054229
X0056769
X0059309
X0061849
X0044323Y0043688
X0041783
X0039243
Y0046228
X0041783
X0044323
X0064516Y0046355
Y0043815
X0067056
Y0046355
X0066802Y0051816
X0064262
X0069342
X0070104Y0059309
X0067564
X0065024
X006477Y0064389
X006731
X006985
X007239
X007493
X007747
X008001
X008255
X0082804Y0059309
X0080264
X0077724
X0075184
X0072644
X0076454Y0055626
Y0053086
Y0050546
Y0048006
Y0044704
Y0042164
Y0039624
Y0037084
Y0033528
X0083947Y0033909
Y0031369
X0086487
Y0033909
X0090424
Y0031369
X0092964
Y0033909
Y0036449
X0090424
Y0038989
X0092964
Y0041529
X0090424
Y0044069
X0092964
Y0046609
X0090424
Y0049149
X0092964
Y0051689
X0090424
Y0054229
X0092964
Y0056769
X0090424
Y0059309
X0092964
X0096266Y0059436
X0098806
Y0056896
X0096266
Y0054356
X0098806
Y0051816
X0096266
Y0049276
X0098806
Y0046736
X0096266
Y0044196
X0098806
Y0041656
X0096266
Y0039116
X0098806
Y0036576
X0096266
Y0034036
X0098806
Y0031496
X0096266
X0102235
Y0034036
Y0036576
Y0039116
Y0041656
Y0044196
Y0046736
Y0049276
Y0051816
Y0054356
Y0056896
Y0059436
X0098298Y0066167
X0095758
X0093218
X0090678
X0086487Y0053086
X0083947
Y0050546
X0086487
Y0048006
X0083947
Y0045466
X0086487
Y0042926
X0083947
Y0040386
X0086487
X0069342Y0039116
X0066802
X0064262
X0064389Y0032258
X0066929
X0069469
T03
X0014911Y0002576
Y0007076
X0021411
Y0002576
T04
X0004191Y0023241
Y0025781
Y0028321
Y0030861
X0019431
Y0028321
Y0025781
Y0023241
Y0033401
Y0035941
Y0038481
Y0041021
Y0043561
Y0046101
Y0048641
Y0051181
X0004191
Y0048641
Y0046101
Y0043561
Y0041021
Y0038481
Y0035941
Y0033401
T05
X0009063Y0009807
Y0013307
T06
X0011811Y0024511
Y0049911
M30
