G04*
G04 #@! TF.GenerationSoftware,Altium Limited,Altium Designer,22.5.1 (42)*
G04*
G04 Layer_Color=16711935*
%FSLAX44Y44*%
%MOMM*%
G71*
G04*
G04 #@! TF.SameCoordinates,CA0BB6C5-CFA1-4992-A8A9-7B9ED42510D7*
G04*
G04*
G04 #@! TF.FilePolarity,Positive*
G04*
G01*
G75*
%ADD10C,0.2000*%
%ADD12C,0.1270*%
%ADD45C,0.1000*%
D10*
X24110Y511810D02*
G03*
X24110Y511810I-1000J0D01*
G01*
X144670Y144290D02*
X162670D01*
Y178290D01*
X144670D02*
X162670D01*
X144670Y144290D02*
Y178290D01*
X509560Y484850D02*
X577560D01*
Y416850D02*
Y484850D01*
X509560Y416850D02*
X577560D01*
X509560D02*
Y484850D01*
X512100Y290540D02*
X580100D01*
Y222540D02*
Y290540D01*
X512100Y222540D02*
X580100D01*
X512100D02*
Y290540D01*
X278420Y487390D02*
X346420D01*
Y419390D02*
Y487390D01*
X278420Y419390D02*
X346420D01*
X278420D02*
Y487390D01*
X268260Y296890D02*
X336260D01*
Y228890D02*
Y296890D01*
X268260Y228890D02*
X336260D01*
X268260D02*
Y296890D01*
D12*
X29210Y219710D02*
X207010D01*
X29210D02*
Y524510D01*
X207010D01*
Y219710D02*
Y524510D01*
D45*
X946520Y50595D02*
X961020D01*
X946520Y28596D02*
X961020D01*
Y50595D01*
X946520Y28596D02*
Y50595D01*
Y97585D02*
X961020D01*
X946520Y75586D02*
X961020D01*
Y97585D01*
X946520Y75586D02*
Y97585D01*
X389090Y156340D02*
X416090D01*
X389090Y140840D02*
X416090D01*
X389090D02*
Y156340D01*
X416090Y140840D02*
Y156340D01*
X169380Y118240D02*
X196380D01*
X169380Y102740D02*
X196380D01*
X169380D02*
Y118240D01*
X196380Y102740D02*
Y118240D01*
X61430Y80570D02*
X113830D01*
X50630D02*
X56430D01*
X55680Y76570D02*
X62180D01*
X55680D02*
X56430Y80570D01*
X61430D02*
X62180Y76570D01*
X118830Y80570D02*
X124630D01*
X113080Y76570D02*
X113830Y80570D01*
X118830D02*
X119580Y76570D01*
X113080D02*
X119580D01*
X50630Y150570D02*
X124630D01*
Y80570D02*
Y150570D01*
X50630Y80570D02*
Y150570D01*
X508020Y348350D02*
X530020D01*
X508020Y362850D02*
X530020D01*
Y348350D02*
Y362850D01*
X508020Y348350D02*
Y362850D01*
X514370Y145150D02*
X536370D01*
X514370Y159650D02*
X536370D01*
Y145150D02*
Y159650D01*
X514370Y145150D02*
Y159650D01*
X273070Y349620D02*
X295070D01*
X273070Y364120D02*
X295070D01*
Y349620D02*
Y364120D01*
X273070Y349620D02*
Y364120D01*
X279830Y154040D02*
X301830D01*
X279830Y168540D02*
X301830D01*
Y154040D02*
Y168540D01*
X279830Y154040D02*
Y168540D01*
X151660Y18310D02*
X211560D01*
Y78210D01*
X151660D02*
X211560D01*
X151660Y18310D02*
Y78210D01*
M02*
