G04*
G04 #@! TF.GenerationSoftware,Altium Limited,Altium Designer,22.5.1 (42)*
G04*
G04 Layer_Color=2752767*
%FSLAX44Y44*%
%MOMM*%
G71*
G04*
G04 #@! TF.SameCoordinates,CA0BB6C5-CFA1-4992-A8A9-7B9ED42510D7*
G04*
G04*
G04 #@! TF.FilePolarity,Positive*
G04*
G01*
G75*
%ADD48C,0.0508*%
%ADD49C,0.0677*%
D48*
X960628Y592328D02*
Y596392D01*
X964692D01*
Y592328D01*
X960628D01*
X986028D02*
Y596392D01*
X990092D01*
Y592328D01*
X986028D01*
X960628Y566928D02*
Y570992D01*
X964692D01*
Y566928D01*
X960628D01*
X986028D02*
Y570992D01*
X990092D01*
Y566928D01*
X986028D01*
X960628Y541528D02*
Y545592D01*
X964692D01*
Y541528D01*
X960628D01*
X986028D02*
Y545592D01*
X990092D01*
Y541528D01*
X986028D01*
X960628Y516128D02*
Y520192D01*
X964692D01*
Y516128D01*
X960628D01*
X986028D02*
Y520192D01*
X990092D01*
Y516128D01*
X986028D01*
X960628Y490728D02*
Y494792D01*
X964692D01*
Y490728D01*
X960628D01*
X986028D02*
Y494792D01*
X990092D01*
Y490728D01*
X986028D01*
X960628Y465328D02*
Y469392D01*
X964692D01*
Y465328D01*
X960628D01*
X986028D02*
Y469392D01*
X990092D01*
Y465328D01*
X986028D01*
X960628Y439928D02*
Y443992D01*
X964692D01*
Y439928D01*
X960628D01*
X986028D02*
Y443992D01*
X990092D01*
Y439928D01*
X986028D01*
X960628Y414528D02*
Y418592D01*
X964692D01*
Y414528D01*
X960628D01*
X986028D02*
Y418592D01*
X990092D01*
Y414528D01*
X986028D01*
X960628Y389128D02*
Y393192D01*
X964692D01*
Y389128D01*
X960628D01*
X986028D02*
Y393192D01*
X990092D01*
Y389128D01*
X986028D01*
X960628Y363728D02*
Y367792D01*
X964692D01*
Y363728D01*
X960628D01*
X986028D02*
Y367792D01*
X990092D01*
Y363728D01*
X986028D01*
X960628Y338328D02*
Y342392D01*
X964692D01*
Y338328D01*
X960628D01*
X986028D02*
Y342392D01*
X990092D01*
Y338328D01*
X986028D01*
X960628Y312928D02*
Y316992D01*
X964692D01*
Y312928D01*
X960628D01*
X986028D02*
Y316992D01*
X990092D01*
Y312928D01*
X986028D01*
X960628Y287528D02*
Y291592D01*
X964692D01*
Y287528D01*
X960628D01*
X986028D02*
Y291592D01*
X990092D01*
Y287528D01*
X986028D01*
X960628Y262128D02*
Y266192D01*
X964692D01*
Y262128D01*
X960628D01*
X986028D02*
Y266192D01*
X990092D01*
Y262128D01*
X986028D01*
X960628Y236728D02*
Y240792D01*
X964692D01*
Y236728D01*
X960628D01*
X986028D02*
Y240792D01*
X990092D01*
Y236728D01*
X986028D01*
X960628Y211328D02*
Y215392D01*
X964692D01*
Y211328D01*
X960628D01*
X986028D02*
Y215392D01*
X990092D01*
Y211328D01*
X986028D01*
X960628Y185928D02*
Y189992D01*
X964692D01*
Y185928D01*
X960628D01*
X986028D02*
Y189992D01*
X990092D01*
Y185928D01*
X986028D01*
X960628Y160528D02*
Y164592D01*
X964692D01*
Y160528D01*
X960628D01*
X986028D02*
Y164592D01*
X990092D01*
Y160528D01*
X986028D01*
X762508Y333248D02*
Y337312D01*
X766572D01*
Y333248D01*
X762508D01*
Y307848D02*
Y311912D01*
X766572D01*
Y307848D01*
X762508D01*
Y282448D02*
Y286512D01*
X766572D01*
Y282448D01*
X762508D01*
Y257048D02*
Y261112D01*
X766572D01*
Y257048D01*
X762508D01*
X88598Y96038D02*
X89614Y98070D01*
X88598Y100102D01*
X90630Y99086D01*
X92662Y100102D01*
X91646Y98070D01*
X92662Y96038D01*
X90630Y97054D01*
X88598Y96038D01*
Y131038D02*
X89614Y133070D01*
X88598Y135102D01*
X90630Y134086D01*
X92662Y135102D01*
X91646Y133070D01*
X92662Y131038D01*
X90630Y132054D01*
X88598Y131038D01*
X707898Y38608D02*
Y42672D01*
X711962D01*
Y38608D01*
X707898D01*
X733298D02*
Y42672D01*
X737362D01*
Y38608D01*
X733298D01*
X758698D02*
Y42672D01*
X762762D01*
Y38608D01*
X758698D01*
X784098D02*
Y42672D01*
X788162D01*
Y38608D01*
X784098D01*
X809498D02*
Y42672D01*
X813562D01*
Y38608D01*
X809498D01*
X834898D02*
Y42672D01*
X838962D01*
Y38608D01*
X834898D01*
X860298D02*
Y42672D01*
X864362D01*
Y38608D01*
X860298D01*
X885698D02*
Y42672D01*
X889762D01*
Y38608D01*
X885698D01*
X204978Y640588D02*
Y644652D01*
X209042D01*
Y640588D01*
X204978D01*
X230378D02*
Y644652D01*
X234442D01*
Y640588D01*
X230378D01*
X255778D02*
Y644652D01*
X259842D01*
Y640588D01*
X255778D01*
X281178D02*
Y644652D01*
X285242D01*
Y640588D01*
X281178D01*
X306578D02*
Y644652D01*
X310642D01*
Y640588D01*
X306578D01*
X331978D02*
Y644652D01*
X336042D01*
Y640588D01*
X331978D01*
X357378D02*
Y644652D01*
X361442D01*
Y640588D01*
X357378D01*
X382778D02*
Y644652D01*
X386842D01*
Y640588D01*
X382778D01*
X298958Y34798D02*
Y38862D01*
X303022D01*
Y34798D01*
X298958D01*
X324358D02*
Y38862D01*
X328422D01*
Y34798D01*
X324358D01*
X349758D02*
Y38862D01*
X353822D01*
Y34798D01*
X349758D01*
X375158D02*
Y38862D01*
X379222D01*
Y34798D01*
X375158D01*
X400558D02*
Y38862D01*
X404622D01*
Y34798D01*
X400558D01*
X425958D02*
Y38862D01*
X430022D01*
Y34798D01*
X425958D01*
X418338Y641858D02*
Y645922D01*
X422402D01*
Y641858D01*
X418338D01*
X443738D02*
Y645922D01*
X447802D01*
Y641858D01*
X443738D01*
X469138D02*
Y645922D01*
X473202D01*
Y641858D01*
X469138D01*
X494538D02*
Y645922D01*
X498602D01*
Y641858D01*
X494538D01*
X519938D02*
Y645922D01*
X524002D01*
Y641858D01*
X519938D01*
X545338D02*
Y645922D01*
X549402D01*
Y641858D01*
X545338D01*
X570738D02*
Y645922D01*
X574802D01*
Y641858D01*
X570738D01*
X596138D02*
Y645922D01*
X600202D01*
Y641858D01*
X596138D01*
X645668D02*
Y645922D01*
X649732D01*
Y641858D01*
X645668D01*
X671068D02*
Y645922D01*
X675132D01*
Y641858D01*
X671068D01*
X696468D02*
Y645922D01*
X700532D01*
Y641858D01*
X696468D01*
X721868D02*
Y645922D01*
X725932D01*
Y641858D01*
X721868D01*
X747268D02*
Y645922D01*
X751332D01*
Y641858D01*
X747268D01*
X772668D02*
Y645922D01*
X776732D01*
Y641858D01*
X772668D01*
X798068D02*
Y645922D01*
X802132D01*
Y641858D01*
X798068D01*
X823468D02*
Y645922D01*
X827532D01*
Y641858D01*
X823468D01*
X472948Y37338D02*
Y41402D01*
X477012D01*
Y37338D01*
X472948D01*
X498348D02*
Y41402D01*
X502412D01*
Y37338D01*
X498348D01*
X523748D02*
Y41402D01*
X527812D01*
Y37338D01*
X523748D01*
X549148D02*
Y41402D01*
X553212D01*
Y37338D01*
X549148D01*
X574548D02*
Y41402D01*
X578612D01*
Y37338D01*
X574548D01*
X599948D02*
Y41402D01*
X604012D01*
Y37338D01*
X599948D01*
X625348D02*
Y41402D01*
X629412D01*
Y37338D01*
X625348D01*
X650748D02*
Y41402D01*
X654812D01*
Y37338D01*
X650748D01*
X618998Y245618D02*
Y249682D01*
X623062D01*
Y245618D01*
X618998D01*
Y271018D02*
Y275082D01*
X623062D01*
Y271018D01*
X618998D01*
X644398Y245618D02*
Y249682D01*
X648462D01*
Y245618D01*
X644398D01*
Y271018D02*
Y275082D01*
X648462D01*
Y271018D01*
X644398D01*
X669798Y245618D02*
Y249682D01*
X673862D01*
Y245618D01*
X669798D01*
Y271018D02*
Y275082D01*
X673862D01*
Y271018D01*
X669798D01*
X514858Y320548D02*
Y324612D01*
X518922D01*
Y320548D01*
X514858D01*
X540258D02*
Y324612D01*
X544322D01*
Y320548D01*
X540258D01*
X565658D02*
Y324612D01*
X569722D01*
Y320548D01*
X565658D01*
X591058D02*
Y324612D01*
X595122D01*
Y320548D01*
X591058D01*
X616458D02*
Y324612D01*
X620522D01*
Y320548D01*
X616458D01*
X641858D02*
Y324612D01*
X645922D01*
Y320548D01*
X641858D01*
X667258D02*
Y324612D01*
X671322D01*
Y320548D01*
X667258D01*
X692658D02*
Y324612D01*
X696722D01*
Y320548D01*
X692658D01*
X514858Y193548D02*
Y197612D01*
X518922D01*
Y193548D01*
X514858D01*
X540258D02*
Y197612D01*
X544322D01*
Y193548D01*
X540258D01*
X565658D02*
Y197612D01*
X569722D01*
Y193548D01*
X565658D01*
X591058D02*
Y197612D01*
X595122D01*
Y193548D01*
X591058D01*
X616458D02*
Y197612D01*
X620522D01*
Y193548D01*
X616458D01*
X641858D02*
Y197612D01*
X645922D01*
Y193548D01*
X641858D01*
X667258D02*
Y197612D01*
X671322D01*
Y193548D01*
X667258D01*
X692658D02*
Y197612D01*
X696722D01*
Y193548D01*
X692658D01*
X390398Y434848D02*
Y438912D01*
X394462D01*
Y434848D01*
X390398D01*
Y460248D02*
Y464312D01*
X394462D01*
Y460248D01*
X390398D01*
X415798Y434848D02*
Y438912D01*
X419862D01*
Y434848D01*
X415798D01*
Y460248D02*
Y464312D01*
X419862D01*
Y460248D01*
X415798D01*
X441198Y434848D02*
Y438912D01*
X445262D01*
Y434848D01*
X441198D01*
Y460248D02*
Y464312D01*
X445262D01*
Y460248D01*
X441198D01*
X273558Y517398D02*
Y521462D01*
X277622D01*
Y517398D01*
X273558D01*
X298958D02*
Y521462D01*
X303022D01*
Y517398D01*
X298958D01*
X324358D02*
Y521462D01*
X328422D01*
Y517398D01*
X324358D01*
X349758D02*
Y521462D01*
X353822D01*
Y517398D01*
X349758D01*
X375158D02*
Y521462D01*
X379222D01*
Y517398D01*
X375158D01*
X400558D02*
Y521462D01*
X404622D01*
Y517398D01*
X400558D01*
X425958D02*
Y521462D01*
X430022D01*
Y517398D01*
X425958D01*
X451358D02*
Y521462D01*
X455422D01*
Y517398D01*
X451358D01*
X273558Y390398D02*
Y394462D01*
X277622D01*
Y390398D01*
X273558D01*
X298958D02*
Y394462D01*
X303022D01*
Y390398D01*
X298958D01*
X324358D02*
Y394462D01*
X328422D01*
Y390398D01*
X324358D01*
X349758D02*
Y394462D01*
X353822D01*
Y390398D01*
X349758D01*
X375158D02*
Y394462D01*
X379222D01*
Y390398D01*
X375158D01*
X400558D02*
Y394462D01*
X404622D01*
Y390398D01*
X400558D01*
X425958D02*
Y394462D01*
X430022D01*
Y390398D01*
X425958D01*
X451358D02*
Y394462D01*
X455422D01*
Y390398D01*
X451358D01*
X381508Y243078D02*
Y247142D01*
X385572D01*
Y243078D01*
X381508D01*
Y268478D02*
Y272542D01*
X385572D01*
Y268478D01*
X381508D01*
X406908Y243078D02*
Y247142D01*
X410972D01*
Y243078D01*
X406908D01*
Y268478D02*
Y272542D01*
X410972D01*
Y268478D01*
X406908D01*
X432308Y243078D02*
Y247142D01*
X436372D01*
Y243078D01*
X432308D01*
Y268478D02*
Y272542D01*
X436372D01*
Y268478D01*
X432308D01*
X277368Y321818D02*
Y325882D01*
X281432D01*
Y321818D01*
X277368D01*
X302768D02*
Y325882D01*
X306832D01*
Y321818D01*
X302768D01*
X328168D02*
Y325882D01*
X332232D01*
Y321818D01*
X328168D01*
X353568D02*
Y325882D01*
X357632D01*
Y321818D01*
X353568D01*
X378968D02*
Y325882D01*
X383032D01*
Y321818D01*
X378968D01*
X404368D02*
Y325882D01*
X408432D01*
Y321818D01*
X404368D01*
X429768D02*
Y325882D01*
X433832D01*
Y321818D01*
X429768D01*
X455168D02*
Y325882D01*
X459232D01*
Y321818D01*
X455168D01*
X277368Y194818D02*
Y198882D01*
X281432D01*
Y194818D01*
X277368D01*
X302768D02*
Y198882D01*
X306832D01*
Y194818D01*
X302768D01*
X328168D02*
Y198882D01*
X332232D01*
Y194818D01*
X328168D01*
X353568D02*
Y198882D01*
X357632D01*
Y194818D01*
X353568D01*
X378968D02*
Y198882D01*
X383032D01*
Y194818D01*
X378968D01*
X404368D02*
Y198882D01*
X408432D01*
Y194818D01*
X404368D01*
X429768D02*
Y198882D01*
X433832D01*
Y194818D01*
X429768D01*
X455168D02*
Y198882D01*
X459232D01*
Y194818D01*
X455168D01*
X762508Y445008D02*
Y449072D01*
X766572D01*
Y445008D01*
X762508D01*
Y419608D02*
Y423672D01*
X766572D01*
Y419608D01*
X762508D01*
Y394208D02*
Y398272D01*
X766572D01*
Y394208D01*
X762508D01*
Y368808D02*
Y372872D01*
X766572D01*
Y368808D01*
X762508D01*
Y220218D02*
Y224282D01*
X766572D01*
Y220218D01*
X762508D01*
Y194818D02*
Y198882D01*
X766572D01*
Y194818D01*
X762508D01*
Y169418D02*
Y173482D01*
X766572D01*
Y169418D01*
X762508D01*
Y144018D02*
Y148082D01*
X766572D01*
Y144018D01*
X762508D01*
Y554228D02*
Y558292D01*
X766572D01*
Y554228D01*
X762508D01*
Y528828D02*
Y532892D01*
X766572D01*
Y528828D01*
X762508D01*
Y503428D02*
Y507492D01*
X766572D01*
Y503428D01*
X762508D01*
Y478028D02*
Y482092D01*
X766572D01*
Y478028D01*
X762508D01*
X617728Y436118D02*
Y440182D01*
X621792D01*
Y436118D01*
X617728D01*
Y461518D02*
Y465582D01*
X621792D01*
Y461518D01*
X617728D01*
X643128Y436118D02*
Y440182D01*
X647192D01*
Y436118D01*
X643128D01*
Y461518D02*
Y465582D01*
X647192D01*
Y461518D01*
X643128D01*
X668528Y436118D02*
Y440182D01*
X672592D01*
Y436118D01*
X668528D01*
Y461518D02*
Y465582D01*
X672592D01*
Y461518D01*
X668528D01*
X513588Y516128D02*
Y520192D01*
X517652D01*
Y516128D01*
X513588D01*
X538988D02*
Y520192D01*
X543052D01*
Y516128D01*
X538988D01*
X564388D02*
Y520192D01*
X568452D01*
Y516128D01*
X564388D01*
X589788D02*
Y520192D01*
X593852D01*
Y516128D01*
X589788D01*
X615188D02*
Y520192D01*
X619252D01*
Y516128D01*
X615188D01*
X640588D02*
Y520192D01*
X644652D01*
Y516128D01*
X640588D01*
X665988D02*
Y520192D01*
X670052D01*
Y516128D01*
X665988D01*
X691388D02*
Y520192D01*
X695452D01*
Y516128D01*
X691388D01*
X513588Y389128D02*
Y393192D01*
X517652D01*
Y389128D01*
X513588D01*
X538988D02*
Y393192D01*
X543052D01*
Y389128D01*
X538988D01*
X564388D02*
Y393192D01*
X568452D01*
Y389128D01*
X564388D01*
X589788D02*
Y393192D01*
X593852D01*
Y389128D01*
X589788D01*
X615188D02*
Y393192D01*
X619252D01*
Y389128D01*
X615188D01*
X640588D02*
Y393192D01*
X644652D01*
Y389128D01*
X640588D01*
X665988D02*
Y393192D01*
X670052D01*
Y389128D01*
X665988D01*
X691388D02*
Y393192D01*
X695452D01*
Y389128D01*
X691388D01*
X41910Y509778D02*
X39878Y513842D01*
X43942D01*
X41910Y509778D01*
Y484378D02*
X39878Y488442D01*
X43942D01*
X41910Y484378D01*
Y458978D02*
X39878Y463042D01*
X43942D01*
X41910Y458978D01*
Y433578D02*
X39878Y437642D01*
X43942D01*
X41910Y433578D01*
Y408178D02*
X39878Y412242D01*
X43942D01*
X41910Y408178D01*
Y382778D02*
X39878Y386842D01*
X43942D01*
X41910Y382778D01*
Y357378D02*
X39878Y361442D01*
X43942D01*
X41910Y357378D01*
Y331978D02*
X39878Y336042D01*
X43942D01*
X41910Y331978D01*
Y306578D02*
X39878Y310642D01*
X43942D01*
X41910Y306578D01*
Y281178D02*
X39878Y285242D01*
X43942D01*
X41910Y281178D01*
Y255778D02*
X39878Y259842D01*
X43942D01*
X41910Y255778D01*
Y230378D02*
X39878Y234442D01*
X43942D01*
X41910Y230378D01*
X194310D02*
X192278Y234442D01*
X196342D01*
X194310Y230378D01*
Y255778D02*
X192278Y259842D01*
X196342D01*
X194310Y255778D01*
Y281178D02*
X192278Y285242D01*
X196342D01*
X194310Y281178D01*
Y306578D02*
X192278Y310642D01*
X196342D01*
X194310Y306578D01*
Y331978D02*
X192278Y336042D01*
X196342D01*
X194310Y331978D01*
Y357378D02*
X192278Y361442D01*
X196342D01*
X194310Y357378D01*
Y382778D02*
X192278Y386842D01*
X196342D01*
X194310Y382778D01*
Y408178D02*
X192278Y412242D01*
X196342D01*
X194310Y408178D01*
Y433578D02*
X192278Y437642D01*
X196342D01*
X194310Y433578D01*
Y458978D02*
X192278Y463042D01*
X196342D01*
X194310Y458978D01*
Y484378D02*
X192278Y488442D01*
X196342D01*
X194310Y484378D01*
Y509778D02*
X192278Y513842D01*
X196342D01*
X194310Y509778D01*
X118110Y497078D02*
X119126Y498094D01*
X120142D01*
X119126Y499110D01*
X120142Y500126D01*
X119126D01*
X118110Y501142D01*
X117094Y500126D01*
X116078D01*
X117094Y499110D01*
X116078Y498094D01*
X117094D01*
X118110Y497078D01*
Y243078D02*
X119126Y244094D01*
X120142D01*
X119126Y245110D01*
X120142Y246126D01*
X119126D01*
X118110Y247142D01*
X117094Y246126D01*
X116078D01*
X117094Y245110D01*
X116078Y244094D01*
X117094D01*
X118110Y243078D01*
X699008Y108458D02*
Y112522D01*
X703072D01*
Y108458D01*
X699008D01*
X724408D02*
Y112522D01*
X728472D01*
Y108458D01*
X724408D01*
X749808D02*
Y112522D01*
X753872D01*
Y108458D01*
X749808D01*
X775208D02*
Y112522D01*
X779272D01*
Y108458D01*
X775208D01*
X800608D02*
Y112522D01*
X804672D01*
Y108458D01*
X800608D01*
X826008D02*
Y112522D01*
X830072D01*
Y108458D01*
X826008D01*
X851408D02*
Y112522D01*
X855472D01*
Y108458D01*
X851408D01*
X876808D02*
Y112522D01*
X880872D01*
Y108458D01*
X876808D01*
X203708Y591058D02*
Y595122D01*
X207772D01*
Y591058D01*
X203708D01*
X229108D02*
Y595122D01*
X233172D01*
Y591058D01*
X229108D01*
X254508D02*
Y595122D01*
X258572D01*
Y591058D01*
X254508D01*
X279908D02*
Y595122D01*
X283972D01*
Y591058D01*
X279908D01*
X305308D02*
Y595122D01*
X309372D01*
Y591058D01*
X305308D01*
X330708D02*
Y595122D01*
X334772D01*
Y591058D01*
X330708D01*
X356108D02*
Y595122D01*
X360172D01*
Y591058D01*
X356108D01*
X381508D02*
Y595122D01*
X385572D01*
Y591058D01*
X381508D01*
X862838Y159258D02*
Y163322D01*
X866902D01*
Y159258D01*
X862838D01*
X837438D02*
Y163322D01*
X841502D01*
Y159258D01*
X837438D01*
X862838Y184658D02*
Y188722D01*
X866902D01*
Y184658D01*
X862838D01*
X837438D02*
Y188722D01*
X841502D01*
Y184658D01*
X837438D01*
X862838Y210058D02*
Y214122D01*
X866902D01*
Y210058D01*
X862838D01*
X837438D02*
Y214122D01*
X841502D01*
Y210058D01*
X837438D01*
X862838Y235458D02*
Y239522D01*
X866902D01*
Y235458D01*
X862838D01*
X837438D02*
Y239522D01*
X841502D01*
Y235458D01*
X837438D01*
X862838Y260858D02*
Y264922D01*
X866902D01*
Y260858D01*
X862838D01*
X837438D02*
Y264922D01*
X841502D01*
Y260858D01*
X837438D01*
X862838Y286258D02*
Y290322D01*
X866902D01*
Y286258D01*
X862838D01*
X837438D02*
Y290322D01*
X841502D01*
Y286258D01*
X837438D01*
X862838Y311658D02*
Y315722D01*
X866902D01*
Y311658D01*
X862838D01*
X837438D02*
Y315722D01*
X841502D01*
Y311658D01*
X837438D01*
X862838Y337058D02*
Y341122D01*
X866902D01*
Y337058D01*
X862838D01*
X837438D02*
Y341122D01*
X841502D01*
Y337058D01*
X837438D01*
Y528828D02*
Y532892D01*
X841502D01*
Y528828D01*
X837438D01*
X862838D02*
Y532892D01*
X866902D01*
Y528828D01*
X862838D01*
X837438Y503428D02*
Y507492D01*
X841502D01*
Y503428D01*
X837438D01*
X862838D02*
Y507492D01*
X866902D01*
Y503428D01*
X862838D01*
X837438Y478028D02*
Y482092D01*
X841502D01*
Y478028D01*
X837438D01*
X862838D02*
Y482092D01*
X866902D01*
Y478028D01*
X862838D01*
X837438Y452628D02*
Y456692D01*
X841502D01*
Y452628D01*
X837438D01*
X862838D02*
Y456692D01*
X866902D01*
Y452628D01*
X862838D01*
X837438Y427228D02*
Y431292D01*
X841502D01*
Y427228D01*
X837438D01*
X862838D02*
Y431292D01*
X866902D01*
Y427228D01*
X862838D01*
X837438Y401828D02*
Y405892D01*
X841502D01*
Y401828D01*
X837438D01*
X862838D02*
Y405892D01*
X866902D01*
Y401828D01*
X862838D01*
X292608Y108458D02*
Y112522D01*
X296672D01*
Y108458D01*
X292608D01*
X318008D02*
Y112522D01*
X322072D01*
Y108458D01*
X318008D01*
X343408D02*
Y112522D01*
X347472D01*
Y108458D01*
X343408D01*
X368808D02*
Y112522D01*
X372872D01*
Y108458D01*
X368808D01*
X394208D02*
Y112522D01*
X398272D01*
Y108458D01*
X394208D01*
X419608D02*
Y112522D01*
X423672D01*
Y108458D01*
X419608D01*
Y591058D02*
Y595122D01*
X423672D01*
Y591058D01*
X419608D01*
X445008D02*
Y595122D01*
X449072D01*
Y591058D01*
X445008D01*
X470408D02*
Y595122D01*
X474472D01*
Y591058D01*
X470408D01*
X495808D02*
Y595122D01*
X499872D01*
Y591058D01*
X495808D01*
X521208D02*
Y595122D01*
X525272D01*
Y591058D01*
X521208D01*
X546608D02*
Y595122D01*
X550672D01*
Y591058D01*
X546608D01*
X572008D02*
Y595122D01*
X576072D01*
Y591058D01*
X572008D01*
X597408D02*
Y595122D01*
X601472D01*
Y591058D01*
X597408D01*
X648208D02*
Y595122D01*
X652272D01*
Y591058D01*
X648208D01*
X673608D02*
Y595122D01*
X677672D01*
Y591058D01*
X673608D01*
X699008D02*
Y595122D01*
X703072D01*
Y591058D01*
X699008D01*
X724408D02*
Y595122D01*
X728472D01*
Y591058D01*
X724408D01*
X749808D02*
Y595122D01*
X753872D01*
Y591058D01*
X749808D01*
X775208D02*
Y595122D01*
X779272D01*
Y591058D01*
X775208D01*
X800608D02*
Y595122D01*
X804672D01*
Y591058D01*
X800608D01*
X826008D02*
Y595122D01*
X830072D01*
Y591058D01*
X826008D01*
X470408Y108458D02*
Y112522D01*
X474472D01*
Y108458D01*
X470408D01*
X495808D02*
Y112522D01*
X499872D01*
Y108458D01*
X495808D01*
X521208D02*
Y112522D01*
X525272D01*
Y108458D01*
X521208D01*
X546608D02*
Y112522D01*
X550672D01*
Y108458D01*
X546608D01*
X572008D02*
Y112522D01*
X576072D01*
Y108458D01*
X572008D01*
X597408D02*
Y112522D01*
X601472D01*
Y108458D01*
X597408D01*
X622808D02*
Y112522D01*
X626872D01*
Y108458D01*
X622808D01*
X648208D02*
Y112522D01*
X652272D01*
Y108458D01*
X648208D01*
X264668Y69088D02*
Y73152D01*
X268732D01*
Y69088D01*
X264668D01*
X290068D02*
Y73152D01*
X294132D01*
Y69088D01*
X290068D01*
X315468D02*
Y73152D01*
X319532D01*
Y69088D01*
X315468D01*
X340868D02*
Y73152D01*
X344932D01*
Y69088D01*
X340868D01*
X366268D02*
Y73152D01*
X370332D01*
Y69088D01*
X366268D01*
X391668D02*
Y73152D01*
X395732D01*
Y69088D01*
X391668D01*
X417068D02*
Y73152D01*
X421132D01*
Y69088D01*
X417068D01*
X442468D02*
Y73152D01*
X446532D01*
Y69088D01*
X442468D01*
X580898Y70358D02*
Y74422D01*
X584962D01*
Y70358D01*
X580898D01*
X555498D02*
Y74422D01*
X559562D01*
Y70358D01*
X555498D01*
X530098D02*
Y74422D01*
X534162D01*
Y70358D01*
X530098D01*
X504698D02*
Y74422D01*
X508762D01*
Y70358D01*
X504698D01*
X980948Y659638D02*
Y663702D01*
X985012D01*
Y659638D01*
X980948D01*
X955548D02*
Y663702D01*
X959612D01*
Y659638D01*
X955548D01*
X930148D02*
Y663702D01*
X934212D01*
Y659638D01*
X930148D01*
X904748D02*
Y663702D01*
X908812D01*
Y659638D01*
X904748D01*
X740918Y71628D02*
Y75692D01*
X744982D01*
Y71628D01*
X740918D01*
X918718D02*
Y75692D01*
X922782D01*
Y71628D01*
X918718D01*
X893318D02*
Y75692D01*
X897382D01*
Y71628D01*
X893318D01*
X867918D02*
Y75692D01*
X871982D01*
Y71628D01*
X867918D01*
X842518D02*
Y75692D01*
X846582D01*
Y71628D01*
X842518D01*
X817118D02*
Y75692D01*
X821182D01*
Y71628D01*
X817118D01*
X791718D02*
Y75692D01*
X795782D01*
Y71628D01*
X791718D01*
X766318D02*
Y75692D01*
X770382D01*
Y71628D01*
X766318D01*
X715518D02*
Y75692D01*
X719582D01*
Y71628D01*
X715518D01*
X690118D02*
Y75692D01*
X694182D01*
Y71628D01*
X690118D01*
X983488Y32258D02*
Y36322D01*
X987552D01*
Y32258D01*
X983488D01*
Y57658D02*
Y61722D01*
X987552D01*
Y57658D01*
X983488D01*
Y83058D02*
Y87122D01*
X987552D01*
Y83058D01*
X983488D01*
Y108458D02*
Y112522D01*
X987552D01*
Y108458D01*
X983488D01*
X927608Y159258D02*
Y163322D01*
X931672D01*
Y159258D01*
X927608D01*
X902208D02*
Y163322D01*
X906272D01*
Y159258D01*
X902208D01*
X927608Y184658D02*
Y188722D01*
X931672D01*
Y184658D01*
X927608D01*
X902208D02*
Y188722D01*
X906272D01*
Y184658D01*
X902208D01*
X927608Y210058D02*
Y214122D01*
X931672D01*
Y210058D01*
X927608D01*
X902208D02*
Y214122D01*
X906272D01*
Y210058D01*
X902208D01*
X927608Y235458D02*
Y239522D01*
X931672D01*
Y235458D01*
X927608D01*
X902208D02*
Y239522D01*
X906272D01*
Y235458D01*
X902208D01*
X927608Y260858D02*
Y264922D01*
X931672D01*
Y260858D01*
X927608D01*
X902208D02*
Y264922D01*
X906272D01*
Y260858D01*
X902208D01*
X927608Y286258D02*
Y290322D01*
X931672D01*
Y286258D01*
X927608D01*
X902208D02*
Y290322D01*
X906272D01*
Y286258D01*
X902208D01*
X927608Y311658D02*
Y315722D01*
X931672D01*
Y311658D01*
X927608D01*
X902208D02*
Y315722D01*
X906272D01*
Y311658D01*
X902208D01*
X927608Y337058D02*
Y341122D01*
X931672D01*
Y337058D01*
X927608D01*
X902208D02*
Y341122D01*
X906272D01*
Y337058D01*
X902208D01*
X927608Y362458D02*
Y366522D01*
X931672D01*
Y362458D01*
X927608D01*
X902208D02*
Y366522D01*
X906272D01*
Y362458D01*
X902208D01*
X927608Y387858D02*
Y391922D01*
X931672D01*
Y387858D01*
X927608D01*
X902208D02*
Y391922D01*
X906272D01*
Y387858D01*
X902208D01*
X927608Y413258D02*
Y417322D01*
X931672D01*
Y413258D01*
X927608D01*
X902208D02*
Y417322D01*
X906272D01*
Y413258D01*
X902208D01*
X927608Y438658D02*
Y442722D01*
X931672D01*
Y438658D01*
X927608D01*
X902208D02*
Y442722D01*
X906272D01*
Y438658D01*
X902208D01*
X927608Y464058D02*
Y468122D01*
X931672D01*
Y464058D01*
X927608D01*
X902208D02*
Y468122D01*
X906272D01*
Y464058D01*
X902208D01*
X927608Y489458D02*
Y493522D01*
X931672D01*
Y489458D01*
X927608D01*
X902208D02*
Y493522D01*
X906272D01*
Y489458D01*
X902208D01*
X927608Y514858D02*
Y518922D01*
X931672D01*
Y514858D01*
X927608D01*
X902208D02*
Y518922D01*
X906272D01*
Y514858D01*
X902208D01*
X927608Y540258D02*
Y544322D01*
X931672D01*
Y540258D01*
X927608D01*
X902208D02*
Y544322D01*
X906272D01*
Y540258D01*
X902208D01*
X927608Y565658D02*
Y569722D01*
X931672D01*
Y565658D01*
X927608D01*
X902208D02*
Y569722D01*
X906272D01*
Y565658D01*
X902208D01*
X927608Y591058D02*
Y595122D01*
X931672D01*
Y591058D01*
X927608D01*
X902208D02*
Y595122D01*
X906272D01*
Y591058D01*
X902208D01*
X1020318Y160528D02*
Y164592D01*
X1024382D01*
Y160528D01*
X1020318D01*
Y185928D02*
Y189992D01*
X1024382D01*
Y185928D01*
X1020318D01*
Y211328D02*
Y215392D01*
X1024382D01*
Y211328D01*
X1020318D01*
Y236728D02*
Y240792D01*
X1024382D01*
Y236728D01*
X1020318D01*
Y262128D02*
Y266192D01*
X1024382D01*
Y262128D01*
X1020318D01*
Y287528D02*
Y291592D01*
X1024382D01*
Y287528D01*
X1020318D01*
Y312928D02*
Y316992D01*
X1024382D01*
Y312928D01*
X1020318D01*
Y338328D02*
Y342392D01*
X1024382D01*
Y338328D01*
X1020318D01*
Y363728D02*
Y367792D01*
X1024382D01*
Y363728D01*
X1020318D01*
Y389128D02*
Y393192D01*
X1024382D01*
Y389128D01*
X1020318D01*
Y414528D02*
Y418592D01*
X1024382D01*
Y414528D01*
X1020318D01*
Y439928D02*
Y443992D01*
X1024382D01*
Y439928D01*
X1020318D01*
Y465328D02*
Y469392D01*
X1024382D01*
Y465328D01*
X1020318D01*
Y490728D02*
Y494792D01*
X1024382D01*
Y490728D01*
X1020318D01*
Y516128D02*
Y520192D01*
X1024382D01*
Y516128D01*
X1020318D01*
Y541528D02*
Y545592D01*
X1024382D01*
Y541528D01*
X1020318D01*
Y566928D02*
Y570992D01*
X1024382D01*
Y566928D01*
X1020318D01*
Y592328D02*
Y596392D01*
X1024382D01*
Y592328D01*
X1020318D01*
X199898Y174498D02*
Y178562D01*
X203962D01*
Y174498D01*
X199898D01*
Y149098D02*
Y153162D01*
X203962D01*
Y149098D01*
X199898D01*
X148094Y69744D02*
Y68728D01*
X150126D01*
Y69744D01*
X151142D01*
Y71776D01*
X150126D01*
Y72792D01*
X148094D01*
Y71776D01*
X147078D01*
Y69744D01*
X148094D01*
Y24744D02*
Y23728D01*
X150126D01*
Y24744D01*
X151142D01*
Y26776D01*
X150126D01*
Y27792D01*
X148094D01*
Y26776D01*
X147078D01*
Y24744D01*
X148094D01*
X213094D02*
Y23728D01*
X215126D01*
Y24744D01*
X216142D01*
Y26776D01*
X215126D01*
Y27792D01*
X213094D01*
Y26776D01*
X212078D01*
Y24744D01*
X213094D01*
Y69744D02*
Y68728D01*
X215126D01*
Y69744D01*
X216142D01*
Y71776D01*
X215126D01*
Y72792D01*
X213094D01*
Y71776D01*
X212078D01*
Y69744D01*
X213094D01*
D49*
X744982Y354330D02*
G03*
X744982Y354330I-2032J0D01*
G01*
X736092Y332740D02*
G03*
X736092Y332740I-2032J0D01*
G01*
X815928Y365426D02*
G03*
X815928Y365426I-2032J0D01*
G01*
X217932Y290830D02*
G03*
X217932Y290830I-2032J0D01*
G01*
X449072Y219710D02*
G03*
X449072Y219710I-2032J0D01*
G01*
X418592Y218440D02*
G03*
X418592Y218440I-2032J0D01*
G01*
X376235Y221520D02*
G03*
X376235Y221520I-2032J0D01*
G01*
X262382Y148590D02*
G03*
X262382Y148590I-2032J0D01*
G01*
X789381Y629100D02*
G03*
X789381Y629100I-2032J0D01*
G01*
X889762Y128270D02*
G03*
X889762Y128270I-2032J0D01*
G01*
X821182Y130810D02*
G03*
X821182Y130810I-2032J0D01*
G01*
X649812Y166110D02*
G03*
X649812Y166110I-2032J0D01*
G01*
X751332Y21590D02*
G03*
X751332Y21590I-2032J0D01*
G01*
X851662Y140970D02*
G03*
X851662Y140970I-2032J0D01*
G01*
X684022Y415290D02*
G03*
X684022Y415290I-2032J0D01*
G01*
X423672Y132080D02*
G03*
X423672Y132080I-2032J0D01*
G01*
X417322Y408940D02*
G03*
X417322Y408940I-2032J0D01*
G01*
X1044274Y676322D02*
G03*
X1044274Y676322I-2032J0D01*
G01*
X917274Y623744D02*
G03*
X917274Y623744I-2032J0D01*
G01*
X845138Y617394D02*
G03*
X845138Y617394I-2032J0D01*
G01*
X826088Y11096D02*
G03*
X826088Y11096I-2032J0D01*
G01*
X25226Y40306D02*
G03*
X25226Y40306I-2032J0D01*
G01*
X122508Y656002D02*
G03*
X122508Y656002I-2032J0D01*
G01*
X524590Y664892D02*
G03*
X524590Y664892I-2032J0D01*
G01*
X886540Y566594D02*
G03*
X886540Y566594I-2032J0D01*
G01*
X881968Y517064D02*
G03*
X881968Y517064I-2032J0D01*
G01*
X591138Y475662D02*
G03*
X591138Y475662I-2032J0D01*
G01*
X1023700Y635936D02*
G03*
X1023700Y635936I-2032J0D01*
G01*
X216234Y678608D02*
G03*
X216234Y678608I-2032J0D01*
G01*
X221060Y566848D02*
G03*
X221060Y566848I-2032J0D01*
G01*
X162386Y548052D02*
G03*
X162386Y548052I-2032J0D01*
G01*
Y346630D02*
G03*
X162386Y346630I-2032J0D01*
G01*
X382096D02*
G03*
X382096Y346630I-2032J0D01*
G01*
X678768Y106854D02*
G03*
X678768Y106854I-2032J0D01*
G01*
X684102Y41322D02*
G03*
X684102Y41322I-2032J0D01*
G01*
X882556Y593518D02*
G03*
X882556Y593518I-2032J0D01*
G01*
X79582Y214042D02*
G03*
X79582Y214042I-2032J0D01*
G01*
X184230Y633904D02*
G03*
X184230Y633904I-2032J0D01*
G01*
X793322Y306325D02*
G03*
X793322Y306325I-2032J0D01*
G01*
X572850Y358346D02*
G03*
X572850Y358346I-2032J0D01*
G01*
X177626Y334692D02*
G03*
X177626Y334692I-2032J0D01*
G01*
X173308Y667432D02*
G03*
X173308Y667432I-2032J0D01*
G01*
X865126Y664716D02*
G03*
X865126Y664716I-2032J0D01*
G01*
X813896Y203882D02*
G03*
X813896Y203882I-2032J0D01*
G01*
X490317Y175403D02*
G03*
X490317Y175403I-2032J0D01*
G01*
X447192Y349170D02*
G03*
X447192Y349170I-2032J0D01*
G01*
X883492Y367458D02*
G03*
X883492Y367458I-2032J0D01*
G01*
X1047576Y555672D02*
G03*
X1047576Y555672I-2032J0D01*
G01*
X960708Y123364D02*
G03*
X960708Y123364I-2032J0D01*
G01*
X583010Y237918D02*
G03*
X583010Y237918I-2032J0D01*
G01*
X376508Y162988D02*
G03*
X376508Y162988I-2032J0D01*
G01*
X812372Y446706D02*
G03*
X812372Y446706I-2032J0D01*
G01*
X827612Y379650D02*
G03*
X827612Y379650I-2032J0D01*
G01*
X638128Y421814D02*
G03*
X638128Y421814I-2032J0D01*
G01*
X317326Y502332D02*
G03*
X317326Y502332I-2032J0D01*
G01*
M02*
